G04 #@! TF.GenerationSoftware,KiCad,Pcbnew,5.1.6+dfsg1-1~bpo9+1*
G04 #@! TF.CreationDate,2020-06-19T12:03:56+02:00*
G04 #@! TF.ProjectId,RF-Arduino-Pro-Mini,52462d41-7264-4756-996e-6f2d50726f2d,rev?*
G04 #@! TF.SameCoordinates,Original*
G04 #@! TF.FileFunction,Soldermask,Top*
G04 #@! TF.FilePolarity,Negative*
%FSLAX46Y46*%
G04 Gerber Fmt 4.6, Leading zero omitted, Abs format (unit mm)*
G04 Created by KiCad (PCBNEW 5.1.6+dfsg1-1~bpo9+1) date 2020-06-19 12:03:56*
%MOMM*%
%LPD*%
G01*
G04 APERTURE LIST*
%ADD10C,0.100000*%
G04 APERTURE END LIST*
D10*
G36*
X124473857Y-131776477D02*
G01*
X124482369Y-131779060D01*
X124490221Y-131783257D01*
X124497099Y-131788901D01*
X124502743Y-131795779D01*
X124506940Y-131803631D01*
X124509523Y-131812143D01*
X124511000Y-131827141D01*
X124511000Y-132840859D01*
X124509523Y-132855857D01*
X124506940Y-132864369D01*
X124502743Y-132872221D01*
X124497099Y-132879099D01*
X124490221Y-132884743D01*
X124482369Y-132888940D01*
X124473857Y-132891523D01*
X124458859Y-132893000D01*
X121921141Y-132893000D01*
X121906143Y-132891523D01*
X121897631Y-132888940D01*
X121889779Y-132884743D01*
X121882901Y-132879099D01*
X121877257Y-132872221D01*
X121873060Y-132864369D01*
X121870477Y-132855857D01*
X121869000Y-132840859D01*
X121869000Y-131827141D01*
X121870477Y-131812143D01*
X121873060Y-131803631D01*
X121877257Y-131795779D01*
X121882901Y-131788901D01*
X121889779Y-131783257D01*
X121897631Y-131779060D01*
X121906143Y-131776477D01*
X121921141Y-131775000D01*
X124458859Y-131775000D01*
X124473857Y-131776477D01*
G37*
G36*
X130951246Y-125019912D02*
G01*
X131021183Y-125033823D01*
X131075759Y-125056429D01*
X131152942Y-125088399D01*
X131271522Y-125167632D01*
X131372368Y-125268478D01*
X131451601Y-125387058D01*
X131506177Y-125518818D01*
X131534000Y-125658691D01*
X131534000Y-125801309D01*
X131506177Y-125941182D01*
X131451601Y-126072942D01*
X131372368Y-126191522D01*
X131271522Y-126292368D01*
X131152942Y-126371601D01*
X131075759Y-126403571D01*
X131021183Y-126426177D01*
X130951246Y-126440088D01*
X130881309Y-126454000D01*
X130738691Y-126454000D01*
X130668754Y-126440088D01*
X130598817Y-126426177D01*
X130544241Y-126403571D01*
X130467058Y-126371601D01*
X130348478Y-126292368D01*
X130247632Y-126191522D01*
X130168399Y-126072942D01*
X130113823Y-125941182D01*
X130086000Y-125801309D01*
X130086000Y-125658691D01*
X130113823Y-125518818D01*
X130168399Y-125387058D01*
X130247632Y-125268478D01*
X130348478Y-125167632D01*
X130467058Y-125088399D01*
X130544241Y-125056429D01*
X130598817Y-125033823D01*
X130668754Y-125019912D01*
X130738691Y-125006000D01*
X130881309Y-125006000D01*
X130951246Y-125019912D01*
G37*
G36*
X115711246Y-125019912D02*
G01*
X115781183Y-125033823D01*
X115835759Y-125056429D01*
X115912942Y-125088399D01*
X116031522Y-125167632D01*
X116132368Y-125268478D01*
X116211601Y-125387058D01*
X116266177Y-125518818D01*
X116294000Y-125658691D01*
X116294000Y-125801309D01*
X116266177Y-125941182D01*
X116211601Y-126072942D01*
X116132368Y-126191522D01*
X116031522Y-126292368D01*
X115912942Y-126371601D01*
X115835759Y-126403571D01*
X115781183Y-126426177D01*
X115711246Y-126440088D01*
X115641309Y-126454000D01*
X115498691Y-126454000D01*
X115428754Y-126440088D01*
X115358817Y-126426177D01*
X115304241Y-126403571D01*
X115227058Y-126371601D01*
X115108478Y-126292368D01*
X115007632Y-126191522D01*
X114928399Y-126072942D01*
X114873823Y-125941182D01*
X114846000Y-125801309D01*
X114846000Y-125658691D01*
X114873823Y-125518818D01*
X114928399Y-125387058D01*
X115007632Y-125268478D01*
X115108478Y-125167632D01*
X115227058Y-125088399D01*
X115304241Y-125056429D01*
X115358817Y-125033823D01*
X115428754Y-125019912D01*
X115498691Y-125006000D01*
X115641309Y-125006000D01*
X115711246Y-125019912D01*
G37*
G36*
X124473857Y-125172477D02*
G01*
X124482369Y-125175060D01*
X124490221Y-125179257D01*
X124497099Y-125184901D01*
X124502743Y-125191779D01*
X124506940Y-125199631D01*
X124509523Y-125208143D01*
X124511000Y-125223141D01*
X124511000Y-126236859D01*
X124509523Y-126251857D01*
X124506940Y-126260369D01*
X124502743Y-126268221D01*
X124497099Y-126275099D01*
X124490221Y-126280743D01*
X124482369Y-126284940D01*
X124473857Y-126287523D01*
X124458859Y-126289000D01*
X121921141Y-126289000D01*
X121906143Y-126287523D01*
X121897631Y-126284940D01*
X121889779Y-126280743D01*
X121882901Y-126275099D01*
X121877257Y-126268221D01*
X121873060Y-126260369D01*
X121870477Y-126251857D01*
X121869000Y-126236859D01*
X121869000Y-125223141D01*
X121870477Y-125208143D01*
X121873060Y-125199631D01*
X121877257Y-125191779D01*
X121882901Y-125184901D01*
X121889779Y-125179257D01*
X121897631Y-125175060D01*
X121906143Y-125172477D01*
X121921141Y-125171000D01*
X124458859Y-125171000D01*
X124473857Y-125172477D01*
G37*
G36*
X125046738Y-124093716D02*
G01*
X125067357Y-124099971D01*
X125086353Y-124110124D01*
X125103008Y-124123792D01*
X125116676Y-124140447D01*
X125126829Y-124159443D01*
X125133084Y-124180062D01*
X125135800Y-124207640D01*
X125135800Y-124666360D01*
X125133084Y-124693938D01*
X125126829Y-124714557D01*
X125116676Y-124733553D01*
X125103008Y-124750208D01*
X125086353Y-124763876D01*
X125067357Y-124774029D01*
X125046738Y-124780284D01*
X125019160Y-124783000D01*
X124510440Y-124783000D01*
X124482862Y-124780284D01*
X124462243Y-124774029D01*
X124443247Y-124763876D01*
X124426592Y-124750208D01*
X124412924Y-124733553D01*
X124402771Y-124714557D01*
X124396516Y-124693938D01*
X124393800Y-124666360D01*
X124393800Y-124207640D01*
X124396516Y-124180062D01*
X124402771Y-124159443D01*
X124412924Y-124140447D01*
X124426592Y-124123792D01*
X124443247Y-124110124D01*
X124462243Y-124099971D01*
X124482862Y-124093716D01*
X124510440Y-124091000D01*
X125019160Y-124091000D01*
X125046738Y-124093716D01*
G37*
G36*
X127106938Y-124040916D02*
G01*
X127127557Y-124047171D01*
X127146553Y-124057324D01*
X127163208Y-124070992D01*
X127176876Y-124087647D01*
X127187029Y-124106643D01*
X127193284Y-124127262D01*
X127196000Y-124154840D01*
X127196000Y-124663560D01*
X127193284Y-124691138D01*
X127187029Y-124711757D01*
X127176876Y-124730753D01*
X127163208Y-124747408D01*
X127146553Y-124761076D01*
X127127557Y-124771229D01*
X127106938Y-124777484D01*
X127079360Y-124780200D01*
X126620640Y-124780200D01*
X126593062Y-124777484D01*
X126572443Y-124771229D01*
X126553447Y-124761076D01*
X126536792Y-124747408D01*
X126523124Y-124730753D01*
X126512971Y-124711757D01*
X126506716Y-124691138D01*
X126504000Y-124663560D01*
X126504000Y-124154840D01*
X126506716Y-124127262D01*
X126512971Y-124106643D01*
X126523124Y-124087647D01*
X126536792Y-124070992D01*
X126553447Y-124057324D01*
X126572443Y-124047171D01*
X126593062Y-124040916D01*
X126620640Y-124038200D01*
X127079360Y-124038200D01*
X127106938Y-124040916D01*
G37*
G36*
X126136938Y-124040916D02*
G01*
X126157557Y-124047171D01*
X126176553Y-124057324D01*
X126193208Y-124070992D01*
X126206876Y-124087647D01*
X126217029Y-124106643D01*
X126223284Y-124127262D01*
X126226000Y-124154840D01*
X126226000Y-124663560D01*
X126223284Y-124691138D01*
X126217029Y-124711757D01*
X126206876Y-124730753D01*
X126193208Y-124747408D01*
X126176553Y-124761076D01*
X126157557Y-124771229D01*
X126136938Y-124777484D01*
X126109360Y-124780200D01*
X125650640Y-124780200D01*
X125623062Y-124777484D01*
X125602443Y-124771229D01*
X125583447Y-124761076D01*
X125566792Y-124747408D01*
X125553124Y-124730753D01*
X125542971Y-124711757D01*
X125536716Y-124691138D01*
X125534000Y-124663560D01*
X125534000Y-124154840D01*
X125536716Y-124127262D01*
X125542971Y-124106643D01*
X125553124Y-124087647D01*
X125566792Y-124070992D01*
X125583447Y-124057324D01*
X125602443Y-124047171D01*
X125623062Y-124040916D01*
X125650640Y-124038200D01*
X126109360Y-124038200D01*
X126136938Y-124040916D01*
G37*
G36*
X122961938Y-123126516D02*
G01*
X122982557Y-123132771D01*
X123001553Y-123142924D01*
X123018208Y-123156592D01*
X123031876Y-123173247D01*
X123042029Y-123192243D01*
X123048284Y-123212862D01*
X123051000Y-123240440D01*
X123051000Y-123749160D01*
X123048284Y-123776738D01*
X123042029Y-123797357D01*
X123031876Y-123816353D01*
X123018208Y-123833008D01*
X123001553Y-123846676D01*
X122982557Y-123856829D01*
X122961938Y-123863084D01*
X122934360Y-123865800D01*
X122475640Y-123865800D01*
X122448062Y-123863084D01*
X122427443Y-123856829D01*
X122408447Y-123846676D01*
X122391792Y-123833008D01*
X122378124Y-123816353D01*
X122367971Y-123797357D01*
X122361716Y-123776738D01*
X122359000Y-123749160D01*
X122359000Y-123240440D01*
X122361716Y-123212862D01*
X122367971Y-123192243D01*
X122378124Y-123173247D01*
X122391792Y-123156592D01*
X122408447Y-123142924D01*
X122427443Y-123132771D01*
X122448062Y-123126516D01*
X122475640Y-123123800D01*
X122934360Y-123123800D01*
X122961938Y-123126516D01*
G37*
G36*
X123931938Y-123126516D02*
G01*
X123952557Y-123132771D01*
X123971553Y-123142924D01*
X123988208Y-123156592D01*
X124001876Y-123173247D01*
X124012029Y-123192243D01*
X124018284Y-123212862D01*
X124021000Y-123240440D01*
X124021000Y-123749160D01*
X124018284Y-123776738D01*
X124012029Y-123797357D01*
X124001876Y-123816353D01*
X123988208Y-123833008D01*
X123971553Y-123846676D01*
X123952557Y-123856829D01*
X123931938Y-123863084D01*
X123904360Y-123865800D01*
X123445640Y-123865800D01*
X123418062Y-123863084D01*
X123397443Y-123856829D01*
X123378447Y-123846676D01*
X123361792Y-123833008D01*
X123348124Y-123816353D01*
X123337971Y-123797357D01*
X123331716Y-123776738D01*
X123329000Y-123749160D01*
X123329000Y-123240440D01*
X123331716Y-123212862D01*
X123337971Y-123192243D01*
X123348124Y-123173247D01*
X123361792Y-123156592D01*
X123378447Y-123142924D01*
X123397443Y-123132771D01*
X123418062Y-123126516D01*
X123445640Y-123123800D01*
X123904360Y-123123800D01*
X123931938Y-123126516D01*
G37*
G36*
X120726738Y-123126516D02*
G01*
X120747357Y-123132771D01*
X120766353Y-123142924D01*
X120783008Y-123156592D01*
X120796676Y-123173247D01*
X120806829Y-123192243D01*
X120813084Y-123212862D01*
X120815800Y-123240440D01*
X120815800Y-123749160D01*
X120813084Y-123776738D01*
X120806829Y-123797357D01*
X120796676Y-123816353D01*
X120783008Y-123833008D01*
X120766353Y-123846676D01*
X120747357Y-123856829D01*
X120726738Y-123863084D01*
X120699160Y-123865800D01*
X120240440Y-123865800D01*
X120212862Y-123863084D01*
X120192243Y-123856829D01*
X120173247Y-123846676D01*
X120156592Y-123833008D01*
X120142924Y-123816353D01*
X120132771Y-123797357D01*
X120126516Y-123776738D01*
X120123800Y-123749160D01*
X120123800Y-123240440D01*
X120126516Y-123212862D01*
X120132771Y-123192243D01*
X120142924Y-123173247D01*
X120156592Y-123156592D01*
X120173247Y-123142924D01*
X120192243Y-123132771D01*
X120212862Y-123126516D01*
X120240440Y-123123800D01*
X120699160Y-123123800D01*
X120726738Y-123126516D01*
G37*
G36*
X121696738Y-123126516D02*
G01*
X121717357Y-123132771D01*
X121736353Y-123142924D01*
X121753008Y-123156592D01*
X121766676Y-123173247D01*
X121776829Y-123192243D01*
X121783084Y-123212862D01*
X121785800Y-123240440D01*
X121785800Y-123749160D01*
X121783084Y-123776738D01*
X121776829Y-123797357D01*
X121766676Y-123816353D01*
X121753008Y-123833008D01*
X121736353Y-123846676D01*
X121717357Y-123856829D01*
X121696738Y-123863084D01*
X121669160Y-123865800D01*
X121210440Y-123865800D01*
X121182862Y-123863084D01*
X121162243Y-123856829D01*
X121143247Y-123846676D01*
X121126592Y-123833008D01*
X121112924Y-123816353D01*
X121102771Y-123797357D01*
X121096516Y-123776738D01*
X121093800Y-123749160D01*
X121093800Y-123240440D01*
X121096516Y-123212862D01*
X121102771Y-123192243D01*
X121112924Y-123173247D01*
X121126592Y-123156592D01*
X121143247Y-123142924D01*
X121162243Y-123132771D01*
X121182862Y-123126516D01*
X121210440Y-123123800D01*
X121669160Y-123123800D01*
X121696738Y-123126516D01*
G37*
G36*
X125046738Y-123123716D02*
G01*
X125067357Y-123129971D01*
X125086353Y-123140124D01*
X125103008Y-123153792D01*
X125116676Y-123170447D01*
X125126829Y-123189443D01*
X125133084Y-123210062D01*
X125135800Y-123237640D01*
X125135800Y-123696360D01*
X125133084Y-123723938D01*
X125126829Y-123744557D01*
X125116676Y-123763553D01*
X125103008Y-123780208D01*
X125086353Y-123793876D01*
X125067357Y-123804029D01*
X125046738Y-123810284D01*
X125019160Y-123813000D01*
X124510440Y-123813000D01*
X124482862Y-123810284D01*
X124462243Y-123804029D01*
X124443247Y-123793876D01*
X124426592Y-123780208D01*
X124412924Y-123763553D01*
X124402771Y-123744557D01*
X124396516Y-123723938D01*
X124393800Y-123696360D01*
X124393800Y-123237640D01*
X124396516Y-123210062D01*
X124402771Y-123189443D01*
X124412924Y-123170447D01*
X124426592Y-123153792D01*
X124443247Y-123140124D01*
X124462243Y-123129971D01*
X124482862Y-123123716D01*
X124510440Y-123121000D01*
X125019160Y-123121000D01*
X125046738Y-123123716D01*
G37*
G36*
X126088138Y-123026916D02*
G01*
X126108757Y-123033171D01*
X126127753Y-123043324D01*
X126144408Y-123056992D01*
X126158076Y-123073647D01*
X126168229Y-123092643D01*
X126174484Y-123113262D01*
X126177200Y-123140840D01*
X126177200Y-123599560D01*
X126174484Y-123627138D01*
X126168229Y-123647757D01*
X126158076Y-123666753D01*
X126144408Y-123683408D01*
X126127753Y-123697076D01*
X126108757Y-123707229D01*
X126088138Y-123713484D01*
X126060560Y-123716200D01*
X125551840Y-123716200D01*
X125524262Y-123713484D01*
X125503643Y-123707229D01*
X125484647Y-123697076D01*
X125467992Y-123683408D01*
X125454324Y-123666753D01*
X125444171Y-123647757D01*
X125437916Y-123627138D01*
X125435200Y-123599560D01*
X125435200Y-123140840D01*
X125437916Y-123113262D01*
X125444171Y-123092643D01*
X125454324Y-123073647D01*
X125467992Y-123056992D01*
X125484647Y-123043324D01*
X125503643Y-123033171D01*
X125524262Y-123026916D01*
X125551840Y-123024200D01*
X126060560Y-123024200D01*
X126088138Y-123026916D01*
G37*
G36*
X125074938Y-122059716D02*
G01*
X125095557Y-122065971D01*
X125114553Y-122076124D01*
X125131208Y-122089792D01*
X125144876Y-122106447D01*
X125155029Y-122125443D01*
X125161284Y-122146062D01*
X125164000Y-122173640D01*
X125164000Y-122682360D01*
X125161284Y-122709938D01*
X125155029Y-122730557D01*
X125144876Y-122749553D01*
X125131208Y-122766208D01*
X125114553Y-122779876D01*
X125095557Y-122790029D01*
X125074938Y-122796284D01*
X125047360Y-122799000D01*
X124588640Y-122799000D01*
X124561062Y-122796284D01*
X124540443Y-122790029D01*
X124521447Y-122779876D01*
X124504792Y-122766208D01*
X124491124Y-122749553D01*
X124480971Y-122730557D01*
X124474716Y-122709938D01*
X124472000Y-122682360D01*
X124472000Y-122173640D01*
X124474716Y-122146062D01*
X124480971Y-122125443D01*
X124491124Y-122106447D01*
X124504792Y-122089792D01*
X124521447Y-122076124D01*
X124540443Y-122065971D01*
X124561062Y-122059716D01*
X124588640Y-122057000D01*
X125047360Y-122057000D01*
X125074938Y-122059716D01*
G37*
G36*
X120726738Y-122059716D02*
G01*
X120747357Y-122065971D01*
X120766353Y-122076124D01*
X120783008Y-122089792D01*
X120796676Y-122106447D01*
X120806829Y-122125443D01*
X120813084Y-122146062D01*
X120815800Y-122173640D01*
X120815800Y-122682360D01*
X120813084Y-122709938D01*
X120806829Y-122730557D01*
X120796676Y-122749553D01*
X120783008Y-122766208D01*
X120766353Y-122779876D01*
X120747357Y-122790029D01*
X120726738Y-122796284D01*
X120699160Y-122799000D01*
X120240440Y-122799000D01*
X120212862Y-122796284D01*
X120192243Y-122790029D01*
X120173247Y-122779876D01*
X120156592Y-122766208D01*
X120142924Y-122749553D01*
X120132771Y-122730557D01*
X120126516Y-122709938D01*
X120123800Y-122682360D01*
X120123800Y-122173640D01*
X120126516Y-122146062D01*
X120132771Y-122125443D01*
X120142924Y-122106447D01*
X120156592Y-122089792D01*
X120173247Y-122076124D01*
X120192243Y-122065971D01*
X120212862Y-122059716D01*
X120240440Y-122057000D01*
X120699160Y-122057000D01*
X120726738Y-122059716D01*
G37*
G36*
X121696738Y-122059716D02*
G01*
X121717357Y-122065971D01*
X121736353Y-122076124D01*
X121753008Y-122089792D01*
X121766676Y-122106447D01*
X121776829Y-122125443D01*
X121783084Y-122146062D01*
X121785800Y-122173640D01*
X121785800Y-122682360D01*
X121783084Y-122709938D01*
X121776829Y-122730557D01*
X121766676Y-122749553D01*
X121753008Y-122766208D01*
X121736353Y-122779876D01*
X121717357Y-122790029D01*
X121696738Y-122796284D01*
X121669160Y-122799000D01*
X121210440Y-122799000D01*
X121182862Y-122796284D01*
X121162243Y-122790029D01*
X121143247Y-122779876D01*
X121126592Y-122766208D01*
X121112924Y-122749553D01*
X121102771Y-122730557D01*
X121096516Y-122709938D01*
X121093800Y-122682360D01*
X121093800Y-122173640D01*
X121096516Y-122146062D01*
X121102771Y-122125443D01*
X121112924Y-122106447D01*
X121126592Y-122089792D01*
X121143247Y-122076124D01*
X121162243Y-122065971D01*
X121182862Y-122059716D01*
X121210440Y-122057000D01*
X121669160Y-122057000D01*
X121696738Y-122059716D01*
G37*
G36*
X124104938Y-122059716D02*
G01*
X124125557Y-122065971D01*
X124144553Y-122076124D01*
X124161208Y-122089792D01*
X124174876Y-122106447D01*
X124185029Y-122125443D01*
X124191284Y-122146062D01*
X124194000Y-122173640D01*
X124194000Y-122682360D01*
X124191284Y-122709938D01*
X124185029Y-122730557D01*
X124174876Y-122749553D01*
X124161208Y-122766208D01*
X124144553Y-122779876D01*
X124125557Y-122790029D01*
X124104938Y-122796284D01*
X124077360Y-122799000D01*
X123618640Y-122799000D01*
X123591062Y-122796284D01*
X123570443Y-122790029D01*
X123551447Y-122779876D01*
X123534792Y-122766208D01*
X123521124Y-122749553D01*
X123510971Y-122730557D01*
X123504716Y-122709938D01*
X123502000Y-122682360D01*
X123502000Y-122173640D01*
X123504716Y-122146062D01*
X123510971Y-122125443D01*
X123521124Y-122106447D01*
X123534792Y-122089792D01*
X123551447Y-122076124D01*
X123570443Y-122065971D01*
X123591062Y-122059716D01*
X123618640Y-122057000D01*
X124077360Y-122057000D01*
X124104938Y-122059716D01*
G37*
G36*
X126088138Y-122056916D02*
G01*
X126108757Y-122063171D01*
X126127753Y-122073324D01*
X126144408Y-122086992D01*
X126158076Y-122103647D01*
X126168229Y-122122643D01*
X126174484Y-122143262D01*
X126177200Y-122170840D01*
X126177200Y-122629560D01*
X126174484Y-122657138D01*
X126168229Y-122677757D01*
X126158076Y-122696753D01*
X126144408Y-122713408D01*
X126127753Y-122727076D01*
X126108757Y-122737229D01*
X126088138Y-122743484D01*
X126060560Y-122746200D01*
X125551840Y-122746200D01*
X125524262Y-122743484D01*
X125503643Y-122737229D01*
X125484647Y-122727076D01*
X125467992Y-122713408D01*
X125454324Y-122696753D01*
X125444171Y-122677757D01*
X125437916Y-122657138D01*
X125435200Y-122629560D01*
X125435200Y-122170840D01*
X125437916Y-122143262D01*
X125444171Y-122122643D01*
X125454324Y-122103647D01*
X125467992Y-122086992D01*
X125484647Y-122073324D01*
X125503643Y-122063171D01*
X125524262Y-122056916D01*
X125551840Y-122054200D01*
X126060560Y-122054200D01*
X126088138Y-122056916D01*
G37*
G36*
X118597938Y-121805716D02*
G01*
X118618557Y-121811971D01*
X118637553Y-121822124D01*
X118654208Y-121835792D01*
X118667876Y-121852447D01*
X118678029Y-121871443D01*
X118684284Y-121892062D01*
X118687000Y-121919640D01*
X118687000Y-122428360D01*
X118684284Y-122455938D01*
X118678029Y-122476557D01*
X118667876Y-122495553D01*
X118654208Y-122512208D01*
X118637553Y-122525876D01*
X118618557Y-122536029D01*
X118597938Y-122542284D01*
X118570360Y-122545000D01*
X118111640Y-122545000D01*
X118084062Y-122542284D01*
X118063443Y-122536029D01*
X118044447Y-122525876D01*
X118027792Y-122512208D01*
X118014124Y-122495553D01*
X118003971Y-122476557D01*
X117997716Y-122455938D01*
X117995000Y-122428360D01*
X117995000Y-121919640D01*
X117997716Y-121892062D01*
X118003971Y-121871443D01*
X118014124Y-121852447D01*
X118027792Y-121835792D01*
X118044447Y-121822124D01*
X118063443Y-121811971D01*
X118084062Y-121805716D01*
X118111640Y-121803000D01*
X118570360Y-121803000D01*
X118597938Y-121805716D01*
G37*
G36*
X117627938Y-121805716D02*
G01*
X117648557Y-121811971D01*
X117667553Y-121822124D01*
X117684208Y-121835792D01*
X117697876Y-121852447D01*
X117708029Y-121871443D01*
X117714284Y-121892062D01*
X117717000Y-121919640D01*
X117717000Y-122428360D01*
X117714284Y-122455938D01*
X117708029Y-122476557D01*
X117697876Y-122495553D01*
X117684208Y-122512208D01*
X117667553Y-122525876D01*
X117648557Y-122536029D01*
X117627938Y-122542284D01*
X117600360Y-122545000D01*
X117141640Y-122545000D01*
X117114062Y-122542284D01*
X117093443Y-122536029D01*
X117074447Y-122525876D01*
X117057792Y-122512208D01*
X117044124Y-122495553D01*
X117033971Y-122476557D01*
X117027716Y-122455938D01*
X117025000Y-122428360D01*
X117025000Y-121919640D01*
X117027716Y-121892062D01*
X117033971Y-121871443D01*
X117044124Y-121852447D01*
X117057792Y-121835792D01*
X117074447Y-121822124D01*
X117093443Y-121811971D01*
X117114062Y-121805716D01*
X117141640Y-121803000D01*
X117600360Y-121803000D01*
X117627938Y-121805716D01*
G37*
G36*
X128424938Y-120156716D02*
G01*
X128445557Y-120162971D01*
X128464553Y-120173124D01*
X128481208Y-120186792D01*
X128494876Y-120203447D01*
X128505029Y-120222443D01*
X128511284Y-120243062D01*
X128514000Y-120270640D01*
X128514000Y-120729360D01*
X128511284Y-120756938D01*
X128505029Y-120777557D01*
X128494876Y-120796553D01*
X128481208Y-120813208D01*
X128464553Y-120826876D01*
X128445557Y-120837029D01*
X128424938Y-120843284D01*
X128398861Y-120845852D01*
X128374828Y-120850632D01*
X128352189Y-120860009D01*
X128331814Y-120873623D01*
X128314487Y-120890950D01*
X128300873Y-120911324D01*
X128291496Y-120933963D01*
X128286715Y-120957996D01*
X128286715Y-120982500D01*
X128291495Y-121006533D01*
X128300872Y-121029172D01*
X128314486Y-121049547D01*
X128331813Y-121066874D01*
X128352187Y-121080488D01*
X128374826Y-121089865D01*
X128396269Y-121094131D01*
X128418157Y-121100771D01*
X128437153Y-121110924D01*
X128453808Y-121124592D01*
X128467476Y-121141247D01*
X128477629Y-121160243D01*
X128483884Y-121180862D01*
X128486600Y-121208440D01*
X128486600Y-121717160D01*
X128483884Y-121744738D01*
X128477629Y-121765357D01*
X128467476Y-121784353D01*
X128453808Y-121801008D01*
X128437153Y-121814676D01*
X128418157Y-121824829D01*
X128397538Y-121831084D01*
X128369960Y-121833800D01*
X127911240Y-121833800D01*
X127883662Y-121831084D01*
X127863043Y-121824829D01*
X127844047Y-121814676D01*
X127827392Y-121801008D01*
X127813724Y-121784353D01*
X127803571Y-121765357D01*
X127797316Y-121744738D01*
X127794600Y-121717160D01*
X127794600Y-121208440D01*
X127797316Y-121180862D01*
X127803571Y-121160243D01*
X127813724Y-121141247D01*
X127827392Y-121124592D01*
X127844047Y-121110924D01*
X127863043Y-121100771D01*
X127883662Y-121094516D01*
X127884739Y-121094410D01*
X127908773Y-121089630D01*
X127931411Y-121080253D01*
X127951786Y-121066639D01*
X127969113Y-121049312D01*
X127982727Y-121028938D01*
X127992104Y-121006299D01*
X127996885Y-120982266D01*
X127996885Y-120957762D01*
X127992105Y-120933728D01*
X127982728Y-120911090D01*
X127969114Y-120890715D01*
X127951787Y-120873388D01*
X127931413Y-120859774D01*
X127908774Y-120850397D01*
X127884740Y-120845616D01*
X127861062Y-120843284D01*
X127840443Y-120837029D01*
X127821447Y-120826876D01*
X127804792Y-120813208D01*
X127791124Y-120796553D01*
X127780971Y-120777557D01*
X127774716Y-120756938D01*
X127772000Y-120729360D01*
X127772000Y-120270640D01*
X127774716Y-120243062D01*
X127780971Y-120222443D01*
X127791124Y-120203447D01*
X127804792Y-120186792D01*
X127821447Y-120173124D01*
X127840443Y-120162971D01*
X127861062Y-120156716D01*
X127888640Y-120154000D01*
X128397360Y-120154000D01*
X128424938Y-120156716D01*
G37*
G36*
X129440938Y-120156716D02*
G01*
X129461557Y-120162971D01*
X129480553Y-120173124D01*
X129497208Y-120186792D01*
X129510876Y-120203447D01*
X129521029Y-120222443D01*
X129527284Y-120243062D01*
X129530000Y-120270640D01*
X129530000Y-120729360D01*
X129527284Y-120756938D01*
X129521029Y-120777557D01*
X129510876Y-120796553D01*
X129497208Y-120813208D01*
X129480553Y-120826876D01*
X129461557Y-120837029D01*
X129440938Y-120843284D01*
X129413360Y-120846000D01*
X129388724Y-120846000D01*
X129364338Y-120848402D01*
X129340889Y-120855515D01*
X129319278Y-120867066D01*
X129300336Y-120882611D01*
X129284791Y-120901553D01*
X129273240Y-120923164D01*
X129266127Y-120946613D01*
X129263725Y-120970999D01*
X129266127Y-120995385D01*
X129273240Y-121018834D01*
X129284791Y-121040445D01*
X129300336Y-121059387D01*
X129319278Y-121074932D01*
X129340889Y-121086483D01*
X129355966Y-121090260D01*
X129355759Y-121090943D01*
X129388157Y-121100771D01*
X129407153Y-121110924D01*
X129423808Y-121124592D01*
X129437476Y-121141247D01*
X129447629Y-121160243D01*
X129453884Y-121180862D01*
X129456600Y-121208440D01*
X129456600Y-121717160D01*
X129453884Y-121744738D01*
X129447629Y-121765357D01*
X129437476Y-121784353D01*
X129423808Y-121801008D01*
X129407153Y-121814676D01*
X129388157Y-121824829D01*
X129367538Y-121831084D01*
X129339960Y-121833800D01*
X128881240Y-121833800D01*
X128853662Y-121831084D01*
X128833043Y-121824829D01*
X128814047Y-121814676D01*
X128797392Y-121801008D01*
X128783724Y-121784353D01*
X128773571Y-121765357D01*
X128767316Y-121744738D01*
X128764600Y-121717160D01*
X128764600Y-121208440D01*
X128767316Y-121180862D01*
X128773571Y-121160243D01*
X128783724Y-121141247D01*
X128797392Y-121124592D01*
X128814047Y-121110924D01*
X128833043Y-121100771D01*
X128853662Y-121094516D01*
X128877739Y-121092145D01*
X128901772Y-121087365D01*
X128924411Y-121077988D01*
X128944785Y-121064374D01*
X128962113Y-121047048D01*
X128975727Y-121026673D01*
X128985104Y-121004035D01*
X128989885Y-120980001D01*
X128989885Y-120955497D01*
X128985105Y-120931464D01*
X128975728Y-120908825D01*
X128962114Y-120888451D01*
X128944788Y-120871123D01*
X128924413Y-120857509D01*
X128901775Y-120848132D01*
X128877743Y-120843351D01*
X128877062Y-120843284D01*
X128856443Y-120837029D01*
X128837447Y-120826876D01*
X128820792Y-120813208D01*
X128807124Y-120796553D01*
X128796971Y-120777557D01*
X128790716Y-120756938D01*
X128788000Y-120729360D01*
X128788000Y-120270640D01*
X128790716Y-120243062D01*
X128796971Y-120222443D01*
X128807124Y-120203447D01*
X128820792Y-120186792D01*
X128837447Y-120173124D01*
X128856443Y-120162971D01*
X128877062Y-120156716D01*
X128904640Y-120154000D01*
X129413360Y-120154000D01*
X129440938Y-120156716D01*
G37*
G36*
X123742355Y-120728083D02*
G01*
X123747029Y-120729501D01*
X123751330Y-120731800D01*
X123757702Y-120737029D01*
X123778076Y-120750643D01*
X123800715Y-120760020D01*
X123824749Y-120764800D01*
X123849253Y-120764800D01*
X123873286Y-120760019D01*
X123895925Y-120750642D01*
X123916298Y-120737029D01*
X123922670Y-120731800D01*
X123926971Y-120729501D01*
X123931645Y-120728083D01*
X123942641Y-120727000D01*
X124231359Y-120727000D01*
X124242355Y-120728083D01*
X124247029Y-120729501D01*
X124251330Y-120731800D01*
X124257702Y-120737029D01*
X124278076Y-120750643D01*
X124300715Y-120760020D01*
X124324749Y-120764800D01*
X124349253Y-120764800D01*
X124373286Y-120760019D01*
X124395925Y-120750642D01*
X124416298Y-120737029D01*
X124422670Y-120731800D01*
X124426971Y-120729501D01*
X124431645Y-120728083D01*
X124442641Y-120727000D01*
X124731359Y-120727000D01*
X124742355Y-120728083D01*
X124747029Y-120729501D01*
X124751330Y-120731800D01*
X124757702Y-120737029D01*
X124778076Y-120750643D01*
X124800715Y-120760020D01*
X124824749Y-120764800D01*
X124849253Y-120764800D01*
X124873286Y-120760019D01*
X124895925Y-120750642D01*
X124916298Y-120737029D01*
X124922670Y-120731800D01*
X124926971Y-120729501D01*
X124931645Y-120728083D01*
X124942641Y-120727000D01*
X125231359Y-120727000D01*
X125242355Y-120728083D01*
X125247029Y-120729501D01*
X125251330Y-120731800D01*
X125257702Y-120737029D01*
X125278076Y-120750643D01*
X125300715Y-120760020D01*
X125324749Y-120764800D01*
X125349253Y-120764800D01*
X125373286Y-120760019D01*
X125395925Y-120750642D01*
X125416298Y-120737029D01*
X125422670Y-120731800D01*
X125426971Y-120729501D01*
X125431645Y-120728083D01*
X125442641Y-120727000D01*
X125731359Y-120727000D01*
X125742355Y-120728083D01*
X125747029Y-120729501D01*
X125751331Y-120731800D01*
X125755104Y-120734896D01*
X125758200Y-120738669D01*
X125760499Y-120742971D01*
X125761917Y-120747645D01*
X125763000Y-120758641D01*
X125763000Y-121622359D01*
X125761917Y-121633355D01*
X125760499Y-121638029D01*
X125758200Y-121642331D01*
X125755104Y-121646104D01*
X125751331Y-121649200D01*
X125747029Y-121651499D01*
X125742355Y-121652917D01*
X125731359Y-121654000D01*
X125442641Y-121654000D01*
X125431645Y-121652917D01*
X125426971Y-121651499D01*
X125422670Y-121649200D01*
X125416298Y-121643971D01*
X125395924Y-121630357D01*
X125373285Y-121620980D01*
X125349251Y-121616200D01*
X125324747Y-121616200D01*
X125300714Y-121620981D01*
X125278075Y-121630358D01*
X125257702Y-121643971D01*
X125251330Y-121649200D01*
X125247029Y-121651499D01*
X125242355Y-121652917D01*
X125231359Y-121654000D01*
X124942641Y-121654000D01*
X124931645Y-121652917D01*
X124926971Y-121651499D01*
X124922670Y-121649200D01*
X124916298Y-121643971D01*
X124895924Y-121630357D01*
X124873285Y-121620980D01*
X124849251Y-121616200D01*
X124824747Y-121616200D01*
X124800714Y-121620981D01*
X124778075Y-121630358D01*
X124757702Y-121643971D01*
X124751330Y-121649200D01*
X124747029Y-121651499D01*
X124742355Y-121652917D01*
X124731359Y-121654000D01*
X124442641Y-121654000D01*
X124431645Y-121652917D01*
X124426971Y-121651499D01*
X124422670Y-121649200D01*
X124416298Y-121643971D01*
X124395924Y-121630357D01*
X124373285Y-121620980D01*
X124349251Y-121616200D01*
X124324747Y-121616200D01*
X124300714Y-121620981D01*
X124278075Y-121630358D01*
X124257702Y-121643971D01*
X124251330Y-121649200D01*
X124247029Y-121651499D01*
X124242355Y-121652917D01*
X124231359Y-121654000D01*
X123942641Y-121654000D01*
X123931645Y-121652917D01*
X123926971Y-121651499D01*
X123922670Y-121649200D01*
X123916298Y-121643971D01*
X123895924Y-121630357D01*
X123873285Y-121620980D01*
X123849251Y-121616200D01*
X123824747Y-121616200D01*
X123800714Y-121620981D01*
X123778075Y-121630358D01*
X123757702Y-121643971D01*
X123751330Y-121649200D01*
X123747029Y-121651499D01*
X123742355Y-121652917D01*
X123731359Y-121654000D01*
X123442641Y-121654000D01*
X123431645Y-121652917D01*
X123426971Y-121651499D01*
X123422669Y-121649200D01*
X123418896Y-121646104D01*
X123415800Y-121642331D01*
X123413501Y-121638029D01*
X123412083Y-121633355D01*
X123411000Y-121622359D01*
X123411000Y-120758641D01*
X123412083Y-120747645D01*
X123413501Y-120742971D01*
X123415800Y-120738669D01*
X123418896Y-120734896D01*
X123422669Y-120731800D01*
X123426971Y-120729501D01*
X123431645Y-120728083D01*
X123442641Y-120727000D01*
X123731359Y-120727000D01*
X123742355Y-120728083D01*
G37*
G36*
X119665800Y-121392000D02*
G01*
X117163800Y-121392000D01*
X117163800Y-119290000D01*
X119665800Y-119290000D01*
X119665800Y-121392000D01*
G37*
G36*
X121439938Y-120131316D02*
G01*
X121460557Y-120137571D01*
X121479553Y-120147724D01*
X121496208Y-120161392D01*
X121509876Y-120178047D01*
X121520029Y-120197043D01*
X121526284Y-120217662D01*
X121529000Y-120245240D01*
X121529000Y-120703960D01*
X121526284Y-120731538D01*
X121520029Y-120752157D01*
X121509876Y-120771153D01*
X121496208Y-120787808D01*
X121479553Y-120801476D01*
X121460557Y-120811629D01*
X121439938Y-120817884D01*
X121412360Y-120820600D01*
X120903640Y-120820600D01*
X120876062Y-120817884D01*
X120855443Y-120811629D01*
X120836447Y-120801476D01*
X120819792Y-120787808D01*
X120806124Y-120771153D01*
X120795971Y-120752157D01*
X120789716Y-120731538D01*
X120787000Y-120703960D01*
X120787000Y-120245240D01*
X120789716Y-120217662D01*
X120795971Y-120197043D01*
X120806124Y-120178047D01*
X120819792Y-120161392D01*
X120836447Y-120147724D01*
X120855443Y-120137571D01*
X120876062Y-120131316D01*
X120903640Y-120128600D01*
X121412360Y-120128600D01*
X121439938Y-120131316D01*
G37*
G36*
X123092355Y-118078083D02*
G01*
X123097029Y-118079501D01*
X123101331Y-118081800D01*
X123105104Y-118084896D01*
X123108200Y-118088669D01*
X123110499Y-118092971D01*
X123111917Y-118097645D01*
X123113000Y-118108641D01*
X123113000Y-118397359D01*
X123111917Y-118408355D01*
X123110499Y-118413029D01*
X123108200Y-118417330D01*
X123102971Y-118423702D01*
X123089357Y-118444076D01*
X123079980Y-118466715D01*
X123075200Y-118490749D01*
X123075200Y-118515253D01*
X123079981Y-118539286D01*
X123089358Y-118561925D01*
X123102971Y-118582298D01*
X123108200Y-118588670D01*
X123110499Y-118592971D01*
X123111917Y-118597645D01*
X123113000Y-118608641D01*
X123113000Y-118897359D01*
X123111917Y-118908355D01*
X123110499Y-118913029D01*
X123108200Y-118917330D01*
X123102971Y-118923702D01*
X123089357Y-118944076D01*
X123079980Y-118966715D01*
X123075200Y-118990749D01*
X123075200Y-119015253D01*
X123079981Y-119039286D01*
X123089358Y-119061925D01*
X123102971Y-119082298D01*
X123108200Y-119088670D01*
X123110499Y-119092971D01*
X123111917Y-119097645D01*
X123113000Y-119108641D01*
X123113000Y-119397359D01*
X123111917Y-119408355D01*
X123110499Y-119413029D01*
X123108200Y-119417330D01*
X123102971Y-119423702D01*
X123089357Y-119444076D01*
X123079980Y-119466715D01*
X123075200Y-119490749D01*
X123075200Y-119515253D01*
X123079981Y-119539286D01*
X123089358Y-119561925D01*
X123102971Y-119582298D01*
X123108200Y-119588670D01*
X123110499Y-119592971D01*
X123111917Y-119597645D01*
X123113000Y-119608641D01*
X123113000Y-119897359D01*
X123111917Y-119908355D01*
X123110499Y-119913029D01*
X123108200Y-119917330D01*
X123102971Y-119923702D01*
X123089357Y-119944076D01*
X123079980Y-119966715D01*
X123075200Y-119990749D01*
X123075200Y-120015253D01*
X123079981Y-120039286D01*
X123089358Y-120061925D01*
X123102971Y-120082298D01*
X123108200Y-120088670D01*
X123110499Y-120092971D01*
X123111917Y-120097645D01*
X123113000Y-120108641D01*
X123113000Y-120397359D01*
X123111917Y-120408355D01*
X123110499Y-120413029D01*
X123108200Y-120417331D01*
X123105104Y-120421104D01*
X123101331Y-120424200D01*
X123097029Y-120426499D01*
X123092355Y-120427917D01*
X123081359Y-120429000D01*
X122217641Y-120429000D01*
X122206645Y-120427917D01*
X122201971Y-120426499D01*
X122197669Y-120424200D01*
X122193896Y-120421104D01*
X122190800Y-120417331D01*
X122188501Y-120413029D01*
X122187083Y-120408355D01*
X122186000Y-120397359D01*
X122186000Y-120108641D01*
X122187083Y-120097645D01*
X122188501Y-120092971D01*
X122190800Y-120088670D01*
X122196029Y-120082298D01*
X122209643Y-120061924D01*
X122219020Y-120039285D01*
X122223800Y-120015251D01*
X122223800Y-119990747D01*
X122219019Y-119966714D01*
X122209642Y-119944075D01*
X122196029Y-119923702D01*
X122190800Y-119917330D01*
X122188501Y-119913029D01*
X122187083Y-119908355D01*
X122186000Y-119897359D01*
X122186000Y-119608641D01*
X122187083Y-119597645D01*
X122188501Y-119592971D01*
X122190800Y-119588670D01*
X122196029Y-119582298D01*
X122209643Y-119561924D01*
X122219020Y-119539285D01*
X122223800Y-119515251D01*
X122223800Y-119490747D01*
X122219019Y-119466714D01*
X122209642Y-119444075D01*
X122196029Y-119423702D01*
X122190800Y-119417330D01*
X122188501Y-119413029D01*
X122187083Y-119408355D01*
X122186000Y-119397359D01*
X122186000Y-119108641D01*
X122187083Y-119097645D01*
X122188501Y-119092971D01*
X122190800Y-119088670D01*
X122196029Y-119082298D01*
X122209643Y-119061924D01*
X122219020Y-119039285D01*
X122223800Y-119015251D01*
X122223800Y-118990747D01*
X122219019Y-118966714D01*
X122209642Y-118944075D01*
X122196029Y-118923702D01*
X122190800Y-118917330D01*
X122188501Y-118913029D01*
X122187083Y-118908355D01*
X122186000Y-118897359D01*
X122186000Y-118608641D01*
X122187083Y-118597645D01*
X122188501Y-118592971D01*
X122190800Y-118588670D01*
X122196029Y-118582298D01*
X122209643Y-118561924D01*
X122219020Y-118539285D01*
X122223800Y-118515251D01*
X122223800Y-118490747D01*
X122219019Y-118466714D01*
X122209642Y-118444075D01*
X122196029Y-118423702D01*
X122190800Y-118417330D01*
X122188501Y-118413029D01*
X122187083Y-118408355D01*
X122186000Y-118397359D01*
X122186000Y-118108641D01*
X122187083Y-118097645D01*
X122188501Y-118092971D01*
X122190800Y-118088669D01*
X122193896Y-118084896D01*
X122197669Y-118081800D01*
X122201971Y-118079501D01*
X122206645Y-118078083D01*
X122217641Y-118077000D01*
X123081359Y-118077000D01*
X123092355Y-118078083D01*
G37*
G36*
X126967355Y-118078083D02*
G01*
X126972029Y-118079501D01*
X126976331Y-118081800D01*
X126980104Y-118084896D01*
X126983200Y-118088669D01*
X126985499Y-118092971D01*
X126986917Y-118097645D01*
X126988000Y-118108641D01*
X126988000Y-118397359D01*
X126986917Y-118408355D01*
X126985499Y-118413029D01*
X126983200Y-118417330D01*
X126977971Y-118423702D01*
X126964357Y-118444076D01*
X126954980Y-118466715D01*
X126950200Y-118490749D01*
X126950200Y-118515253D01*
X126954981Y-118539286D01*
X126964358Y-118561925D01*
X126977971Y-118582298D01*
X126983200Y-118588670D01*
X126985499Y-118592971D01*
X126986917Y-118597645D01*
X126988000Y-118608641D01*
X126988000Y-118897359D01*
X126986917Y-118908355D01*
X126985499Y-118913029D01*
X126983200Y-118917330D01*
X126977971Y-118923702D01*
X126964357Y-118944076D01*
X126954980Y-118966715D01*
X126950200Y-118990749D01*
X126950200Y-119015253D01*
X126954981Y-119039286D01*
X126964358Y-119061925D01*
X126977971Y-119082298D01*
X126983200Y-119088670D01*
X126985499Y-119092971D01*
X126986917Y-119097645D01*
X126988000Y-119108641D01*
X126988000Y-119397359D01*
X126986917Y-119408355D01*
X126985499Y-119413029D01*
X126983200Y-119417330D01*
X126977971Y-119423702D01*
X126964357Y-119444076D01*
X126954980Y-119466715D01*
X126950200Y-119490749D01*
X126950200Y-119515253D01*
X126954981Y-119539286D01*
X126964358Y-119561925D01*
X126977971Y-119582298D01*
X126983200Y-119588670D01*
X126985499Y-119592971D01*
X126986917Y-119597645D01*
X126988000Y-119608641D01*
X126988000Y-119897359D01*
X126986917Y-119908355D01*
X126985499Y-119913029D01*
X126983200Y-119917330D01*
X126977971Y-119923702D01*
X126964357Y-119944076D01*
X126954980Y-119966715D01*
X126950200Y-119990749D01*
X126950200Y-120015253D01*
X126954981Y-120039286D01*
X126964358Y-120061925D01*
X126977971Y-120082298D01*
X126983200Y-120088670D01*
X126985499Y-120092971D01*
X126986917Y-120097645D01*
X126988000Y-120108641D01*
X126988000Y-120397359D01*
X126986917Y-120408355D01*
X126985499Y-120413029D01*
X126983200Y-120417331D01*
X126980104Y-120421104D01*
X126976331Y-120424200D01*
X126972029Y-120426499D01*
X126967355Y-120427917D01*
X126956359Y-120429000D01*
X126092641Y-120429000D01*
X126081645Y-120427917D01*
X126076971Y-120426499D01*
X126072669Y-120424200D01*
X126068896Y-120421104D01*
X126065800Y-120417331D01*
X126063501Y-120413029D01*
X126062083Y-120408355D01*
X126061000Y-120397359D01*
X126061000Y-120108641D01*
X126062083Y-120097645D01*
X126063501Y-120092971D01*
X126065800Y-120088670D01*
X126071029Y-120082298D01*
X126084643Y-120061924D01*
X126094020Y-120039285D01*
X126098800Y-120015251D01*
X126098800Y-119990747D01*
X126094019Y-119966714D01*
X126084642Y-119944075D01*
X126071029Y-119923702D01*
X126065800Y-119917330D01*
X126063501Y-119913029D01*
X126062083Y-119908355D01*
X126061000Y-119897359D01*
X126061000Y-119608641D01*
X126062083Y-119597645D01*
X126063501Y-119592971D01*
X126065800Y-119588670D01*
X126071029Y-119582298D01*
X126084643Y-119561924D01*
X126094020Y-119539285D01*
X126098800Y-119515251D01*
X126098800Y-119490747D01*
X126094019Y-119466714D01*
X126084642Y-119444075D01*
X126071029Y-119423702D01*
X126065800Y-119417330D01*
X126063501Y-119413029D01*
X126062083Y-119408355D01*
X126061000Y-119397359D01*
X126061000Y-119108641D01*
X126062083Y-119097645D01*
X126063501Y-119092971D01*
X126065800Y-119088670D01*
X126071029Y-119082298D01*
X126084643Y-119061924D01*
X126094020Y-119039285D01*
X126098800Y-119015251D01*
X126098800Y-118990747D01*
X126094019Y-118966714D01*
X126084642Y-118944075D01*
X126071029Y-118923702D01*
X126065800Y-118917330D01*
X126063501Y-118913029D01*
X126062083Y-118908355D01*
X126061000Y-118897359D01*
X126061000Y-118608641D01*
X126062083Y-118597645D01*
X126063501Y-118592971D01*
X126065800Y-118588670D01*
X126071029Y-118582298D01*
X126084643Y-118561924D01*
X126094020Y-118539285D01*
X126098800Y-118515251D01*
X126098800Y-118490747D01*
X126094019Y-118466714D01*
X126084642Y-118444075D01*
X126071029Y-118423702D01*
X126065800Y-118417330D01*
X126063501Y-118413029D01*
X126062083Y-118408355D01*
X126061000Y-118397359D01*
X126061000Y-118108641D01*
X126062083Y-118097645D01*
X126063501Y-118092971D01*
X126065800Y-118088669D01*
X126068896Y-118084896D01*
X126072669Y-118081800D01*
X126076971Y-118079501D01*
X126081645Y-118078083D01*
X126092641Y-118077000D01*
X126956359Y-118077000D01*
X126967355Y-118078083D01*
G37*
G36*
X128424938Y-119186716D02*
G01*
X128445557Y-119192971D01*
X128464553Y-119203124D01*
X128481208Y-119216792D01*
X128494876Y-119233447D01*
X128505029Y-119252443D01*
X128511284Y-119273062D01*
X128514000Y-119300640D01*
X128514000Y-119759360D01*
X128511284Y-119786938D01*
X128505029Y-119807557D01*
X128494876Y-119826553D01*
X128481208Y-119843208D01*
X128464553Y-119856876D01*
X128445557Y-119867029D01*
X128424938Y-119873284D01*
X128397360Y-119876000D01*
X127888640Y-119876000D01*
X127861062Y-119873284D01*
X127840443Y-119867029D01*
X127821447Y-119856876D01*
X127804792Y-119843208D01*
X127791124Y-119826553D01*
X127780971Y-119807557D01*
X127774716Y-119786938D01*
X127772000Y-119759360D01*
X127772000Y-119300640D01*
X127774716Y-119273062D01*
X127780971Y-119252443D01*
X127791124Y-119233447D01*
X127804792Y-119216792D01*
X127821447Y-119203124D01*
X127840443Y-119192971D01*
X127861062Y-119186716D01*
X127888640Y-119184000D01*
X128397360Y-119184000D01*
X128424938Y-119186716D01*
G37*
G36*
X129440938Y-119186716D02*
G01*
X129461557Y-119192971D01*
X129480553Y-119203124D01*
X129497208Y-119216792D01*
X129510876Y-119233447D01*
X129521029Y-119252443D01*
X129527284Y-119273062D01*
X129530000Y-119300640D01*
X129530000Y-119759360D01*
X129527284Y-119786938D01*
X129521029Y-119807557D01*
X129510876Y-119826553D01*
X129497208Y-119843208D01*
X129480553Y-119856876D01*
X129461557Y-119867029D01*
X129440938Y-119873284D01*
X129413360Y-119876000D01*
X128904640Y-119876000D01*
X128877062Y-119873284D01*
X128856443Y-119867029D01*
X128837447Y-119856876D01*
X128820792Y-119843208D01*
X128807124Y-119826553D01*
X128796971Y-119807557D01*
X128790716Y-119786938D01*
X128788000Y-119759360D01*
X128788000Y-119300640D01*
X128790716Y-119273062D01*
X128796971Y-119252443D01*
X128807124Y-119233447D01*
X128820792Y-119216792D01*
X128837447Y-119203124D01*
X128856443Y-119192971D01*
X128877062Y-119186716D01*
X128904640Y-119184000D01*
X129413360Y-119184000D01*
X129440938Y-119186716D01*
G37*
G36*
X121439938Y-119161316D02*
G01*
X121460557Y-119167571D01*
X121479553Y-119177724D01*
X121496208Y-119191392D01*
X121509876Y-119208047D01*
X121520029Y-119227043D01*
X121526284Y-119247662D01*
X121529000Y-119275240D01*
X121529000Y-119733960D01*
X121526284Y-119761538D01*
X121520029Y-119782157D01*
X121509876Y-119801153D01*
X121496208Y-119817808D01*
X121479553Y-119831476D01*
X121460557Y-119841629D01*
X121439938Y-119847884D01*
X121412360Y-119850600D01*
X120903640Y-119850600D01*
X120876062Y-119847884D01*
X120855443Y-119841629D01*
X120836447Y-119831476D01*
X120819792Y-119817808D01*
X120806124Y-119801153D01*
X120795971Y-119782157D01*
X120789716Y-119761538D01*
X120787000Y-119733960D01*
X120787000Y-119275240D01*
X120789716Y-119247662D01*
X120795971Y-119227043D01*
X120806124Y-119208047D01*
X120819792Y-119191392D01*
X120836447Y-119177724D01*
X120855443Y-119167571D01*
X120876062Y-119161316D01*
X120903640Y-119158600D01*
X121412360Y-119158600D01*
X121439938Y-119161316D01*
G37*
G36*
X128422938Y-118122716D02*
G01*
X128443557Y-118128971D01*
X128462553Y-118139124D01*
X128479208Y-118152792D01*
X128492876Y-118169447D01*
X128503029Y-118188443D01*
X128509284Y-118209062D01*
X128512000Y-118236640D01*
X128512000Y-118745360D01*
X128509284Y-118772938D01*
X128503029Y-118793557D01*
X128492876Y-118812553D01*
X128479208Y-118829208D01*
X128462553Y-118842876D01*
X128443557Y-118853029D01*
X128422938Y-118859284D01*
X128395360Y-118862000D01*
X127936640Y-118862000D01*
X127909062Y-118859284D01*
X127888443Y-118853029D01*
X127869447Y-118842876D01*
X127852792Y-118829208D01*
X127839124Y-118812553D01*
X127828971Y-118793557D01*
X127822716Y-118772938D01*
X127820000Y-118745360D01*
X127820000Y-118236640D01*
X127822716Y-118209062D01*
X127828971Y-118188443D01*
X127839124Y-118169447D01*
X127852792Y-118152792D01*
X127869447Y-118139124D01*
X127888443Y-118128971D01*
X127909062Y-118122716D01*
X127936640Y-118120000D01*
X128395360Y-118120000D01*
X128422938Y-118122716D01*
G37*
G36*
X129392938Y-118122716D02*
G01*
X129413557Y-118128971D01*
X129432553Y-118139124D01*
X129449208Y-118152792D01*
X129462876Y-118169447D01*
X129473029Y-118188443D01*
X129479284Y-118209062D01*
X129482000Y-118236640D01*
X129482000Y-118745360D01*
X129479284Y-118772938D01*
X129473029Y-118793557D01*
X129462876Y-118812553D01*
X129449208Y-118829208D01*
X129432553Y-118842876D01*
X129413557Y-118853029D01*
X129392938Y-118859284D01*
X129365360Y-118862000D01*
X128906640Y-118862000D01*
X128879062Y-118859284D01*
X128858443Y-118853029D01*
X128839447Y-118842876D01*
X128822792Y-118829208D01*
X128809124Y-118812553D01*
X128798971Y-118793557D01*
X128792716Y-118772938D01*
X128790000Y-118745360D01*
X128790000Y-118236640D01*
X128792716Y-118209062D01*
X128798971Y-118188443D01*
X128809124Y-118169447D01*
X128822792Y-118152792D01*
X128839447Y-118139124D01*
X128858443Y-118128971D01*
X128879062Y-118122716D01*
X128906640Y-118120000D01*
X129365360Y-118120000D01*
X129392938Y-118122716D01*
G37*
G36*
X115683512Y-116103927D02*
G01*
X115832812Y-116133624D01*
X115996784Y-116201544D01*
X116144354Y-116300147D01*
X116269853Y-116425646D01*
X116368456Y-116573216D01*
X116436376Y-116737188D01*
X116463916Y-116875643D01*
X116470019Y-116906324D01*
X116471000Y-116911259D01*
X116471000Y-117088741D01*
X116436376Y-117262812D01*
X116368456Y-117426784D01*
X116269853Y-117574354D01*
X116144354Y-117699853D01*
X115996784Y-117798456D01*
X115832812Y-117866376D01*
X115683512Y-117896073D01*
X115658742Y-117901000D01*
X115481258Y-117901000D01*
X115456488Y-117896073D01*
X115307188Y-117866376D01*
X115143216Y-117798456D01*
X114995646Y-117699853D01*
X114870147Y-117574354D01*
X114771544Y-117426784D01*
X114703624Y-117262812D01*
X114669000Y-117088741D01*
X114669000Y-116911259D01*
X114669982Y-116906324D01*
X114676084Y-116875643D01*
X114703624Y-116737188D01*
X114771544Y-116573216D01*
X114870147Y-116425646D01*
X114995646Y-116300147D01*
X115143216Y-116201544D01*
X115307188Y-116133624D01*
X115456488Y-116103927D01*
X115481258Y-116099000D01*
X115658742Y-116099000D01*
X115683512Y-116103927D01*
G37*
G36*
X123742355Y-116853083D02*
G01*
X123747029Y-116854501D01*
X123751330Y-116856800D01*
X123757702Y-116862029D01*
X123778076Y-116875643D01*
X123800715Y-116885020D01*
X123824749Y-116889800D01*
X123849253Y-116889800D01*
X123873286Y-116885019D01*
X123895925Y-116875642D01*
X123916298Y-116862029D01*
X123922670Y-116856800D01*
X123926971Y-116854501D01*
X123931645Y-116853083D01*
X123942641Y-116852000D01*
X124231359Y-116852000D01*
X124242355Y-116853083D01*
X124247029Y-116854501D01*
X124251330Y-116856800D01*
X124257702Y-116862029D01*
X124278076Y-116875643D01*
X124300715Y-116885020D01*
X124324749Y-116889800D01*
X124349253Y-116889800D01*
X124373286Y-116885019D01*
X124395925Y-116875642D01*
X124416298Y-116862029D01*
X124422670Y-116856800D01*
X124426971Y-116854501D01*
X124431645Y-116853083D01*
X124442641Y-116852000D01*
X124731359Y-116852000D01*
X124742355Y-116853083D01*
X124747029Y-116854501D01*
X124751330Y-116856800D01*
X124757702Y-116862029D01*
X124778076Y-116875643D01*
X124800715Y-116885020D01*
X124824749Y-116889800D01*
X124849253Y-116889800D01*
X124873286Y-116885019D01*
X124895925Y-116875642D01*
X124916298Y-116862029D01*
X124922670Y-116856800D01*
X124926971Y-116854501D01*
X124931645Y-116853083D01*
X124942641Y-116852000D01*
X125231359Y-116852000D01*
X125242355Y-116853083D01*
X125247029Y-116854501D01*
X125251330Y-116856800D01*
X125257702Y-116862029D01*
X125278076Y-116875643D01*
X125300715Y-116885020D01*
X125324749Y-116889800D01*
X125349253Y-116889800D01*
X125373286Y-116885019D01*
X125395925Y-116875642D01*
X125416298Y-116862029D01*
X125422670Y-116856800D01*
X125426971Y-116854501D01*
X125431645Y-116853083D01*
X125442641Y-116852000D01*
X125731359Y-116852000D01*
X125742355Y-116853083D01*
X125747029Y-116854501D01*
X125751331Y-116856800D01*
X125755104Y-116859896D01*
X125758200Y-116863669D01*
X125760499Y-116867971D01*
X125761917Y-116872645D01*
X125763000Y-116883641D01*
X125763000Y-117747359D01*
X125761917Y-117758355D01*
X125760499Y-117763029D01*
X125758200Y-117767331D01*
X125755104Y-117771104D01*
X125751331Y-117774200D01*
X125747029Y-117776499D01*
X125742355Y-117777917D01*
X125731359Y-117779000D01*
X125442641Y-117779000D01*
X125431645Y-117777917D01*
X125426971Y-117776499D01*
X125422670Y-117774200D01*
X125416298Y-117768971D01*
X125395924Y-117755357D01*
X125373285Y-117745980D01*
X125349251Y-117741200D01*
X125324747Y-117741200D01*
X125300714Y-117745981D01*
X125278075Y-117755358D01*
X125257702Y-117768971D01*
X125251330Y-117774200D01*
X125247029Y-117776499D01*
X125242355Y-117777917D01*
X125231359Y-117779000D01*
X124942641Y-117779000D01*
X124931645Y-117777917D01*
X124926971Y-117776499D01*
X124922670Y-117774200D01*
X124916298Y-117768971D01*
X124895924Y-117755357D01*
X124873285Y-117745980D01*
X124849251Y-117741200D01*
X124824747Y-117741200D01*
X124800714Y-117745981D01*
X124778075Y-117755358D01*
X124757702Y-117768971D01*
X124751330Y-117774200D01*
X124747029Y-117776499D01*
X124742355Y-117777917D01*
X124731359Y-117779000D01*
X124442641Y-117779000D01*
X124431645Y-117777917D01*
X124426971Y-117776499D01*
X124422670Y-117774200D01*
X124416298Y-117768971D01*
X124395924Y-117755357D01*
X124373285Y-117745980D01*
X124349251Y-117741200D01*
X124324747Y-117741200D01*
X124300714Y-117745981D01*
X124278075Y-117755358D01*
X124257702Y-117768971D01*
X124251330Y-117774200D01*
X124247029Y-117776499D01*
X124242355Y-117777917D01*
X124231359Y-117779000D01*
X123942641Y-117779000D01*
X123931645Y-117777917D01*
X123926971Y-117776499D01*
X123922670Y-117774200D01*
X123916298Y-117768971D01*
X123895924Y-117755357D01*
X123873285Y-117745980D01*
X123849251Y-117741200D01*
X123824747Y-117741200D01*
X123800714Y-117745981D01*
X123778075Y-117755358D01*
X123757702Y-117768971D01*
X123751330Y-117774200D01*
X123747029Y-117776499D01*
X123742355Y-117777917D01*
X123731359Y-117779000D01*
X123442641Y-117779000D01*
X123431645Y-117777917D01*
X123426971Y-117776499D01*
X123422669Y-117774200D01*
X123418896Y-117771104D01*
X123415800Y-117767331D01*
X123413501Y-117763029D01*
X123412083Y-117758355D01*
X123411000Y-117747359D01*
X123411000Y-116883641D01*
X123412083Y-116872645D01*
X123413501Y-116867971D01*
X123415800Y-116863669D01*
X123418896Y-116859896D01*
X123422669Y-116856800D01*
X123426971Y-116854501D01*
X123431645Y-116853083D01*
X123442641Y-116852000D01*
X123731359Y-116852000D01*
X123742355Y-116853083D01*
G37*
G36*
X130923512Y-115943927D02*
G01*
X131072812Y-115973624D01*
X131236784Y-116041544D01*
X131384354Y-116140147D01*
X131509853Y-116265646D01*
X131608456Y-116413216D01*
X131676376Y-116577188D01*
X131711000Y-116751259D01*
X131711000Y-116928741D01*
X131676376Y-117102812D01*
X131608456Y-117266784D01*
X131509853Y-117414354D01*
X131384354Y-117539853D01*
X131236784Y-117638456D01*
X131072812Y-117706376D01*
X130923512Y-117736073D01*
X130898742Y-117741000D01*
X130721258Y-117741000D01*
X130696488Y-117736073D01*
X130547188Y-117706376D01*
X130383216Y-117638456D01*
X130235646Y-117539853D01*
X130110147Y-117414354D01*
X130011544Y-117266784D01*
X129943624Y-117102812D01*
X129909000Y-116928741D01*
X129909000Y-116751259D01*
X129943624Y-116577188D01*
X130011544Y-116413216D01*
X130110147Y-116265646D01*
X130235646Y-116140147D01*
X130383216Y-116041544D01*
X130547188Y-115973624D01*
X130696488Y-115943927D01*
X130721258Y-115939000D01*
X130898742Y-115939000D01*
X130923512Y-115943927D01*
G37*
G36*
X119665800Y-117692000D02*
G01*
X117163800Y-117692000D01*
X117163800Y-115590000D01*
X119665800Y-115590000D01*
X119665800Y-117692000D01*
G37*
G36*
X128903591Y-116635085D02*
G01*
X128937569Y-116645393D01*
X128968890Y-116662134D01*
X128996339Y-116684661D01*
X129018866Y-116712110D01*
X129035607Y-116743431D01*
X129045915Y-116777409D01*
X129050000Y-116818890D01*
X129050000Y-117420110D01*
X129045915Y-117461591D01*
X129035607Y-117495569D01*
X129018866Y-117526890D01*
X128996339Y-117554339D01*
X128968890Y-117576866D01*
X128937569Y-117593607D01*
X128903591Y-117603915D01*
X128862110Y-117608000D01*
X128185890Y-117608000D01*
X128144409Y-117603915D01*
X128110431Y-117593607D01*
X128079110Y-117576866D01*
X128051661Y-117554339D01*
X128029134Y-117526890D01*
X128012393Y-117495569D01*
X128002085Y-117461591D01*
X127998000Y-117420110D01*
X127998000Y-116818890D01*
X128002085Y-116777409D01*
X128012393Y-116743431D01*
X128029134Y-116712110D01*
X128051661Y-116684661D01*
X128079110Y-116662134D01*
X128110431Y-116645393D01*
X128144409Y-116635085D01*
X128185890Y-116631000D01*
X128862110Y-116631000D01*
X128903591Y-116635085D01*
G37*
G36*
X128903591Y-115060085D02*
G01*
X128937569Y-115070393D01*
X128968890Y-115087134D01*
X128996339Y-115109661D01*
X129018866Y-115137110D01*
X129035607Y-115168431D01*
X129045915Y-115202409D01*
X129050000Y-115243890D01*
X129050000Y-115845110D01*
X129045915Y-115886591D01*
X129035607Y-115920569D01*
X129018866Y-115951890D01*
X128996339Y-115979339D01*
X128968890Y-116001866D01*
X128937569Y-116018607D01*
X128903591Y-116028915D01*
X128862110Y-116033000D01*
X128185890Y-116033000D01*
X128144409Y-116028915D01*
X128110431Y-116018607D01*
X128079110Y-116001866D01*
X128051661Y-115979339D01*
X128029134Y-115951890D01*
X128012393Y-115920569D01*
X128002085Y-115886591D01*
X127998000Y-115845110D01*
X127998000Y-115243890D01*
X128002085Y-115202409D01*
X128012393Y-115168431D01*
X128029134Y-115137110D01*
X128051661Y-115109661D01*
X128079110Y-115087134D01*
X128110431Y-115070393D01*
X128144409Y-115060085D01*
X128185890Y-115056000D01*
X128862110Y-115056000D01*
X128903591Y-115060085D01*
G37*
G36*
X115683512Y-113563927D02*
G01*
X115832812Y-113593624D01*
X115996784Y-113661544D01*
X116144354Y-113760147D01*
X116269853Y-113885646D01*
X116368456Y-114033216D01*
X116436376Y-114197188D01*
X116471000Y-114371259D01*
X116471000Y-114548741D01*
X116436376Y-114722812D01*
X116368456Y-114886784D01*
X116269853Y-115034354D01*
X116144354Y-115159853D01*
X115996784Y-115258456D01*
X115832812Y-115326376D01*
X115683512Y-115356073D01*
X115658742Y-115361000D01*
X115481258Y-115361000D01*
X115456488Y-115356073D01*
X115307188Y-115326376D01*
X115143216Y-115258456D01*
X114995646Y-115159853D01*
X114870147Y-115034354D01*
X114771544Y-114886784D01*
X114703624Y-114722812D01*
X114669000Y-114548741D01*
X114669000Y-114371259D01*
X114703624Y-114197188D01*
X114771544Y-114033216D01*
X114870147Y-113885646D01*
X114995646Y-113760147D01*
X115143216Y-113661544D01*
X115307188Y-113593624D01*
X115456488Y-113563927D01*
X115481258Y-113559000D01*
X115658742Y-113559000D01*
X115683512Y-113563927D01*
G37*
G36*
X130923512Y-113403927D02*
G01*
X131072812Y-113433624D01*
X131236784Y-113501544D01*
X131384354Y-113600147D01*
X131509853Y-113725646D01*
X131608456Y-113873216D01*
X131676376Y-114037188D01*
X131711000Y-114211259D01*
X131711000Y-114388741D01*
X131676376Y-114562812D01*
X131608456Y-114726784D01*
X131509853Y-114874354D01*
X131384354Y-114999853D01*
X131236784Y-115098456D01*
X131072812Y-115166376D01*
X130923512Y-115196073D01*
X130898742Y-115201000D01*
X130721258Y-115201000D01*
X130696488Y-115196073D01*
X130547188Y-115166376D01*
X130383216Y-115098456D01*
X130235646Y-114999853D01*
X130110147Y-114874354D01*
X130011544Y-114726784D01*
X129943624Y-114562812D01*
X129909000Y-114388741D01*
X129909000Y-114211259D01*
X129943624Y-114037188D01*
X130011544Y-113873216D01*
X130110147Y-113725646D01*
X130235646Y-113600147D01*
X130383216Y-113501544D01*
X130547188Y-113433624D01*
X130696488Y-113403927D01*
X130721258Y-113399000D01*
X130898742Y-113399000D01*
X130923512Y-113403927D01*
G37*
G36*
X118851938Y-114439716D02*
G01*
X118872557Y-114445971D01*
X118891553Y-114456124D01*
X118908208Y-114469792D01*
X118921876Y-114486447D01*
X118932029Y-114505443D01*
X118938284Y-114526062D01*
X118941000Y-114553640D01*
X118941000Y-115062360D01*
X118938284Y-115089938D01*
X118932029Y-115110557D01*
X118921876Y-115129553D01*
X118908208Y-115146208D01*
X118891553Y-115159876D01*
X118872557Y-115170029D01*
X118851938Y-115176284D01*
X118824360Y-115179000D01*
X118365640Y-115179000D01*
X118338062Y-115176284D01*
X118317443Y-115170029D01*
X118298447Y-115159876D01*
X118281792Y-115146208D01*
X118268124Y-115129553D01*
X118257971Y-115110557D01*
X118251716Y-115089938D01*
X118249000Y-115062360D01*
X118249000Y-114553640D01*
X118251716Y-114526062D01*
X118257971Y-114505443D01*
X118268124Y-114486447D01*
X118281792Y-114469792D01*
X118298447Y-114456124D01*
X118317443Y-114445971D01*
X118338062Y-114439716D01*
X118365640Y-114437000D01*
X118824360Y-114437000D01*
X118851938Y-114439716D01*
G37*
G36*
X117881938Y-114439716D02*
G01*
X117902557Y-114445971D01*
X117921553Y-114456124D01*
X117938208Y-114469792D01*
X117951876Y-114486447D01*
X117962029Y-114505443D01*
X117968284Y-114526062D01*
X117971000Y-114553640D01*
X117971000Y-115062360D01*
X117968284Y-115089938D01*
X117962029Y-115110557D01*
X117951876Y-115129553D01*
X117938208Y-115146208D01*
X117921553Y-115159876D01*
X117902557Y-115170029D01*
X117881938Y-115176284D01*
X117854360Y-115179000D01*
X117395640Y-115179000D01*
X117368062Y-115176284D01*
X117347443Y-115170029D01*
X117328447Y-115159876D01*
X117311792Y-115146208D01*
X117298124Y-115129553D01*
X117287971Y-115110557D01*
X117281716Y-115089938D01*
X117279000Y-115062360D01*
X117279000Y-114553640D01*
X117281716Y-114526062D01*
X117287971Y-114505443D01*
X117298124Y-114486447D01*
X117311792Y-114469792D01*
X117328447Y-114456124D01*
X117347443Y-114445971D01*
X117368062Y-114439716D01*
X117395640Y-114437000D01*
X117854360Y-114437000D01*
X117881938Y-114439716D01*
G37*
G36*
X124346604Y-113124347D02*
G01*
X124383144Y-113135432D01*
X124416821Y-113153433D01*
X124446341Y-113177659D01*
X124470567Y-113207179D01*
X124488568Y-113240856D01*
X124499653Y-113277396D01*
X124504000Y-113321538D01*
X124504000Y-114770462D01*
X124499653Y-114814604D01*
X124488568Y-114851144D01*
X124470567Y-114884821D01*
X124446341Y-114914341D01*
X124416821Y-114938567D01*
X124383144Y-114956568D01*
X124346604Y-114967653D01*
X124302462Y-114972000D01*
X123353538Y-114972000D01*
X123309396Y-114967653D01*
X123272856Y-114956568D01*
X123239179Y-114938567D01*
X123209659Y-114914341D01*
X123185433Y-114884821D01*
X123167432Y-114851144D01*
X123156347Y-114814604D01*
X123152000Y-114770462D01*
X123152000Y-113321538D01*
X123156347Y-113277396D01*
X123167432Y-113240856D01*
X123185433Y-113207179D01*
X123209659Y-113177659D01*
X123239179Y-113153433D01*
X123272856Y-113135432D01*
X123309396Y-113124347D01*
X123353538Y-113120000D01*
X124302462Y-113120000D01*
X124346604Y-113124347D01*
G37*
G36*
X121546604Y-113124347D02*
G01*
X121583144Y-113135432D01*
X121616821Y-113153433D01*
X121646341Y-113177659D01*
X121670567Y-113207179D01*
X121688568Y-113240856D01*
X121699653Y-113277396D01*
X121704000Y-113321538D01*
X121704000Y-114770462D01*
X121699653Y-114814604D01*
X121688568Y-114851144D01*
X121670567Y-114884821D01*
X121646341Y-114914341D01*
X121616821Y-114938567D01*
X121583144Y-114956568D01*
X121546604Y-114967653D01*
X121502462Y-114972000D01*
X120553538Y-114972000D01*
X120509396Y-114967653D01*
X120472856Y-114956568D01*
X120439179Y-114938567D01*
X120409659Y-114914341D01*
X120385433Y-114884821D01*
X120367432Y-114851144D01*
X120356347Y-114814604D01*
X120352000Y-114770462D01*
X120352000Y-113321538D01*
X120356347Y-113277396D01*
X120367432Y-113240856D01*
X120385433Y-113207179D01*
X120409659Y-113177659D01*
X120439179Y-113153433D01*
X120472856Y-113135432D01*
X120509396Y-113124347D01*
X120553538Y-113120000D01*
X121502462Y-113120000D01*
X121546604Y-113124347D01*
G37*
G36*
X128903591Y-113587085D02*
G01*
X128937569Y-113597393D01*
X128968890Y-113614134D01*
X128996339Y-113636661D01*
X129018866Y-113664110D01*
X129035607Y-113695431D01*
X129045915Y-113729409D01*
X129050000Y-113770890D01*
X129050000Y-114372110D01*
X129045915Y-114413591D01*
X129035607Y-114447569D01*
X129018866Y-114478890D01*
X128996339Y-114506339D01*
X128968890Y-114528866D01*
X128937569Y-114545607D01*
X128903591Y-114555915D01*
X128862110Y-114560000D01*
X128185890Y-114560000D01*
X128144409Y-114555915D01*
X128110431Y-114545607D01*
X128079110Y-114528866D01*
X128051661Y-114506339D01*
X128029134Y-114478890D01*
X128012393Y-114447569D01*
X128002085Y-114413591D01*
X127998000Y-114372110D01*
X127998000Y-113770890D01*
X128002085Y-113729409D01*
X128012393Y-113695431D01*
X128029134Y-113664110D01*
X128051661Y-113636661D01*
X128079110Y-113614134D01*
X128110431Y-113597393D01*
X128144409Y-113587085D01*
X128185890Y-113583000D01*
X128862110Y-113583000D01*
X128903591Y-113587085D01*
G37*
G36*
X119632591Y-112825085D02*
G01*
X119666569Y-112835393D01*
X119697890Y-112852134D01*
X119725339Y-112874661D01*
X119747866Y-112902110D01*
X119764607Y-112933431D01*
X119774915Y-112967409D01*
X119779000Y-113008890D01*
X119779000Y-113610110D01*
X119774915Y-113651591D01*
X119764607Y-113685569D01*
X119747866Y-113716890D01*
X119725339Y-113744339D01*
X119697890Y-113766866D01*
X119666569Y-113783607D01*
X119632591Y-113793915D01*
X119591110Y-113798000D01*
X118914890Y-113798000D01*
X118873409Y-113793915D01*
X118839431Y-113783607D01*
X118808110Y-113766866D01*
X118780661Y-113744339D01*
X118758134Y-113716890D01*
X118741393Y-113685569D01*
X118731085Y-113651591D01*
X118727000Y-113610110D01*
X118727000Y-113008890D01*
X118731085Y-112967409D01*
X118741393Y-112933431D01*
X118758134Y-112902110D01*
X118780661Y-112874661D01*
X118808110Y-112852134D01*
X118839431Y-112835393D01*
X118873409Y-112825085D01*
X118914890Y-112821000D01*
X119591110Y-112821000D01*
X119632591Y-112825085D01*
G37*
G36*
X128903591Y-112012085D02*
G01*
X128937569Y-112022393D01*
X128968890Y-112039134D01*
X128996339Y-112061661D01*
X129018866Y-112089110D01*
X129035607Y-112120431D01*
X129045915Y-112154409D01*
X129050000Y-112195890D01*
X129050000Y-112797110D01*
X129045915Y-112838591D01*
X129035607Y-112872569D01*
X129018866Y-112903890D01*
X128996339Y-112931339D01*
X128968890Y-112953866D01*
X128937569Y-112970607D01*
X128903591Y-112980915D01*
X128862110Y-112985000D01*
X128185890Y-112985000D01*
X128144409Y-112980915D01*
X128110431Y-112970607D01*
X128079110Y-112953866D01*
X128051661Y-112931339D01*
X128029134Y-112903890D01*
X128012393Y-112872569D01*
X128002085Y-112838591D01*
X127998000Y-112797110D01*
X127998000Y-112195890D01*
X128002085Y-112154409D01*
X128012393Y-112120431D01*
X128029134Y-112089110D01*
X128051661Y-112061661D01*
X128079110Y-112039134D01*
X128110431Y-112022393D01*
X128144409Y-112012085D01*
X128185890Y-112008000D01*
X128862110Y-112008000D01*
X128903591Y-112012085D01*
G37*
G36*
X115683512Y-111023927D02*
G01*
X115832812Y-111053624D01*
X115996784Y-111121544D01*
X116144354Y-111220147D01*
X116269853Y-111345646D01*
X116368456Y-111493216D01*
X116436376Y-111657188D01*
X116471000Y-111831259D01*
X116471000Y-112008741D01*
X116436376Y-112182812D01*
X116368456Y-112346784D01*
X116269853Y-112494354D01*
X116144354Y-112619853D01*
X115996784Y-112718456D01*
X115832812Y-112786376D01*
X115683512Y-112816073D01*
X115658742Y-112821000D01*
X115481258Y-112821000D01*
X115456488Y-112816073D01*
X115307188Y-112786376D01*
X115143216Y-112718456D01*
X114995646Y-112619853D01*
X114870147Y-112494354D01*
X114771544Y-112346784D01*
X114703624Y-112182812D01*
X114669000Y-112008741D01*
X114669000Y-111831259D01*
X114703624Y-111657188D01*
X114771544Y-111493216D01*
X114870147Y-111345646D01*
X114995646Y-111220147D01*
X115143216Y-111121544D01*
X115307188Y-111053624D01*
X115456488Y-111023927D01*
X115481258Y-111019000D01*
X115658742Y-111019000D01*
X115683512Y-111023927D01*
G37*
G36*
X130923512Y-110863927D02*
G01*
X131072812Y-110893624D01*
X131236784Y-110961544D01*
X131384354Y-111060147D01*
X131509853Y-111185646D01*
X131608456Y-111333216D01*
X131676376Y-111497188D01*
X131711000Y-111671259D01*
X131711000Y-111848741D01*
X131676376Y-112022812D01*
X131608456Y-112186784D01*
X131509853Y-112334354D01*
X131384354Y-112459853D01*
X131236784Y-112558456D01*
X131072812Y-112626376D01*
X130923512Y-112656073D01*
X130898742Y-112661000D01*
X130721258Y-112661000D01*
X130696488Y-112656073D01*
X130547188Y-112626376D01*
X130383216Y-112558456D01*
X130235646Y-112459853D01*
X130110147Y-112334354D01*
X130011544Y-112186784D01*
X129943624Y-112022812D01*
X129909000Y-111848741D01*
X129909000Y-111671259D01*
X129943624Y-111497188D01*
X130011544Y-111333216D01*
X130110147Y-111185646D01*
X130235646Y-111060147D01*
X130383216Y-110961544D01*
X130547188Y-110893624D01*
X130696488Y-110863927D01*
X130721258Y-110859000D01*
X130898742Y-110859000D01*
X130923512Y-110863927D01*
G37*
G36*
X124573591Y-111238085D02*
G01*
X124607569Y-111248393D01*
X124638890Y-111265134D01*
X124666339Y-111287661D01*
X124688866Y-111315110D01*
X124705607Y-111346431D01*
X124715915Y-111380409D01*
X124720000Y-111421890D01*
X124720000Y-112098110D01*
X124715915Y-112139591D01*
X124705607Y-112173569D01*
X124688866Y-112204890D01*
X124666339Y-112232339D01*
X124638890Y-112254866D01*
X124607569Y-112271607D01*
X124573591Y-112281915D01*
X124532110Y-112286000D01*
X123930890Y-112286000D01*
X123889409Y-112281915D01*
X123855431Y-112271607D01*
X123824110Y-112254866D01*
X123796661Y-112232339D01*
X123774134Y-112204890D01*
X123757393Y-112173569D01*
X123747085Y-112139591D01*
X123743000Y-112098110D01*
X123743000Y-111421890D01*
X123747085Y-111380409D01*
X123757393Y-111346431D01*
X123774134Y-111315110D01*
X123796661Y-111287661D01*
X123824110Y-111265134D01*
X123855431Y-111248393D01*
X123889409Y-111238085D01*
X123930890Y-111234000D01*
X124532110Y-111234000D01*
X124573591Y-111238085D01*
G37*
G36*
X122998591Y-111238085D02*
G01*
X123032569Y-111248393D01*
X123063890Y-111265134D01*
X123091339Y-111287661D01*
X123113866Y-111315110D01*
X123130607Y-111346431D01*
X123140915Y-111380409D01*
X123145000Y-111421890D01*
X123145000Y-112098110D01*
X123140915Y-112139591D01*
X123130607Y-112173569D01*
X123113866Y-112204890D01*
X123091339Y-112232339D01*
X123063890Y-112254866D01*
X123032569Y-112271607D01*
X122998591Y-112281915D01*
X122957110Y-112286000D01*
X122355890Y-112286000D01*
X122314409Y-112281915D01*
X122280431Y-112271607D01*
X122249110Y-112254866D01*
X122221661Y-112232339D01*
X122199134Y-112204890D01*
X122182393Y-112173569D01*
X122172085Y-112139591D01*
X122168000Y-112098110D01*
X122168000Y-111421890D01*
X122172085Y-111380409D01*
X122182393Y-111346431D01*
X122199134Y-111315110D01*
X122221661Y-111287661D01*
X122249110Y-111265134D01*
X122280431Y-111248393D01*
X122314409Y-111238085D01*
X122355890Y-111234000D01*
X122957110Y-111234000D01*
X122998591Y-111238085D01*
G37*
G36*
X119632591Y-111250085D02*
G01*
X119666569Y-111260393D01*
X119697890Y-111277134D01*
X119725339Y-111299661D01*
X119747866Y-111327110D01*
X119764607Y-111358431D01*
X119774915Y-111392409D01*
X119779000Y-111433890D01*
X119779000Y-112035110D01*
X119774915Y-112076591D01*
X119764607Y-112110569D01*
X119747866Y-112141890D01*
X119725339Y-112169339D01*
X119697890Y-112191866D01*
X119666569Y-112208607D01*
X119632591Y-112218915D01*
X119591110Y-112223000D01*
X118914890Y-112223000D01*
X118873409Y-112218915D01*
X118839431Y-112208607D01*
X118808110Y-112191866D01*
X118780661Y-112169339D01*
X118758134Y-112141890D01*
X118741393Y-112110569D01*
X118731085Y-112076591D01*
X118727000Y-112035110D01*
X118727000Y-111433890D01*
X118731085Y-111392409D01*
X118741393Y-111358431D01*
X118758134Y-111327110D01*
X118780661Y-111299661D01*
X118808110Y-111277134D01*
X118839431Y-111260393D01*
X118873409Y-111250085D01*
X118914890Y-111246000D01*
X119591110Y-111246000D01*
X119632591Y-111250085D01*
G37*
G36*
X128383512Y-109753927D02*
G01*
X128532812Y-109783624D01*
X128696784Y-109851544D01*
X128844354Y-109950147D01*
X128969853Y-110075646D01*
X129068456Y-110223216D01*
X129136376Y-110387188D01*
X129171000Y-110561259D01*
X129171000Y-110738741D01*
X129136376Y-110912812D01*
X129068456Y-111076784D01*
X128969853Y-111224354D01*
X128844354Y-111349853D01*
X128696784Y-111448456D01*
X128532812Y-111516376D01*
X128383512Y-111546073D01*
X128358742Y-111551000D01*
X128181258Y-111551000D01*
X128156488Y-111546073D01*
X128007188Y-111516376D01*
X127843216Y-111448456D01*
X127695646Y-111349853D01*
X127570147Y-111224354D01*
X127471544Y-111076784D01*
X127403624Y-110912812D01*
X127369000Y-110738741D01*
X127369000Y-110561259D01*
X127403624Y-110387188D01*
X127471544Y-110223216D01*
X127570147Y-110075646D01*
X127695646Y-109950147D01*
X127843216Y-109851544D01*
X128007188Y-109783624D01*
X128156488Y-109753927D01*
X128181258Y-109749000D01*
X128358742Y-109749000D01*
X128383512Y-109753927D01*
G37*
G36*
X115683512Y-108483927D02*
G01*
X115832812Y-108513624D01*
X115996784Y-108581544D01*
X116144354Y-108680147D01*
X116269853Y-108805646D01*
X116368456Y-108953216D01*
X116436376Y-109117188D01*
X116471000Y-109291259D01*
X116471000Y-109468741D01*
X116436376Y-109642812D01*
X116368456Y-109806784D01*
X116269853Y-109954354D01*
X116144354Y-110079853D01*
X115996784Y-110178456D01*
X115832812Y-110246376D01*
X115683512Y-110276073D01*
X115658742Y-110281000D01*
X115481258Y-110281000D01*
X115456488Y-110276073D01*
X115307188Y-110246376D01*
X115143216Y-110178456D01*
X114995646Y-110079853D01*
X114870147Y-109954354D01*
X114771544Y-109806784D01*
X114703624Y-109642812D01*
X114669000Y-109468741D01*
X114669000Y-109291259D01*
X114703624Y-109117188D01*
X114771544Y-108953216D01*
X114870147Y-108805646D01*
X114995646Y-108680147D01*
X115143216Y-108581544D01*
X115307188Y-108513624D01*
X115456488Y-108483927D01*
X115481258Y-108479000D01*
X115658742Y-108479000D01*
X115683512Y-108483927D01*
G37*
G36*
X130923512Y-108323927D02*
G01*
X131072812Y-108353624D01*
X131236784Y-108421544D01*
X131384354Y-108520147D01*
X131509853Y-108645646D01*
X131608456Y-108793216D01*
X131676376Y-108957188D01*
X131711000Y-109131259D01*
X131711000Y-109308741D01*
X131676376Y-109482812D01*
X131608456Y-109646784D01*
X131509853Y-109794354D01*
X131384354Y-109919853D01*
X131236784Y-110018456D01*
X131072812Y-110086376D01*
X130923512Y-110116073D01*
X130898742Y-110121000D01*
X130721258Y-110121000D01*
X130696488Y-110116073D01*
X130547188Y-110086376D01*
X130383216Y-110018456D01*
X130235646Y-109919853D01*
X130110147Y-109794354D01*
X130011544Y-109646784D01*
X129943624Y-109482812D01*
X129909000Y-109308741D01*
X129909000Y-109131259D01*
X129943624Y-108957188D01*
X130011544Y-108793216D01*
X130110147Y-108645646D01*
X130235646Y-108520147D01*
X130383216Y-108421544D01*
X130547188Y-108353624D01*
X130696488Y-108323927D01*
X130721258Y-108319000D01*
X130898742Y-108319000D01*
X130923512Y-108323927D01*
G37*
G36*
X128777368Y-105696536D02*
G01*
X128316334Y-106157570D01*
X128211682Y-106262221D01*
X127750648Y-106723255D01*
X127645997Y-106827907D01*
X125487907Y-108985997D01*
X125383255Y-109090648D01*
X124922221Y-109551682D01*
X124817570Y-109656334D01*
X124356536Y-110117368D01*
X123153040Y-108913872D01*
X123614074Y-108452838D01*
X123614075Y-108452839D01*
X123630339Y-108436575D01*
X123630348Y-108436564D01*
X123718726Y-108348187D01*
X123718725Y-108348186D01*
X124179759Y-107887152D01*
X124179760Y-107887153D01*
X124268137Y-107798775D01*
X124268148Y-107798766D01*
X124284412Y-107782502D01*
X124284411Y-107782501D01*
X124745445Y-107321467D01*
X124745446Y-107321468D01*
X124833833Y-107233080D01*
X124850097Y-107216817D01*
X124850096Y-107216816D01*
X125311130Y-106755782D01*
X125311131Y-106755783D01*
X125415783Y-106651131D01*
X125415782Y-106651130D01*
X125876816Y-106190096D01*
X125876817Y-106190097D01*
X125965204Y-106101709D01*
X125981468Y-106085446D01*
X125981467Y-106085445D01*
X126442501Y-105624411D01*
X126442502Y-105624412D01*
X126458766Y-105608148D01*
X126458775Y-105608137D01*
X126547153Y-105519760D01*
X126547152Y-105519759D01*
X127008186Y-105058725D01*
X127008187Y-105058726D01*
X127096564Y-104970348D01*
X127096575Y-104970339D01*
X127112839Y-104954075D01*
X127112838Y-104954074D01*
X127573872Y-104493040D01*
X128777368Y-105696536D01*
G37*
G36*
X118807162Y-104954074D02*
G01*
X118807162Y-104954075D01*
X118823426Y-104970339D01*
X118823432Y-104970344D01*
X118911814Y-105058726D01*
X118911814Y-105058725D01*
X119372848Y-105519759D01*
X119372848Y-105519760D01*
X119461230Y-105608142D01*
X119461235Y-105608148D01*
X119477499Y-105624412D01*
X119477499Y-105624411D01*
X119938533Y-106085445D01*
X119938533Y-106085446D01*
X120043184Y-106190097D01*
X120043184Y-106190096D01*
X120504218Y-106651130D01*
X120504218Y-106651131D01*
X120608870Y-106755783D01*
X120608870Y-106755782D01*
X121069904Y-107216816D01*
X121069904Y-107216817D01*
X121174555Y-107321468D01*
X121174555Y-107321467D01*
X121635589Y-107782501D01*
X121635589Y-107782502D01*
X121651853Y-107798766D01*
X121651859Y-107798771D01*
X121740241Y-107887153D01*
X121740241Y-107887152D01*
X122201275Y-108348186D01*
X122201275Y-108348187D01*
X122289657Y-108436569D01*
X122289662Y-108436575D01*
X122305926Y-108452839D01*
X122305926Y-108452838D01*
X122766960Y-108913872D01*
X121563464Y-110117368D01*
X121102430Y-109656334D01*
X121102431Y-109656334D01*
X121014049Y-109567952D01*
X121014044Y-109567946D01*
X120997780Y-109551682D01*
X120997779Y-109551682D01*
X120536745Y-109090648D01*
X120536746Y-109090648D01*
X120520482Y-109074384D01*
X120520476Y-109074379D01*
X120432094Y-108985997D01*
X120432093Y-108985997D01*
X119971059Y-108524963D01*
X119971060Y-108524963D01*
X119866409Y-108420312D01*
X119866408Y-108420312D01*
X119405374Y-107959278D01*
X119405375Y-107959278D01*
X119300723Y-107854626D01*
X119300722Y-107854626D01*
X118839688Y-107393592D01*
X118839689Y-107393592D01*
X118735038Y-107288941D01*
X118735037Y-107288941D01*
X118274003Y-106827907D01*
X118274004Y-106827907D01*
X118185622Y-106739525D01*
X118185617Y-106739519D01*
X118169353Y-106723255D01*
X118169352Y-106723255D01*
X117708318Y-106262221D01*
X117708319Y-106262221D01*
X117692055Y-106245957D01*
X117692049Y-106245952D01*
X117603667Y-106157570D01*
X117603666Y-106157570D01*
X117142632Y-105696536D01*
X118346128Y-104493040D01*
X118807162Y-104954074D01*
G37*
G36*
X128383512Y-107213927D02*
G01*
X128532812Y-107243624D01*
X128696784Y-107311544D01*
X128844354Y-107410147D01*
X128969853Y-107535646D01*
X129068456Y-107683216D01*
X129136376Y-107847188D01*
X129171000Y-108021259D01*
X129171000Y-108198741D01*
X129136376Y-108372812D01*
X129068456Y-108536784D01*
X128969853Y-108684354D01*
X128844354Y-108809853D01*
X128696784Y-108908456D01*
X128532812Y-108976376D01*
X128383512Y-109006073D01*
X128358742Y-109011000D01*
X128181258Y-109011000D01*
X128156488Y-109006073D01*
X128007188Y-108976376D01*
X127843216Y-108908456D01*
X127695646Y-108809853D01*
X127570147Y-108684354D01*
X127471544Y-108536784D01*
X127403624Y-108372812D01*
X127369000Y-108198741D01*
X127369000Y-108021259D01*
X127403624Y-107847188D01*
X127471544Y-107683216D01*
X127570147Y-107535646D01*
X127695646Y-107410147D01*
X127843216Y-107311544D01*
X128007188Y-107243624D01*
X128156488Y-107213927D01*
X128181258Y-107209000D01*
X128358742Y-107209000D01*
X128383512Y-107213927D01*
G37*
G36*
X115683512Y-105943927D02*
G01*
X115832812Y-105973624D01*
X115996784Y-106041544D01*
X116144354Y-106140147D01*
X116269853Y-106265646D01*
X116368456Y-106413216D01*
X116436376Y-106577188D01*
X116471000Y-106751259D01*
X116471000Y-106928741D01*
X116436376Y-107102812D01*
X116368456Y-107266784D01*
X116269853Y-107414354D01*
X116144354Y-107539853D01*
X115996784Y-107638456D01*
X115832812Y-107706376D01*
X115683512Y-107736073D01*
X115658742Y-107741000D01*
X115481258Y-107741000D01*
X115456488Y-107736073D01*
X115307188Y-107706376D01*
X115143216Y-107638456D01*
X114995646Y-107539853D01*
X114870147Y-107414354D01*
X114771544Y-107266784D01*
X114703624Y-107102812D01*
X114669000Y-106928741D01*
X114669000Y-106751259D01*
X114703624Y-106577188D01*
X114771544Y-106413216D01*
X114870147Y-106265646D01*
X114995646Y-106140147D01*
X115143216Y-106041544D01*
X115307188Y-105973624D01*
X115456488Y-105943927D01*
X115481258Y-105939000D01*
X115658742Y-105939000D01*
X115683512Y-105943927D01*
G37*
G36*
X130923512Y-105783927D02*
G01*
X131072812Y-105813624D01*
X131236784Y-105881544D01*
X131384354Y-105980147D01*
X131509853Y-106105646D01*
X131608456Y-106253216D01*
X131676376Y-106417188D01*
X131711000Y-106591259D01*
X131711000Y-106768741D01*
X131676376Y-106942812D01*
X131608456Y-107106784D01*
X131509853Y-107254354D01*
X131384354Y-107379853D01*
X131236784Y-107478456D01*
X131072812Y-107546376D01*
X130923512Y-107576073D01*
X130898742Y-107581000D01*
X130721258Y-107581000D01*
X130696488Y-107576073D01*
X130547188Y-107546376D01*
X130383216Y-107478456D01*
X130235646Y-107379853D01*
X130110147Y-107254354D01*
X130011544Y-107106784D01*
X129943624Y-106942812D01*
X129909000Y-106768741D01*
X129909000Y-106591259D01*
X129943624Y-106417188D01*
X130011544Y-106253216D01*
X130110147Y-106105646D01*
X130235646Y-105980147D01*
X130383216Y-105881544D01*
X130547188Y-105813624D01*
X130696488Y-105783927D01*
X130721258Y-105779000D01*
X130898742Y-105779000D01*
X130923512Y-105783927D01*
G37*
G36*
X115683512Y-103403927D02*
G01*
X115832812Y-103433624D01*
X115996784Y-103501544D01*
X116144354Y-103600147D01*
X116269853Y-103725646D01*
X116368456Y-103873216D01*
X116436376Y-104037188D01*
X116471000Y-104211259D01*
X116471000Y-104388741D01*
X116436376Y-104562812D01*
X116368456Y-104726784D01*
X116269853Y-104874354D01*
X116144354Y-104999853D01*
X115996784Y-105098456D01*
X115832812Y-105166376D01*
X115683512Y-105196073D01*
X115658742Y-105201000D01*
X115481258Y-105201000D01*
X115456488Y-105196073D01*
X115307188Y-105166376D01*
X115143216Y-105098456D01*
X114995646Y-104999853D01*
X114870147Y-104874354D01*
X114771544Y-104726784D01*
X114703624Y-104562812D01*
X114669000Y-104388741D01*
X114669000Y-104211259D01*
X114703624Y-104037188D01*
X114771544Y-103873216D01*
X114870147Y-103725646D01*
X114995646Y-103600147D01*
X115143216Y-103501544D01*
X115307188Y-103433624D01*
X115456488Y-103403927D01*
X115481258Y-103399000D01*
X115658742Y-103399000D01*
X115683512Y-103403927D01*
G37*
G36*
X130923512Y-103243927D02*
G01*
X131072812Y-103273624D01*
X131236784Y-103341544D01*
X131384354Y-103440147D01*
X131509853Y-103565646D01*
X131608456Y-103713216D01*
X131676376Y-103877188D01*
X131711000Y-104051259D01*
X131711000Y-104228741D01*
X131676376Y-104402812D01*
X131608456Y-104566784D01*
X131509853Y-104714354D01*
X131384354Y-104839853D01*
X131236784Y-104938456D01*
X131072812Y-105006376D01*
X130923512Y-105036073D01*
X130898742Y-105041000D01*
X130721258Y-105041000D01*
X130696488Y-105036073D01*
X130547188Y-105006376D01*
X130383216Y-104938456D01*
X130235646Y-104839853D01*
X130110147Y-104714354D01*
X130011544Y-104566784D01*
X129943624Y-104402812D01*
X129909000Y-104228741D01*
X129909000Y-104051259D01*
X129943624Y-103877188D01*
X130011544Y-103713216D01*
X130110147Y-103565646D01*
X130235646Y-103440147D01*
X130383216Y-103341544D01*
X130547188Y-103273624D01*
X130696488Y-103243927D01*
X130721258Y-103239000D01*
X130898742Y-103239000D01*
X130923512Y-103243927D01*
G37*
G36*
X122766960Y-99686128D02*
G01*
X122289662Y-100163426D01*
X122201275Y-100251814D01*
X121740241Y-100712848D01*
X121651853Y-100801235D01*
X121174555Y-101278533D01*
X121086167Y-101366920D01*
X121069904Y-101383184D01*
X120043184Y-102409904D01*
X119954796Y-102498291D01*
X119938533Y-102514555D01*
X119461235Y-102991853D01*
X119372848Y-103080241D01*
X118911814Y-103541275D01*
X118823426Y-103629662D01*
X118346128Y-104106960D01*
X117142632Y-102903464D01*
X117603666Y-102442430D01*
X117603667Y-102442431D01*
X117692044Y-102354053D01*
X117692055Y-102354044D01*
X117708319Y-102337780D01*
X117708318Y-102337779D01*
X118169352Y-101876745D01*
X118169353Y-101876746D01*
X118185617Y-101860482D01*
X118185626Y-101860471D01*
X118274004Y-101772094D01*
X118274003Y-101772093D01*
X118735037Y-101311059D01*
X118735038Y-101311060D01*
X118839689Y-101206409D01*
X118839688Y-101206408D01*
X119300722Y-100745374D01*
X119300723Y-100745375D01*
X119405375Y-100640723D01*
X119405374Y-100640722D01*
X119866408Y-100179688D01*
X119866409Y-100179689D01*
X119971060Y-100075038D01*
X119971059Y-100075037D01*
X120432093Y-99614003D01*
X120432094Y-99614004D01*
X120520471Y-99525626D01*
X120520482Y-99525617D01*
X120536746Y-99509353D01*
X120536745Y-99509352D01*
X120997779Y-99048318D01*
X120997780Y-99048319D01*
X121014044Y-99032055D01*
X121014053Y-99032044D01*
X121102431Y-98943667D01*
X121102430Y-98943666D01*
X121563464Y-98482632D01*
X122766960Y-99686128D01*
G37*
G36*
X124817570Y-98943666D02*
G01*
X124817570Y-98943667D01*
X124905952Y-99032049D01*
X124905957Y-99032055D01*
X124922221Y-99048319D01*
X124922221Y-99048318D01*
X125383255Y-99509352D01*
X125383255Y-99509353D01*
X125399519Y-99525617D01*
X125399525Y-99525622D01*
X125487907Y-99614004D01*
X125487907Y-99614003D01*
X125948941Y-100075037D01*
X125948941Y-100075038D01*
X126053592Y-100179689D01*
X126053592Y-100179688D01*
X126514626Y-100640722D01*
X126514626Y-100640723D01*
X126619278Y-100745375D01*
X126619278Y-100745374D01*
X127080312Y-101206408D01*
X127080312Y-101206409D01*
X127184963Y-101311060D01*
X127184963Y-101311059D01*
X127645997Y-101772093D01*
X127645997Y-101772094D01*
X127734379Y-101860476D01*
X127734384Y-101860482D01*
X127750648Y-101876746D01*
X127750648Y-101876745D01*
X128211682Y-102337779D01*
X128211682Y-102337780D01*
X128227946Y-102354044D01*
X128227952Y-102354049D01*
X128316334Y-102442431D01*
X128316334Y-102442430D01*
X128777368Y-102903464D01*
X127573872Y-104106960D01*
X127112838Y-103645926D01*
X127112839Y-103645926D01*
X127096575Y-103629662D01*
X127096569Y-103629657D01*
X127008187Y-103541275D01*
X127008186Y-103541275D01*
X126547152Y-103080241D01*
X126547153Y-103080241D01*
X126458771Y-102991859D01*
X126458766Y-102991853D01*
X126442502Y-102975589D01*
X126442501Y-102975589D01*
X125981467Y-102514555D01*
X125981468Y-102514555D01*
X125876817Y-102409904D01*
X125876816Y-102409904D01*
X125415782Y-101948870D01*
X125415783Y-101948870D01*
X125311131Y-101844218D01*
X125311130Y-101844218D01*
X124850096Y-101383184D01*
X124850097Y-101383184D01*
X124745446Y-101278533D01*
X124745445Y-101278533D01*
X124284411Y-100817499D01*
X124284412Y-100817499D01*
X124268148Y-100801235D01*
X124268142Y-100801230D01*
X124179760Y-100712848D01*
X124179759Y-100712848D01*
X123718725Y-100251814D01*
X123718726Y-100251814D01*
X123630344Y-100163432D01*
X123630339Y-100163426D01*
X123614075Y-100147162D01*
X123614074Y-100147162D01*
X123153040Y-99686128D01*
X124356536Y-98482632D01*
X124817570Y-98943666D01*
G37*
G36*
X115683512Y-100863927D02*
G01*
X115832812Y-100893624D01*
X115996784Y-100961544D01*
X116144354Y-101060147D01*
X116269853Y-101185646D01*
X116368456Y-101333216D01*
X116436376Y-101497188D01*
X116471000Y-101671259D01*
X116471000Y-101848741D01*
X116436376Y-102022812D01*
X116368456Y-102186784D01*
X116269853Y-102334354D01*
X116144354Y-102459853D01*
X115996784Y-102558456D01*
X115832812Y-102626376D01*
X115683512Y-102656073D01*
X115658742Y-102661000D01*
X115481258Y-102661000D01*
X115456488Y-102656073D01*
X115307188Y-102626376D01*
X115143216Y-102558456D01*
X114995646Y-102459853D01*
X114870147Y-102334354D01*
X114771544Y-102186784D01*
X114703624Y-102022812D01*
X114669000Y-101848741D01*
X114669000Y-101671259D01*
X114703624Y-101497188D01*
X114771544Y-101333216D01*
X114870147Y-101185646D01*
X114995646Y-101060147D01*
X115143216Y-100961544D01*
X115307188Y-100893624D01*
X115456488Y-100863927D01*
X115481258Y-100859000D01*
X115658742Y-100859000D01*
X115683512Y-100863927D01*
G37*
G36*
X130923512Y-100703927D02*
G01*
X131072812Y-100733624D01*
X131236784Y-100801544D01*
X131384354Y-100900147D01*
X131509853Y-101025646D01*
X131608456Y-101173216D01*
X131676376Y-101337188D01*
X131711000Y-101511259D01*
X131711000Y-101688741D01*
X131676376Y-101862812D01*
X131608456Y-102026784D01*
X131509853Y-102174354D01*
X131384354Y-102299853D01*
X131236784Y-102398456D01*
X131072812Y-102466376D01*
X130923512Y-102496073D01*
X130898742Y-102501000D01*
X130721258Y-102501000D01*
X130696488Y-102496073D01*
X130547188Y-102466376D01*
X130383216Y-102398456D01*
X130235646Y-102299853D01*
X130110147Y-102174354D01*
X130011544Y-102026784D01*
X129943624Y-101862812D01*
X129909000Y-101688741D01*
X129909000Y-101511259D01*
X129943624Y-101337188D01*
X130011544Y-101173216D01*
X130110147Y-101025646D01*
X130235646Y-100900147D01*
X130383216Y-100801544D01*
X130547188Y-100733624D01*
X130696488Y-100703927D01*
X130721258Y-100699000D01*
X130898742Y-100699000D01*
X130923512Y-100703927D01*
G37*
G36*
X128383512Y-99593927D02*
G01*
X128532812Y-99623624D01*
X128696784Y-99691544D01*
X128844354Y-99790147D01*
X128969853Y-99915646D01*
X129068456Y-100063216D01*
X129136376Y-100227188D01*
X129171000Y-100401259D01*
X129171000Y-100578741D01*
X129136376Y-100752812D01*
X129068456Y-100916784D01*
X128969853Y-101064354D01*
X128844354Y-101189853D01*
X128696784Y-101288456D01*
X128532812Y-101356376D01*
X128383512Y-101386073D01*
X128358742Y-101391000D01*
X128181258Y-101391000D01*
X128156488Y-101386073D01*
X128007188Y-101356376D01*
X127843216Y-101288456D01*
X127695646Y-101189853D01*
X127570147Y-101064354D01*
X127471544Y-100916784D01*
X127403624Y-100752812D01*
X127369000Y-100578741D01*
X127369000Y-100401259D01*
X127403624Y-100227188D01*
X127471544Y-100063216D01*
X127570147Y-99915646D01*
X127695646Y-99790147D01*
X127843216Y-99691544D01*
X128007188Y-99623624D01*
X128156488Y-99593927D01*
X128181258Y-99589000D01*
X128358742Y-99589000D01*
X128383512Y-99593927D01*
G37*
G36*
X115683512Y-98323927D02*
G01*
X115832812Y-98353624D01*
X115996784Y-98421544D01*
X116144354Y-98520147D01*
X116269853Y-98645646D01*
X116368456Y-98793216D01*
X116436376Y-98957188D01*
X116471000Y-99131259D01*
X116471000Y-99308741D01*
X116436376Y-99482812D01*
X116368456Y-99646784D01*
X116269853Y-99794354D01*
X116144354Y-99919853D01*
X115996784Y-100018456D01*
X115832812Y-100086376D01*
X115683512Y-100116073D01*
X115658742Y-100121000D01*
X115481258Y-100121000D01*
X115456488Y-100116073D01*
X115307188Y-100086376D01*
X115143216Y-100018456D01*
X114995646Y-99919853D01*
X114870147Y-99794354D01*
X114771544Y-99646784D01*
X114703624Y-99482812D01*
X114669000Y-99308741D01*
X114669000Y-99131259D01*
X114703624Y-98957188D01*
X114771544Y-98793216D01*
X114870147Y-98645646D01*
X114995646Y-98520147D01*
X115143216Y-98421544D01*
X115307188Y-98353624D01*
X115456488Y-98323927D01*
X115481258Y-98319000D01*
X115658742Y-98319000D01*
X115683512Y-98323927D01*
G37*
G36*
X130918348Y-98162900D02*
G01*
X131072812Y-98193624D01*
X131236784Y-98261544D01*
X131384354Y-98360147D01*
X131509853Y-98485646D01*
X131608456Y-98633216D01*
X131676376Y-98797188D01*
X131711000Y-98971259D01*
X131711000Y-99148741D01*
X131676376Y-99322812D01*
X131608456Y-99486784D01*
X131509853Y-99634354D01*
X131384354Y-99759853D01*
X131236784Y-99858456D01*
X131072812Y-99926376D01*
X130923512Y-99956073D01*
X130898742Y-99961000D01*
X130721258Y-99961000D01*
X130696488Y-99956073D01*
X130547188Y-99926376D01*
X130383216Y-99858456D01*
X130235646Y-99759853D01*
X130110147Y-99634354D01*
X130011544Y-99486784D01*
X129943624Y-99322812D01*
X129909000Y-99148741D01*
X129909000Y-98971259D01*
X129943624Y-98797188D01*
X130011544Y-98633216D01*
X130110147Y-98485646D01*
X130235646Y-98360147D01*
X130383216Y-98261544D01*
X130547188Y-98193624D01*
X130701652Y-98162900D01*
X130721258Y-98159000D01*
X130898742Y-98159000D01*
X130918348Y-98162900D01*
G37*
G36*
X119592200Y-99362900D02*
G01*
X117590200Y-99362900D01*
X117590200Y-98860900D01*
X119592200Y-98860900D01*
X119592200Y-99362900D01*
G37*
G36*
X128367484Y-97050739D02*
G01*
X128532812Y-97083624D01*
X128696784Y-97151544D01*
X128844354Y-97250147D01*
X128969853Y-97375646D01*
X129068456Y-97523216D01*
X129136376Y-97687188D01*
X129171000Y-97861259D01*
X129171000Y-98038741D01*
X129136376Y-98212812D01*
X129068456Y-98376784D01*
X128969853Y-98524354D01*
X128844354Y-98649853D01*
X128696784Y-98748456D01*
X128532812Y-98816376D01*
X128383512Y-98846073D01*
X128358742Y-98851000D01*
X128181258Y-98851000D01*
X128156488Y-98846073D01*
X128007188Y-98816376D01*
X127843216Y-98748456D01*
X127695646Y-98649853D01*
X127570147Y-98524354D01*
X127471544Y-98376784D01*
X127403624Y-98212812D01*
X127369000Y-98038741D01*
X127369000Y-97861259D01*
X127403624Y-97687188D01*
X127471544Y-97523216D01*
X127570147Y-97375646D01*
X127695646Y-97250147D01*
X127843216Y-97151544D01*
X128007188Y-97083624D01*
X128172516Y-97050739D01*
X128181258Y-97049000D01*
X128358742Y-97049000D01*
X128367484Y-97050739D01*
G37*
G36*
X126846191Y-97839085D02*
G01*
X126880169Y-97849393D01*
X126911490Y-97866134D01*
X126938939Y-97888661D01*
X126961466Y-97916110D01*
X126978207Y-97947431D01*
X126988515Y-97981409D01*
X126992600Y-98022890D01*
X126992600Y-98624110D01*
X126988515Y-98665591D01*
X126978207Y-98699569D01*
X126961466Y-98730890D01*
X126938939Y-98758339D01*
X126911490Y-98780866D01*
X126880169Y-98797607D01*
X126846191Y-98807915D01*
X126804710Y-98812000D01*
X126128490Y-98812000D01*
X126087009Y-98807915D01*
X126053031Y-98797607D01*
X126021710Y-98780866D01*
X125994261Y-98758339D01*
X125971734Y-98730890D01*
X125954993Y-98699569D01*
X125944685Y-98665591D01*
X125940600Y-98624110D01*
X125940600Y-98022890D01*
X125944685Y-97981409D01*
X125954993Y-97947431D01*
X125971734Y-97916110D01*
X125994261Y-97888661D01*
X126021710Y-97866134D01*
X126053031Y-97849393D01*
X126087009Y-97839085D01*
X126128490Y-97835000D01*
X126804710Y-97835000D01*
X126846191Y-97839085D01*
G37*
G36*
X119592200Y-98162900D02*
G01*
X117590200Y-98162900D01*
X117590200Y-97660900D01*
X119592200Y-97660900D01*
X119592200Y-98162900D01*
G37*
G36*
X115683512Y-95783927D02*
G01*
X115832812Y-95813624D01*
X115996784Y-95881544D01*
X116144354Y-95980147D01*
X116269853Y-96105646D01*
X116368456Y-96253216D01*
X116436376Y-96417188D01*
X116471000Y-96591259D01*
X116471000Y-96768741D01*
X116436376Y-96942812D01*
X116368456Y-97106784D01*
X116269853Y-97254354D01*
X116144354Y-97379853D01*
X115996784Y-97478456D01*
X115832812Y-97546376D01*
X115683512Y-97576073D01*
X115658742Y-97581000D01*
X115481258Y-97581000D01*
X115456488Y-97576073D01*
X115307188Y-97546376D01*
X115143216Y-97478456D01*
X114995646Y-97379853D01*
X114870147Y-97254354D01*
X114771544Y-97106784D01*
X114703624Y-96942812D01*
X114669000Y-96768741D01*
X114669000Y-96591259D01*
X114703624Y-96417188D01*
X114771544Y-96253216D01*
X114870147Y-96105646D01*
X114995646Y-95980147D01*
X115143216Y-95881544D01*
X115307188Y-95813624D01*
X115456488Y-95783927D01*
X115481258Y-95779000D01*
X115658742Y-95779000D01*
X115683512Y-95783927D01*
G37*
G36*
X130923512Y-95623927D02*
G01*
X131072812Y-95653624D01*
X131236784Y-95721544D01*
X131384354Y-95820147D01*
X131509853Y-95945646D01*
X131608456Y-96093216D01*
X131676376Y-96257188D01*
X131711000Y-96431259D01*
X131711000Y-96608741D01*
X131676376Y-96782812D01*
X131608456Y-96946784D01*
X131509853Y-97094354D01*
X131384354Y-97219853D01*
X131236784Y-97318456D01*
X131072812Y-97386376D01*
X130923512Y-97416073D01*
X130898742Y-97421000D01*
X130721258Y-97421000D01*
X130696488Y-97416073D01*
X130547188Y-97386376D01*
X130383216Y-97318456D01*
X130235646Y-97219853D01*
X130110147Y-97094354D01*
X130011544Y-96946784D01*
X129943624Y-96782812D01*
X129909000Y-96608741D01*
X129909000Y-96431259D01*
X129943624Y-96257188D01*
X130011544Y-96093216D01*
X130110147Y-95945646D01*
X130235646Y-95820147D01*
X130383216Y-95721544D01*
X130547188Y-95653624D01*
X130696488Y-95623927D01*
X130721258Y-95619000D01*
X130898742Y-95619000D01*
X130923512Y-95623927D01*
G37*
G36*
X126846191Y-96264085D02*
G01*
X126880169Y-96274393D01*
X126911490Y-96291134D01*
X126938939Y-96313661D01*
X126961466Y-96341110D01*
X126978207Y-96372431D01*
X126988515Y-96406409D01*
X126992600Y-96447890D01*
X126992600Y-97049110D01*
X126988515Y-97090591D01*
X126978207Y-97124569D01*
X126961466Y-97155890D01*
X126938939Y-97183339D01*
X126911490Y-97205866D01*
X126880169Y-97222607D01*
X126846191Y-97232915D01*
X126804710Y-97237000D01*
X126128490Y-97237000D01*
X126087009Y-97232915D01*
X126053031Y-97222607D01*
X126021710Y-97205866D01*
X125994261Y-97183339D01*
X125971734Y-97155890D01*
X125954993Y-97124569D01*
X125944685Y-97090591D01*
X125940600Y-97049110D01*
X125940600Y-96447890D01*
X125944685Y-96406409D01*
X125954993Y-96372431D01*
X125971734Y-96341110D01*
X125994261Y-96313661D01*
X126021710Y-96291134D01*
X126053031Y-96274393D01*
X126087009Y-96264085D01*
X126128490Y-96260000D01*
X126804710Y-96260000D01*
X126846191Y-96264085D01*
G37*
G36*
X121028691Y-96056485D02*
G01*
X121062669Y-96066793D01*
X121093990Y-96083534D01*
X121121439Y-96106061D01*
X121143966Y-96133510D01*
X121160707Y-96164831D01*
X121171015Y-96198809D01*
X121175100Y-96240290D01*
X121175100Y-96916510D01*
X121171015Y-96957991D01*
X121160707Y-96991969D01*
X121143966Y-97023290D01*
X121121439Y-97050739D01*
X121093990Y-97073266D01*
X121062669Y-97090007D01*
X121028691Y-97100315D01*
X120987210Y-97104400D01*
X120385990Y-97104400D01*
X120344509Y-97100315D01*
X120310531Y-97090007D01*
X120279210Y-97073266D01*
X120251761Y-97050739D01*
X120229234Y-97023290D01*
X120212493Y-96991969D01*
X120202185Y-96957991D01*
X120198100Y-96916510D01*
X120198100Y-96240290D01*
X120202185Y-96198809D01*
X120212493Y-96164831D01*
X120229234Y-96133510D01*
X120251761Y-96106061D01*
X120279210Y-96083534D01*
X120310531Y-96066793D01*
X120344509Y-96056485D01*
X120385990Y-96052400D01*
X120987210Y-96052400D01*
X121028691Y-96056485D01*
G37*
G36*
X122603691Y-96056485D02*
G01*
X122637669Y-96066793D01*
X122668990Y-96083534D01*
X122696439Y-96106061D01*
X122718966Y-96133510D01*
X122735707Y-96164831D01*
X122746015Y-96198809D01*
X122750100Y-96240290D01*
X122750100Y-96916510D01*
X122746015Y-96957991D01*
X122735707Y-96991969D01*
X122718966Y-97023290D01*
X122696439Y-97050739D01*
X122668990Y-97073266D01*
X122637669Y-97090007D01*
X122603691Y-97100315D01*
X122562210Y-97104400D01*
X121960990Y-97104400D01*
X121919509Y-97100315D01*
X121885531Y-97090007D01*
X121854210Y-97073266D01*
X121826761Y-97050739D01*
X121804234Y-97023290D01*
X121787493Y-96991969D01*
X121777185Y-96957991D01*
X121773100Y-96916510D01*
X121773100Y-96240290D01*
X121777185Y-96198809D01*
X121787493Y-96164831D01*
X121804234Y-96133510D01*
X121826761Y-96106061D01*
X121854210Y-96083534D01*
X121885531Y-96066793D01*
X121919509Y-96056485D01*
X121960990Y-96052400D01*
X122562210Y-96052400D01*
X122603691Y-96056485D01*
G37*
G36*
X119592200Y-96962900D02*
G01*
X117590200Y-96962900D01*
X117590200Y-96460900D01*
X119592200Y-96460900D01*
X119592200Y-96962900D01*
G37*
G36*
X124116391Y-94423285D02*
G01*
X124150369Y-94433593D01*
X124181690Y-94450334D01*
X124209139Y-94472861D01*
X124231666Y-94500310D01*
X124248407Y-94531631D01*
X124258715Y-94565609D01*
X124262800Y-94607090D01*
X124262800Y-95283310D01*
X124258715Y-95324791D01*
X124248407Y-95358769D01*
X124231666Y-95390090D01*
X124209139Y-95417539D01*
X124181690Y-95440066D01*
X124150369Y-95456807D01*
X124116391Y-95467115D01*
X124074910Y-95471200D01*
X123473690Y-95471200D01*
X123432209Y-95467115D01*
X123398231Y-95456807D01*
X123366910Y-95440066D01*
X123339461Y-95417539D01*
X123316934Y-95390090D01*
X123300193Y-95358769D01*
X123289885Y-95324791D01*
X123285800Y-95283310D01*
X123285800Y-94607090D01*
X123289885Y-94565609D01*
X123300193Y-94531631D01*
X123316934Y-94500310D01*
X123339461Y-94472861D01*
X123366910Y-94450334D01*
X123398231Y-94433593D01*
X123432209Y-94423285D01*
X123473690Y-94419200D01*
X124074910Y-94419200D01*
X124116391Y-94423285D01*
G37*
G36*
X122541391Y-94423285D02*
G01*
X122575369Y-94433593D01*
X122606690Y-94450334D01*
X122634139Y-94472861D01*
X122656666Y-94500310D01*
X122673407Y-94531631D01*
X122683715Y-94565609D01*
X122687800Y-94607090D01*
X122687800Y-95283310D01*
X122683715Y-95324791D01*
X122673407Y-95358769D01*
X122656666Y-95390090D01*
X122634139Y-95417539D01*
X122606690Y-95440066D01*
X122575369Y-95456807D01*
X122541391Y-95467115D01*
X122499910Y-95471200D01*
X121898690Y-95471200D01*
X121857209Y-95467115D01*
X121823231Y-95456807D01*
X121791910Y-95440066D01*
X121764461Y-95417539D01*
X121741934Y-95390090D01*
X121725193Y-95358769D01*
X121714885Y-95324791D01*
X121710800Y-95283310D01*
X121710800Y-94607090D01*
X121714885Y-94565609D01*
X121725193Y-94531631D01*
X121741934Y-94500310D01*
X121764461Y-94472861D01*
X121791910Y-94450334D01*
X121823231Y-94433593D01*
X121857209Y-94423285D01*
X121898690Y-94419200D01*
X122499910Y-94419200D01*
X122541391Y-94423285D01*
G37*
G36*
X119927000Y-95389000D02*
G01*
X118325000Y-95389000D01*
X118325000Y-93587000D01*
X119927000Y-93587000D01*
X119927000Y-95389000D01*
G37*
G36*
X115683512Y-93243927D02*
G01*
X115832812Y-93273624D01*
X115996784Y-93341544D01*
X116144354Y-93440147D01*
X116269853Y-93565646D01*
X116368456Y-93713216D01*
X116436376Y-93877188D01*
X116471000Y-94051259D01*
X116471000Y-94228741D01*
X116436376Y-94402812D01*
X116368456Y-94566784D01*
X116269853Y-94714354D01*
X116144354Y-94839853D01*
X115996784Y-94938456D01*
X115832812Y-95006376D01*
X115683512Y-95036073D01*
X115658742Y-95041000D01*
X115481258Y-95041000D01*
X115456488Y-95036073D01*
X115307188Y-95006376D01*
X115143216Y-94938456D01*
X114995646Y-94839853D01*
X114870147Y-94714354D01*
X114771544Y-94566784D01*
X114703624Y-94402812D01*
X114669000Y-94228741D01*
X114669000Y-94051259D01*
X114703624Y-93877188D01*
X114771544Y-93713216D01*
X114870147Y-93565646D01*
X114995646Y-93440147D01*
X115143216Y-93341544D01*
X115307188Y-93273624D01*
X115456488Y-93243927D01*
X115481258Y-93239000D01*
X115658742Y-93239000D01*
X115683512Y-93243927D01*
G37*
G36*
X130923512Y-93083927D02*
G01*
X131072812Y-93113624D01*
X131236784Y-93181544D01*
X131384354Y-93280147D01*
X131509853Y-93405646D01*
X131608456Y-93553216D01*
X131676376Y-93717188D01*
X131711000Y-93891259D01*
X131711000Y-94068741D01*
X131676376Y-94242812D01*
X131608456Y-94406784D01*
X131509853Y-94554354D01*
X131384354Y-94679853D01*
X131236784Y-94778456D01*
X131072812Y-94846376D01*
X130923512Y-94876073D01*
X130898742Y-94881000D01*
X130721258Y-94881000D01*
X130696488Y-94876073D01*
X130547188Y-94846376D01*
X130383216Y-94778456D01*
X130235646Y-94679853D01*
X130110147Y-94554354D01*
X130011544Y-94406784D01*
X129943624Y-94242812D01*
X129909000Y-94068741D01*
X129909000Y-93891259D01*
X129943624Y-93717188D01*
X130011544Y-93553216D01*
X130110147Y-93405646D01*
X130235646Y-93280147D01*
X130383216Y-93181544D01*
X130547188Y-93113624D01*
X130696488Y-93083927D01*
X130721258Y-93079000D01*
X130898742Y-93079000D01*
X130923512Y-93083927D01*
G37*
G36*
X128530604Y-93412947D02*
G01*
X128567144Y-93424032D01*
X128600821Y-93442033D01*
X128630341Y-93466259D01*
X128654567Y-93495779D01*
X128672568Y-93529456D01*
X128683653Y-93565996D01*
X128688000Y-93610138D01*
X128688000Y-94559062D01*
X128683653Y-94603204D01*
X128672568Y-94639744D01*
X128654567Y-94673421D01*
X128630341Y-94702941D01*
X128600821Y-94727167D01*
X128567144Y-94745168D01*
X128530604Y-94756253D01*
X128486462Y-94760600D01*
X127037538Y-94760600D01*
X126993396Y-94756253D01*
X126956856Y-94745168D01*
X126923179Y-94727167D01*
X126893659Y-94702941D01*
X126869433Y-94673421D01*
X126851432Y-94639744D01*
X126840347Y-94603204D01*
X126836000Y-94559062D01*
X126836000Y-93610138D01*
X126840347Y-93565996D01*
X126851432Y-93529456D01*
X126869433Y-93495779D01*
X126893659Y-93466259D01*
X126923179Y-93442033D01*
X126956856Y-93424032D01*
X126993396Y-93412947D01*
X127037538Y-93408600D01*
X128486462Y-93408600D01*
X128530604Y-93412947D01*
G37*
G36*
X124871000Y-93528000D02*
G01*
X123709000Y-93528000D01*
X123709000Y-90876000D01*
X124871000Y-90876000D01*
X124871000Y-93528000D01*
G37*
G36*
X122671000Y-93528000D02*
G01*
X121509000Y-93528000D01*
X121509000Y-92776000D01*
X122671000Y-92776000D01*
X122671000Y-93528000D01*
G37*
G36*
X119944004Y-91731447D02*
G01*
X119980544Y-91742532D01*
X120014221Y-91760533D01*
X120043741Y-91784759D01*
X120067967Y-91814279D01*
X120085968Y-91847956D01*
X120097053Y-91884496D01*
X120101400Y-91928638D01*
X120101400Y-92877562D01*
X120097053Y-92921704D01*
X120085968Y-92958244D01*
X120067967Y-92991921D01*
X120043741Y-93021441D01*
X120014221Y-93045667D01*
X119980544Y-93063668D01*
X119944004Y-93074753D01*
X119899862Y-93079100D01*
X118450938Y-93079100D01*
X118406796Y-93074753D01*
X118370256Y-93063668D01*
X118336579Y-93045667D01*
X118307059Y-93021441D01*
X118282833Y-92991921D01*
X118264832Y-92958244D01*
X118253747Y-92921704D01*
X118249400Y-92877562D01*
X118249400Y-91928638D01*
X118253747Y-91884496D01*
X118264832Y-91847956D01*
X118282833Y-91814279D01*
X118307059Y-91784759D01*
X118336579Y-91760533D01*
X118370256Y-91742532D01*
X118406796Y-91731447D01*
X118450938Y-91727100D01*
X119899862Y-91727100D01*
X119944004Y-91731447D01*
G37*
G36*
X115683512Y-90703927D02*
G01*
X115832812Y-90733624D01*
X115996784Y-90801544D01*
X116144354Y-90900147D01*
X116269853Y-91025646D01*
X116368456Y-91173216D01*
X116436376Y-91337188D01*
X116471000Y-91511259D01*
X116471000Y-91688741D01*
X116436376Y-91862812D01*
X116368456Y-92026784D01*
X116269853Y-92174354D01*
X116144354Y-92299853D01*
X115996784Y-92398456D01*
X115832812Y-92466376D01*
X115683512Y-92496073D01*
X115658742Y-92501000D01*
X115481258Y-92501000D01*
X115456488Y-92496073D01*
X115307188Y-92466376D01*
X115143216Y-92398456D01*
X114995646Y-92299853D01*
X114870147Y-92174354D01*
X114771544Y-92026784D01*
X114703624Y-91862812D01*
X114669000Y-91688741D01*
X114669000Y-91511259D01*
X114703624Y-91337188D01*
X114771544Y-91173216D01*
X114870147Y-91025646D01*
X114995646Y-90900147D01*
X115143216Y-90801544D01*
X115307188Y-90733624D01*
X115456488Y-90703927D01*
X115481258Y-90699000D01*
X115658742Y-90699000D01*
X115683512Y-90703927D01*
G37*
G36*
X130923512Y-90543927D02*
G01*
X131072812Y-90573624D01*
X131236784Y-90641544D01*
X131384354Y-90740147D01*
X131509853Y-90865646D01*
X131608456Y-91013216D01*
X131676376Y-91177188D01*
X131711000Y-91351259D01*
X131711000Y-91528741D01*
X131676376Y-91702812D01*
X131608456Y-91866784D01*
X131509853Y-92014354D01*
X131384354Y-92139853D01*
X131236784Y-92238456D01*
X131072812Y-92306376D01*
X130923512Y-92336073D01*
X130898742Y-92341000D01*
X130721258Y-92341000D01*
X130696488Y-92336073D01*
X130547188Y-92306376D01*
X130383216Y-92238456D01*
X130235646Y-92139853D01*
X130110147Y-92014354D01*
X130011544Y-91866784D01*
X129943624Y-91702812D01*
X129909000Y-91528741D01*
X129909000Y-91351259D01*
X129943624Y-91177188D01*
X130011544Y-91013216D01*
X130110147Y-90865646D01*
X130235646Y-90740147D01*
X130383216Y-90641544D01*
X130547188Y-90573624D01*
X130696488Y-90543927D01*
X130721258Y-90539000D01*
X130898742Y-90539000D01*
X130923512Y-90543927D01*
G37*
G36*
X128530604Y-90612947D02*
G01*
X128567144Y-90624032D01*
X128600821Y-90642033D01*
X128630341Y-90666259D01*
X128654567Y-90695779D01*
X128672568Y-90729456D01*
X128683653Y-90765996D01*
X128688000Y-90810138D01*
X128688000Y-91759062D01*
X128683653Y-91803204D01*
X128672568Y-91839744D01*
X128654567Y-91873421D01*
X128630341Y-91902941D01*
X128600821Y-91927167D01*
X128567144Y-91945168D01*
X128530604Y-91956253D01*
X128486462Y-91960600D01*
X127037538Y-91960600D01*
X126993396Y-91956253D01*
X126956856Y-91945168D01*
X126923179Y-91927167D01*
X126893659Y-91902941D01*
X126869433Y-91873421D01*
X126851432Y-91839744D01*
X126840347Y-91803204D01*
X126836000Y-91759062D01*
X126836000Y-90810138D01*
X126840347Y-90765996D01*
X126851432Y-90729456D01*
X126869433Y-90695779D01*
X126893659Y-90666259D01*
X126923179Y-90642033D01*
X126956856Y-90624032D01*
X126993396Y-90612947D01*
X127037538Y-90608600D01*
X128486462Y-90608600D01*
X128530604Y-90612947D01*
G37*
G36*
X122671000Y-91628000D02*
G01*
X121509000Y-91628000D01*
X121509000Y-90876000D01*
X122671000Y-90876000D01*
X122671000Y-91628000D01*
G37*
G36*
X119944004Y-88931447D02*
G01*
X119980544Y-88942532D01*
X120014221Y-88960533D01*
X120043741Y-88984759D01*
X120067967Y-89014279D01*
X120085968Y-89047956D01*
X120097053Y-89084496D01*
X120101400Y-89128638D01*
X120101400Y-90077562D01*
X120097053Y-90121704D01*
X120085968Y-90158244D01*
X120067967Y-90191921D01*
X120043741Y-90221441D01*
X120014221Y-90245667D01*
X119980544Y-90263668D01*
X119944004Y-90274753D01*
X119899862Y-90279100D01*
X118450938Y-90279100D01*
X118406796Y-90274753D01*
X118370256Y-90263668D01*
X118336579Y-90245667D01*
X118307059Y-90221441D01*
X118282833Y-90191921D01*
X118264832Y-90158244D01*
X118253747Y-90121704D01*
X118249400Y-90077562D01*
X118249400Y-89128638D01*
X118253747Y-89084496D01*
X118264832Y-89047956D01*
X118282833Y-89014279D01*
X118307059Y-88984759D01*
X118336579Y-88960533D01*
X118370256Y-88942532D01*
X118406796Y-88931447D01*
X118450938Y-88927100D01*
X119899862Y-88927100D01*
X119944004Y-88931447D01*
G37*
G36*
X115683512Y-88163927D02*
G01*
X115832812Y-88193624D01*
X115996784Y-88261544D01*
X116144354Y-88360147D01*
X116269853Y-88485646D01*
X116368456Y-88633216D01*
X116436376Y-88797188D01*
X116471000Y-88971259D01*
X116471000Y-89148741D01*
X116436376Y-89322812D01*
X116368456Y-89486784D01*
X116269853Y-89634354D01*
X116144354Y-89759853D01*
X115996784Y-89858456D01*
X115832812Y-89926376D01*
X115683512Y-89956073D01*
X115658742Y-89961000D01*
X115481258Y-89961000D01*
X115456488Y-89956073D01*
X115307188Y-89926376D01*
X115143216Y-89858456D01*
X114995646Y-89759853D01*
X114870147Y-89634354D01*
X114771544Y-89486784D01*
X114703624Y-89322812D01*
X114669000Y-89148741D01*
X114669000Y-88971259D01*
X114703624Y-88797188D01*
X114771544Y-88633216D01*
X114870147Y-88485646D01*
X114995646Y-88360147D01*
X115143216Y-88261544D01*
X115307188Y-88193624D01*
X115456488Y-88163927D01*
X115481258Y-88159000D01*
X115658742Y-88159000D01*
X115683512Y-88163927D01*
G37*
G36*
X130923512Y-88003927D02*
G01*
X131072812Y-88033624D01*
X131236784Y-88101544D01*
X131384354Y-88200147D01*
X131509853Y-88325646D01*
X131608456Y-88473216D01*
X131676376Y-88637188D01*
X131711000Y-88811259D01*
X131711000Y-88988741D01*
X131676376Y-89162812D01*
X131608456Y-89326784D01*
X131509853Y-89474354D01*
X131384354Y-89599853D01*
X131236784Y-89698456D01*
X131072812Y-89766376D01*
X130923512Y-89796073D01*
X130898742Y-89801000D01*
X130721258Y-89801000D01*
X130696488Y-89796073D01*
X130547188Y-89766376D01*
X130383216Y-89698456D01*
X130235646Y-89599853D01*
X130110147Y-89474354D01*
X130011544Y-89326784D01*
X129943624Y-89162812D01*
X129909000Y-88988741D01*
X129909000Y-88811259D01*
X129943624Y-88637188D01*
X130011544Y-88473216D01*
X130110147Y-88325646D01*
X130235646Y-88200147D01*
X130383216Y-88101544D01*
X130547188Y-88033624D01*
X130696488Y-88003927D01*
X130721258Y-87999000D01*
X130898742Y-87999000D01*
X130923512Y-88003927D01*
G37*
G36*
X127899591Y-88378085D02*
G01*
X127933569Y-88388393D01*
X127964890Y-88405134D01*
X127992339Y-88427661D01*
X128014866Y-88455110D01*
X128031607Y-88486431D01*
X128041915Y-88520409D01*
X128046000Y-88561890D01*
X128046000Y-89238110D01*
X128041915Y-89279591D01*
X128031607Y-89313569D01*
X128014866Y-89344890D01*
X127992339Y-89372339D01*
X127964890Y-89394866D01*
X127933569Y-89411607D01*
X127899591Y-89421915D01*
X127858110Y-89426000D01*
X127256890Y-89426000D01*
X127215409Y-89421915D01*
X127181431Y-89411607D01*
X127150110Y-89394866D01*
X127122661Y-89372339D01*
X127100134Y-89344890D01*
X127083393Y-89313569D01*
X127073085Y-89279591D01*
X127069000Y-89238110D01*
X127069000Y-88561890D01*
X127073085Y-88520409D01*
X127083393Y-88486431D01*
X127100134Y-88455110D01*
X127122661Y-88427661D01*
X127150110Y-88405134D01*
X127181431Y-88388393D01*
X127215409Y-88378085D01*
X127256890Y-88374000D01*
X127858110Y-88374000D01*
X127899591Y-88378085D01*
G37*
G36*
X126324591Y-88378085D02*
G01*
X126358569Y-88388393D01*
X126389890Y-88405134D01*
X126417339Y-88427661D01*
X126439866Y-88455110D01*
X126456607Y-88486431D01*
X126466915Y-88520409D01*
X126471000Y-88561890D01*
X126471000Y-89238110D01*
X126466915Y-89279591D01*
X126456607Y-89313569D01*
X126439866Y-89344890D01*
X126417339Y-89372339D01*
X126389890Y-89394866D01*
X126358569Y-89411607D01*
X126324591Y-89421915D01*
X126283110Y-89426000D01*
X125681890Y-89426000D01*
X125640409Y-89421915D01*
X125606431Y-89411607D01*
X125575110Y-89394866D01*
X125547661Y-89372339D01*
X125525134Y-89344890D01*
X125508393Y-89313569D01*
X125498085Y-89279591D01*
X125494000Y-89238110D01*
X125494000Y-88561890D01*
X125498085Y-88520409D01*
X125508393Y-88486431D01*
X125525134Y-88455110D01*
X125547661Y-88427661D01*
X125575110Y-88405134D01*
X125606431Y-88388393D01*
X125640409Y-88378085D01*
X125681890Y-88374000D01*
X126283110Y-88374000D01*
X126324591Y-88378085D01*
G37*
G36*
X122744591Y-88378085D02*
G01*
X122778569Y-88388393D01*
X122809890Y-88405134D01*
X122837339Y-88427661D01*
X122859866Y-88455110D01*
X122876607Y-88486431D01*
X122886915Y-88520409D01*
X122891000Y-88561890D01*
X122891000Y-89238110D01*
X122886915Y-89279591D01*
X122876607Y-89313569D01*
X122859866Y-89344890D01*
X122837339Y-89372339D01*
X122809890Y-89394866D01*
X122778569Y-89411607D01*
X122744591Y-89421915D01*
X122703110Y-89426000D01*
X122101890Y-89426000D01*
X122060409Y-89421915D01*
X122026431Y-89411607D01*
X121995110Y-89394866D01*
X121967661Y-89372339D01*
X121945134Y-89344890D01*
X121928393Y-89313569D01*
X121918085Y-89279591D01*
X121914000Y-89238110D01*
X121914000Y-88561890D01*
X121918085Y-88520409D01*
X121928393Y-88486431D01*
X121945134Y-88455110D01*
X121967661Y-88427661D01*
X121995110Y-88405134D01*
X122026431Y-88388393D01*
X122060409Y-88378085D01*
X122101890Y-88374000D01*
X122703110Y-88374000D01*
X122744591Y-88378085D01*
G37*
G36*
X124319591Y-88378085D02*
G01*
X124353569Y-88388393D01*
X124384890Y-88405134D01*
X124412339Y-88427661D01*
X124434866Y-88455110D01*
X124451607Y-88486431D01*
X124461915Y-88520409D01*
X124466000Y-88561890D01*
X124466000Y-89238110D01*
X124461915Y-89279591D01*
X124451607Y-89313569D01*
X124434866Y-89344890D01*
X124412339Y-89372339D01*
X124384890Y-89394866D01*
X124353569Y-89411607D01*
X124319591Y-89421915D01*
X124278110Y-89426000D01*
X123676890Y-89426000D01*
X123635409Y-89421915D01*
X123601431Y-89411607D01*
X123570110Y-89394866D01*
X123542661Y-89372339D01*
X123520134Y-89344890D01*
X123503393Y-89313569D01*
X123493085Y-89279591D01*
X123489000Y-89238110D01*
X123489000Y-88561890D01*
X123493085Y-88520409D01*
X123503393Y-88486431D01*
X123520134Y-88455110D01*
X123542661Y-88427661D01*
X123570110Y-88405134D01*
X123601431Y-88388393D01*
X123635409Y-88378085D01*
X123676890Y-88374000D01*
X124278110Y-88374000D01*
X124319591Y-88378085D01*
G37*
G36*
X134761246Y-86919912D02*
G01*
X134831183Y-86933823D01*
X134885759Y-86956429D01*
X134962942Y-86988399D01*
X135081522Y-87067632D01*
X135182368Y-87168478D01*
X135261601Y-87287058D01*
X135316177Y-87418818D01*
X135344000Y-87558691D01*
X135344000Y-87701309D01*
X135316177Y-87841182D01*
X135261601Y-87972942D01*
X135182368Y-88091522D01*
X135081522Y-88192368D01*
X134962942Y-88271601D01*
X134885759Y-88303571D01*
X134831183Y-88326177D01*
X134761246Y-88340088D01*
X134691309Y-88354000D01*
X134548691Y-88354000D01*
X134478755Y-88340089D01*
X134408817Y-88326177D01*
X134354241Y-88303571D01*
X134277058Y-88271601D01*
X134158478Y-88192368D01*
X134057632Y-88091522D01*
X133978399Y-87972942D01*
X133923823Y-87841182D01*
X133896000Y-87701309D01*
X133896000Y-87558691D01*
X133923823Y-87418818D01*
X133978399Y-87287058D01*
X134057632Y-87168478D01*
X134158478Y-87067632D01*
X134277058Y-86988399D01*
X134354241Y-86956429D01*
X134408817Y-86933823D01*
X134478754Y-86919912D01*
X134548691Y-86906000D01*
X134691309Y-86906000D01*
X134761246Y-86919912D01*
G37*
G36*
X127113512Y-85463927D02*
G01*
X127262812Y-85493624D01*
X127426784Y-85561544D01*
X127574354Y-85660147D01*
X127699853Y-85785646D01*
X127798456Y-85933216D01*
X127866376Y-86097188D01*
X127901000Y-86271259D01*
X127901000Y-86448741D01*
X127866376Y-86622812D01*
X127798456Y-86786784D01*
X127699853Y-86934354D01*
X127574354Y-87059853D01*
X127426784Y-87158456D01*
X127262812Y-87226376D01*
X127113512Y-87256073D01*
X127088742Y-87261000D01*
X126911258Y-87261000D01*
X126886488Y-87256073D01*
X126737188Y-87226376D01*
X126573216Y-87158456D01*
X126425646Y-87059853D01*
X126300147Y-86934354D01*
X126201544Y-86786784D01*
X126133624Y-86622812D01*
X126099000Y-86448741D01*
X126099000Y-86271259D01*
X126133624Y-86097188D01*
X126201544Y-85933216D01*
X126300147Y-85785646D01*
X126425646Y-85660147D01*
X126573216Y-85561544D01*
X126737188Y-85493624D01*
X126886488Y-85463927D01*
X126911258Y-85459000D01*
X127088742Y-85459000D01*
X127113512Y-85463927D01*
G37*
G36*
X116953512Y-85463927D02*
G01*
X117102812Y-85493624D01*
X117266784Y-85561544D01*
X117414354Y-85660147D01*
X117539853Y-85785646D01*
X117638456Y-85933216D01*
X117706376Y-86097188D01*
X117741000Y-86271259D01*
X117741000Y-86448741D01*
X117706376Y-86622812D01*
X117638456Y-86786784D01*
X117539853Y-86934354D01*
X117414354Y-87059853D01*
X117266784Y-87158456D01*
X117102812Y-87226376D01*
X116953512Y-87256073D01*
X116928742Y-87261000D01*
X116751258Y-87261000D01*
X116726488Y-87256073D01*
X116577188Y-87226376D01*
X116413216Y-87158456D01*
X116265646Y-87059853D01*
X116140147Y-86934354D01*
X116041544Y-86786784D01*
X115973624Y-86622812D01*
X115939000Y-86448741D01*
X115939000Y-86271259D01*
X115973624Y-86097188D01*
X116041544Y-85933216D01*
X116140147Y-85785646D01*
X116265646Y-85660147D01*
X116413216Y-85561544D01*
X116577188Y-85493624D01*
X116726488Y-85463927D01*
X116751258Y-85459000D01*
X116928742Y-85459000D01*
X116953512Y-85463927D01*
G37*
G36*
X122033512Y-85463927D02*
G01*
X122182812Y-85493624D01*
X122346784Y-85561544D01*
X122494354Y-85660147D01*
X122619853Y-85785646D01*
X122718456Y-85933216D01*
X122786376Y-86097188D01*
X122821000Y-86271259D01*
X122821000Y-86448741D01*
X122786376Y-86622812D01*
X122718456Y-86786784D01*
X122619853Y-86934354D01*
X122494354Y-87059853D01*
X122346784Y-87158456D01*
X122182812Y-87226376D01*
X122033512Y-87256073D01*
X122008742Y-87261000D01*
X121831258Y-87261000D01*
X121806488Y-87256073D01*
X121657188Y-87226376D01*
X121493216Y-87158456D01*
X121345646Y-87059853D01*
X121220147Y-86934354D01*
X121121544Y-86786784D01*
X121053624Y-86622812D01*
X121019000Y-86448741D01*
X121019000Y-86271259D01*
X121053624Y-86097188D01*
X121121544Y-85933216D01*
X121220147Y-85785646D01*
X121345646Y-85660147D01*
X121493216Y-85561544D01*
X121657188Y-85493624D01*
X121806488Y-85463927D01*
X121831258Y-85459000D01*
X122008742Y-85459000D01*
X122033512Y-85463927D01*
G37*
G36*
X124573512Y-85463927D02*
G01*
X124722812Y-85493624D01*
X124886784Y-85561544D01*
X125034354Y-85660147D01*
X125159853Y-85785646D01*
X125258456Y-85933216D01*
X125326376Y-86097188D01*
X125361000Y-86271259D01*
X125361000Y-86448741D01*
X125326376Y-86622812D01*
X125258456Y-86786784D01*
X125159853Y-86934354D01*
X125034354Y-87059853D01*
X124886784Y-87158456D01*
X124722812Y-87226376D01*
X124573512Y-87256073D01*
X124548742Y-87261000D01*
X124371258Y-87261000D01*
X124346488Y-87256073D01*
X124197188Y-87226376D01*
X124033216Y-87158456D01*
X123885646Y-87059853D01*
X123760147Y-86934354D01*
X123661544Y-86786784D01*
X123593624Y-86622812D01*
X123559000Y-86448741D01*
X123559000Y-86271259D01*
X123593624Y-86097188D01*
X123661544Y-85933216D01*
X123760147Y-85785646D01*
X123885646Y-85660147D01*
X124033216Y-85561544D01*
X124197188Y-85493624D01*
X124346488Y-85463927D01*
X124371258Y-85459000D01*
X124548742Y-85459000D01*
X124573512Y-85463927D01*
G37*
G36*
X119493512Y-85463927D02*
G01*
X119642812Y-85493624D01*
X119806784Y-85561544D01*
X119954354Y-85660147D01*
X120079853Y-85785646D01*
X120178456Y-85933216D01*
X120246376Y-86097188D01*
X120281000Y-86271259D01*
X120281000Y-86448741D01*
X120246376Y-86622812D01*
X120178456Y-86786784D01*
X120079853Y-86934354D01*
X119954354Y-87059853D01*
X119806784Y-87158456D01*
X119642812Y-87226376D01*
X119493512Y-87256073D01*
X119468742Y-87261000D01*
X119291258Y-87261000D01*
X119266488Y-87256073D01*
X119117188Y-87226376D01*
X118953216Y-87158456D01*
X118805646Y-87059853D01*
X118680147Y-86934354D01*
X118581544Y-86786784D01*
X118513624Y-86622812D01*
X118479000Y-86448741D01*
X118479000Y-86271259D01*
X118513624Y-86097188D01*
X118581544Y-85933216D01*
X118680147Y-85785646D01*
X118805646Y-85660147D01*
X118953216Y-85561544D01*
X119117188Y-85493624D01*
X119266488Y-85463927D01*
X119291258Y-85459000D01*
X119468742Y-85459000D01*
X119493512Y-85463927D01*
G37*
G36*
X129653512Y-85463927D02*
G01*
X129802812Y-85493624D01*
X129966784Y-85561544D01*
X130114354Y-85660147D01*
X130239853Y-85785646D01*
X130338456Y-85933216D01*
X130406376Y-86097188D01*
X130441000Y-86271259D01*
X130441000Y-86448741D01*
X130406376Y-86622812D01*
X130338456Y-86786784D01*
X130239853Y-86934354D01*
X130114354Y-87059853D01*
X129966784Y-87158456D01*
X129802812Y-87226376D01*
X129653512Y-87256073D01*
X129628742Y-87261000D01*
X129451258Y-87261000D01*
X129426488Y-87256073D01*
X129277188Y-87226376D01*
X129113216Y-87158456D01*
X128965646Y-87059853D01*
X128840147Y-86934354D01*
X128741544Y-86786784D01*
X128673624Y-86622812D01*
X128639000Y-86448741D01*
X128639000Y-86271259D01*
X128673624Y-86097188D01*
X128741544Y-85933216D01*
X128840147Y-85785646D01*
X128965646Y-85660147D01*
X129113216Y-85561544D01*
X129277188Y-85493624D01*
X129426488Y-85463927D01*
X129451258Y-85459000D01*
X129628742Y-85459000D01*
X129653512Y-85463927D01*
G37*
M02*
