M48
; DRILL file {KiCad 5.1.5+dfsg1-2~bpo9+1} date Sun 12 Apr 2020 01:56:56 PM CEST
; FORMAT={-:-/ absolute / metric / decimal}
; #@! TF.CreationDate,2020-04-12T13:56:56+02:00
; #@! TF.GenerationSoftware,Kicad,Pcbnew,5.1.5+dfsg1-2~bpo9+1
FMAT,2
METRIC
T1C0.300
T2C0.400
T3C1.000
%
G90
G05
T1
X115.316Y-125.476
X116.84Y-125.476
X118.364Y-125.476
X119.888Y-125.476
X121.412Y-125.476
X122.936Y-125.476
X124.46Y-125.476
X129.54Y-124.46
X130.937Y-124.46
X129.484Y-125.758
T2
X115.57Y-123.19
X117.47Y-114.804
X118.085Y-88.443
X119.812Y-110.566
X120.371Y-97.892
X120.472Y-90.907
X120.65Y-112.014
X121.793Y-101.473
X121.996Y-103.378
X122.022Y-106.883
X122.047Y-116.332
X122.758Y-107.569
X122.786Y-98.716
X123.114Y-106.502
X123.243Y-101.524
X123.826Y-110.524
X123.977Y-90.221
X124.028Y-96.469
X124.536Y-106.426
X124.689Y-102.438
X124.943Y-104.978
X124.968Y-110.795
X124.993Y-90.475
X124.993Y-103.48
X125.298Y-92.202
X125.349Y-112.649
X125.857Y-113.679
X125.869Y-117.538
X126.238Y-104.14
X126.825Y-108.836
X127.279Y-116.408
X128.549Y-89.992
X129.311Y-92.71
X130.556Y-118.847
T3
X128.27Y-108.11
X128.27Y-110.65
X115.57Y-89.06
X115.57Y-91.6
X115.57Y-94.14
X115.57Y-96.68
X115.57Y-99.22
X115.57Y-101.76
X115.57Y-104.3
X115.57Y-106.84
X115.57Y-109.38
X115.57Y-111.92
X115.57Y-114.46
X115.57Y-117.0
X128.27Y-97.95
X128.27Y-100.49
X130.81Y-88.9
X130.81Y-91.44
X130.81Y-93.98
X130.81Y-96.52
X130.81Y-99.06
X130.81Y-101.6
X130.81Y-104.14
X130.81Y-106.68
X130.81Y-109.22
X130.81Y-111.76
X130.81Y-114.3
X130.81Y-116.84
X116.84Y-86.36
X119.38Y-86.36
X121.92Y-86.36
X124.46Y-86.36
X127.0Y-86.36
X129.54Y-86.36
T0
M30
