G04 #@! TF.GenerationSoftware,KiCad,Pcbnew,5.1.6+dfsg1-1~bpo9+1*
G04 #@! TF.CreationDate,2020-06-19T12:03:56+02:00*
G04 #@! TF.ProjectId,RF-Arduino-Pro-Mini,52462d41-7264-4756-996e-6f2d50726f2d,rev?*
G04 #@! TF.SameCoordinates,Original*
G04 #@! TF.FileFunction,Legend,Bot*
G04 #@! TF.FilePolarity,Positive*
%FSLAX46Y46*%
G04 Gerber Fmt 4.6, Leading zero omitted, Abs format (unit mm)*
G04 Created by KiCad (PCBNEW 5.1.6+dfsg1-1~bpo9+1) date 2020-06-19 12:03:56*
%MOMM*%
%LPD*%
G01*
G04 APERTURE LIST*
%ADD10C,0.150000*%
%ADD11C,0.120000*%
G04 APERTURE END LIST*
D10*
X118013219Y-111054161D02*
X118489409Y-111387495D01*
X118013219Y-111625590D02*
X119013219Y-111625590D01*
X119013219Y-111244638D01*
X118965600Y-111149400D01*
X118917980Y-111101780D01*
X118822742Y-111054161D01*
X118679885Y-111054161D01*
X118584647Y-111101780D01*
X118537028Y-111149400D01*
X118489409Y-111244638D01*
X118489409Y-111625590D01*
X118537028Y-110292257D02*
X118537028Y-110625590D01*
X118013219Y-110625590D02*
X119013219Y-110625590D01*
X119013219Y-110149400D01*
X118013219Y-109006542D02*
X119013219Y-109006542D01*
X119013219Y-108625590D01*
X118965600Y-108530352D01*
X118917980Y-108482733D01*
X118822742Y-108435114D01*
X118679885Y-108435114D01*
X118584647Y-108482733D01*
X118537028Y-108530352D01*
X118489409Y-108625590D01*
X118489409Y-109006542D01*
X118013219Y-108006542D02*
X118679885Y-108006542D01*
X118489409Y-108006542D02*
X118584647Y-107958923D01*
X118632266Y-107911304D01*
X118679885Y-107816066D01*
X118679885Y-107720828D01*
X118013219Y-107244638D02*
X118060838Y-107339876D01*
X118108457Y-107387495D01*
X118203695Y-107435114D01*
X118489409Y-107435114D01*
X118584647Y-107387495D01*
X118632266Y-107339876D01*
X118679885Y-107244638D01*
X118679885Y-107101780D01*
X118632266Y-107006542D01*
X118584647Y-106958923D01*
X118489409Y-106911304D01*
X118203695Y-106911304D01*
X118108457Y-106958923D01*
X118060838Y-107006542D01*
X118013219Y-107101780D01*
X118013219Y-107244638D01*
X118013219Y-105720828D02*
X119013219Y-105720828D01*
X118298933Y-105387495D01*
X119013219Y-105054161D01*
X118013219Y-105054161D01*
X118013219Y-104577971D02*
X118679885Y-104577971D01*
X119013219Y-104577971D02*
X118965600Y-104625590D01*
X118917980Y-104577971D01*
X118965600Y-104530352D01*
X119013219Y-104577971D01*
X118917980Y-104577971D01*
X118679885Y-104101780D02*
X118013219Y-104101780D01*
X118584647Y-104101780D02*
X118632266Y-104054161D01*
X118679885Y-103958923D01*
X118679885Y-103816066D01*
X118632266Y-103720828D01*
X118537028Y-103673209D01*
X118013219Y-103673209D01*
X118013219Y-103197019D02*
X118679885Y-103197019D01*
X119013219Y-103197019D02*
X118965600Y-103244638D01*
X118917980Y-103197019D01*
X118965600Y-103149400D01*
X119013219Y-103197019D01*
X118917980Y-103197019D01*
X118013219Y-101958923D02*
X118679885Y-101958923D01*
X118489409Y-101958923D02*
X118584647Y-101911304D01*
X118632266Y-101863685D01*
X118679885Y-101768447D01*
X118679885Y-101673209D01*
X118060838Y-100958923D02*
X118013219Y-101054161D01*
X118013219Y-101244638D01*
X118060838Y-101339876D01*
X118156076Y-101387495D01*
X118537028Y-101387495D01*
X118632266Y-101339876D01*
X118679885Y-101244638D01*
X118679885Y-101054161D01*
X118632266Y-100958923D01*
X118537028Y-100911304D01*
X118441790Y-100911304D01*
X118346552Y-101387495D01*
X118679885Y-100577971D02*
X118013219Y-100339876D01*
X118679885Y-100101780D01*
X118108457Y-99720828D02*
X118060838Y-99673209D01*
X118013219Y-99720828D01*
X118060838Y-99768447D01*
X118108457Y-99720828D01*
X118013219Y-99720828D01*
X119013219Y-98292257D02*
X119013219Y-98197019D01*
X118965600Y-98101780D01*
X118917980Y-98054161D01*
X118822742Y-98006542D01*
X118632266Y-97958923D01*
X118394171Y-97958923D01*
X118203695Y-98006542D01*
X118108457Y-98054161D01*
X118060838Y-98101780D01*
X118013219Y-98197019D01*
X118013219Y-98292257D01*
X118060838Y-98387495D01*
X118108457Y-98435114D01*
X118203695Y-98482733D01*
X118394171Y-98530352D01*
X118632266Y-98530352D01*
X118822742Y-98482733D01*
X118917980Y-98435114D01*
X118965600Y-98387495D01*
X119013219Y-98292257D01*
X118917980Y-97577971D02*
X118965600Y-97530352D01*
X119013219Y-97435114D01*
X119013219Y-97197019D01*
X118965600Y-97101780D01*
X118917980Y-97054161D01*
X118822742Y-97006542D01*
X118727504Y-97006542D01*
X118584647Y-97054161D01*
X118013219Y-97625590D01*
X118013219Y-97006542D01*
X118108457Y-96577971D02*
X118060838Y-96530352D01*
X118013219Y-96577971D01*
X118060838Y-96625590D01*
X118108457Y-96577971D01*
X118013219Y-96577971D01*
X119013219Y-95911304D02*
X119013219Y-95816066D01*
X118965600Y-95720828D01*
X118917980Y-95673209D01*
X118822742Y-95625590D01*
X118632266Y-95577971D01*
X118394171Y-95577971D01*
X118203695Y-95625590D01*
X118108457Y-95673209D01*
X118060838Y-95720828D01*
X118013219Y-95816066D01*
X118013219Y-95911304D01*
X118060838Y-96006542D01*
X118108457Y-96054161D01*
X118203695Y-96101780D01*
X118394171Y-96149400D01*
X118632266Y-96149400D01*
X118822742Y-96101780D01*
X118917980Y-96054161D01*
X118965600Y-96006542D01*
X119013219Y-95911304D01*
X119013219Y-94958923D02*
X119013219Y-94863685D01*
X118965600Y-94768447D01*
X118917980Y-94720828D01*
X118822742Y-94673209D01*
X118632266Y-94625590D01*
X118394171Y-94625590D01*
X118203695Y-94673209D01*
X118108457Y-94720828D01*
X118060838Y-94768447D01*
X118013219Y-94863685D01*
X118013219Y-94958923D01*
X118060838Y-95054161D01*
X118108457Y-95101780D01*
X118203695Y-95149400D01*
X118394171Y-95197019D01*
X118632266Y-95197019D01*
X118822742Y-95149400D01*
X118917980Y-95101780D01*
X118965600Y-95054161D01*
X119013219Y-94958923D01*
D11*
X126802480Y-94282021D02*
X126802480Y-94607579D01*
X125782480Y-94282021D02*
X125782480Y-94607579D01*
X127443640Y-94287101D02*
X127443640Y-94612659D01*
X128463640Y-94287101D02*
X128463640Y-94612659D01*
M02*
