G04 #@! TF.GenerationSoftware,KiCad,Pcbnew,5.1.6+dfsg1-1~bpo9+1*
G04 #@! TF.CreationDate,2020-06-19T12:03:56+02:00*
G04 #@! TF.ProjectId,RF-Arduino-Pro-Mini,52462d41-7264-4756-996e-6f2d50726f2d,rev?*
G04 #@! TF.SameCoordinates,Original*
G04 #@! TF.FileFunction,Soldermask,Bot*
G04 #@! TF.FilePolarity,Negative*
%FSLAX46Y46*%
G04 Gerber Fmt 4.6, Leading zero omitted, Abs format (unit mm)*
G04 Created by KiCad (PCBNEW 5.1.6+dfsg1-1~bpo9+1) date 2020-06-19 12:03:56*
%MOMM*%
%LPD*%
G01*
G04 APERTURE LIST*
%ADD10C,0.100000*%
G04 APERTURE END LIST*
D10*
G36*
X130951246Y-125019912D02*
G01*
X131021183Y-125033823D01*
X131075759Y-125056429D01*
X131152942Y-125088399D01*
X131271522Y-125167632D01*
X131372368Y-125268478D01*
X131451601Y-125387058D01*
X131506177Y-125518818D01*
X131534000Y-125658691D01*
X131534000Y-125801309D01*
X131506177Y-125941182D01*
X131451601Y-126072942D01*
X131372368Y-126191522D01*
X131271522Y-126292368D01*
X131152942Y-126371601D01*
X131075759Y-126403571D01*
X131021183Y-126426177D01*
X130951246Y-126440088D01*
X130881309Y-126454000D01*
X130738691Y-126454000D01*
X130668754Y-126440088D01*
X130598817Y-126426177D01*
X130544241Y-126403571D01*
X130467058Y-126371601D01*
X130348478Y-126292368D01*
X130247632Y-126191522D01*
X130168399Y-126072942D01*
X130113823Y-125941182D01*
X130086000Y-125801309D01*
X130086000Y-125658691D01*
X130113823Y-125518818D01*
X130168399Y-125387058D01*
X130247632Y-125268478D01*
X130348478Y-125167632D01*
X130467058Y-125088399D01*
X130544241Y-125056429D01*
X130598817Y-125033823D01*
X130668754Y-125019912D01*
X130738691Y-125006000D01*
X130881309Y-125006000D01*
X130951246Y-125019912D01*
G37*
G36*
X115711246Y-125019912D02*
G01*
X115781183Y-125033823D01*
X115835759Y-125056429D01*
X115912942Y-125088399D01*
X116031522Y-125167632D01*
X116132368Y-125268478D01*
X116211601Y-125387058D01*
X116266177Y-125518818D01*
X116294000Y-125658691D01*
X116294000Y-125801309D01*
X116266177Y-125941182D01*
X116211601Y-126072942D01*
X116132368Y-126191522D01*
X116031522Y-126292368D01*
X115912942Y-126371601D01*
X115835759Y-126403571D01*
X115781183Y-126426177D01*
X115711246Y-126440088D01*
X115641309Y-126454000D01*
X115498691Y-126454000D01*
X115428754Y-126440088D01*
X115358817Y-126426177D01*
X115304241Y-126403571D01*
X115227058Y-126371601D01*
X115108478Y-126292368D01*
X115007632Y-126191522D01*
X114928399Y-126072942D01*
X114873823Y-125941182D01*
X114846000Y-125801309D01*
X114846000Y-125658691D01*
X114873823Y-125518818D01*
X114928399Y-125387058D01*
X115007632Y-125268478D01*
X115108478Y-125167632D01*
X115227058Y-125088399D01*
X115304241Y-125056429D01*
X115358817Y-125033823D01*
X115428754Y-125019912D01*
X115498691Y-125006000D01*
X115641309Y-125006000D01*
X115711246Y-125019912D01*
G37*
G36*
X115683512Y-116103927D02*
G01*
X115832812Y-116133624D01*
X115996784Y-116201544D01*
X116144354Y-116300147D01*
X116269853Y-116425646D01*
X116368456Y-116573216D01*
X116436376Y-116737188D01*
X116471000Y-116911259D01*
X116471000Y-117088741D01*
X116436376Y-117262812D01*
X116368456Y-117426784D01*
X116269853Y-117574354D01*
X116144354Y-117699853D01*
X115996784Y-117798456D01*
X115832812Y-117866376D01*
X115683512Y-117896073D01*
X115658742Y-117901000D01*
X115481258Y-117901000D01*
X115456488Y-117896073D01*
X115307188Y-117866376D01*
X115143216Y-117798456D01*
X114995646Y-117699853D01*
X114870147Y-117574354D01*
X114771544Y-117426784D01*
X114703624Y-117262812D01*
X114669000Y-117088741D01*
X114669000Y-116911259D01*
X114703624Y-116737188D01*
X114771544Y-116573216D01*
X114870147Y-116425646D01*
X114995646Y-116300147D01*
X115143216Y-116201544D01*
X115307188Y-116133624D01*
X115456488Y-116103927D01*
X115481258Y-116099000D01*
X115658742Y-116099000D01*
X115683512Y-116103927D01*
G37*
G36*
X130923512Y-115943927D02*
G01*
X131072812Y-115973624D01*
X131236784Y-116041544D01*
X131384354Y-116140147D01*
X131509853Y-116265646D01*
X131608456Y-116413216D01*
X131676376Y-116577188D01*
X131711000Y-116751259D01*
X131711000Y-116928741D01*
X131676376Y-117102812D01*
X131608456Y-117266784D01*
X131509853Y-117414354D01*
X131384354Y-117539853D01*
X131236784Y-117638456D01*
X131072812Y-117706376D01*
X130923512Y-117736073D01*
X130898742Y-117741000D01*
X130721258Y-117741000D01*
X130696488Y-117736073D01*
X130547188Y-117706376D01*
X130383216Y-117638456D01*
X130235646Y-117539853D01*
X130110147Y-117414354D01*
X130011544Y-117266784D01*
X129943624Y-117102812D01*
X129909000Y-116928741D01*
X129909000Y-116751259D01*
X129943624Y-116577188D01*
X130011544Y-116413216D01*
X130110147Y-116265646D01*
X130235646Y-116140147D01*
X130383216Y-116041544D01*
X130547188Y-115973624D01*
X130696488Y-115943927D01*
X130721258Y-115939000D01*
X130898742Y-115939000D01*
X130923512Y-115943927D01*
G37*
G36*
X115683512Y-113563927D02*
G01*
X115832812Y-113593624D01*
X115996784Y-113661544D01*
X116144354Y-113760147D01*
X116269853Y-113885646D01*
X116368456Y-114033216D01*
X116436376Y-114197188D01*
X116471000Y-114371259D01*
X116471000Y-114548741D01*
X116436376Y-114722812D01*
X116368456Y-114886784D01*
X116269853Y-115034354D01*
X116144354Y-115159853D01*
X115996784Y-115258456D01*
X115832812Y-115326376D01*
X115683512Y-115356073D01*
X115658742Y-115361000D01*
X115481258Y-115361000D01*
X115456488Y-115356073D01*
X115307188Y-115326376D01*
X115143216Y-115258456D01*
X114995646Y-115159853D01*
X114870147Y-115034354D01*
X114771544Y-114886784D01*
X114703624Y-114722812D01*
X114669000Y-114548741D01*
X114669000Y-114371259D01*
X114703624Y-114197188D01*
X114771544Y-114033216D01*
X114870147Y-113885646D01*
X114995646Y-113760147D01*
X115143216Y-113661544D01*
X115307188Y-113593624D01*
X115456488Y-113563927D01*
X115481258Y-113559000D01*
X115658742Y-113559000D01*
X115683512Y-113563927D01*
G37*
G36*
X130923512Y-113403927D02*
G01*
X131072812Y-113433624D01*
X131236784Y-113501544D01*
X131384354Y-113600147D01*
X131509853Y-113725646D01*
X131608456Y-113873216D01*
X131676376Y-114037188D01*
X131711000Y-114211259D01*
X131711000Y-114388741D01*
X131676376Y-114562812D01*
X131608456Y-114726784D01*
X131509853Y-114874354D01*
X131384354Y-114999853D01*
X131236784Y-115098456D01*
X131072812Y-115166376D01*
X130923512Y-115196073D01*
X130898742Y-115201000D01*
X130721258Y-115201000D01*
X130696488Y-115196073D01*
X130547188Y-115166376D01*
X130383216Y-115098456D01*
X130235646Y-114999853D01*
X130110147Y-114874354D01*
X130011544Y-114726784D01*
X129943624Y-114562812D01*
X129909000Y-114388741D01*
X129909000Y-114211259D01*
X129943624Y-114037188D01*
X130011544Y-113873216D01*
X130110147Y-113725646D01*
X130235646Y-113600147D01*
X130383216Y-113501544D01*
X130547188Y-113433624D01*
X130696488Y-113403927D01*
X130721258Y-113399000D01*
X130898742Y-113399000D01*
X130923512Y-113403927D01*
G37*
G36*
X115683512Y-111023927D02*
G01*
X115832812Y-111053624D01*
X115996784Y-111121544D01*
X116144354Y-111220147D01*
X116269853Y-111345646D01*
X116368456Y-111493216D01*
X116436376Y-111657188D01*
X116471000Y-111831259D01*
X116471000Y-112008741D01*
X116436376Y-112182812D01*
X116368456Y-112346784D01*
X116269853Y-112494354D01*
X116144354Y-112619853D01*
X115996784Y-112718456D01*
X115832812Y-112786376D01*
X115683512Y-112816073D01*
X115658742Y-112821000D01*
X115481258Y-112821000D01*
X115456488Y-112816073D01*
X115307188Y-112786376D01*
X115143216Y-112718456D01*
X114995646Y-112619853D01*
X114870147Y-112494354D01*
X114771544Y-112346784D01*
X114703624Y-112182812D01*
X114669000Y-112008741D01*
X114669000Y-111831259D01*
X114703624Y-111657188D01*
X114771544Y-111493216D01*
X114870147Y-111345646D01*
X114995646Y-111220147D01*
X115143216Y-111121544D01*
X115307188Y-111053624D01*
X115456488Y-111023927D01*
X115481258Y-111019000D01*
X115658742Y-111019000D01*
X115683512Y-111023927D01*
G37*
G36*
X130923512Y-110863927D02*
G01*
X131072812Y-110893624D01*
X131236784Y-110961544D01*
X131384354Y-111060147D01*
X131509853Y-111185646D01*
X131608456Y-111333216D01*
X131676376Y-111497188D01*
X131711000Y-111671259D01*
X131711000Y-111848741D01*
X131676376Y-112022812D01*
X131608456Y-112186784D01*
X131509853Y-112334354D01*
X131384354Y-112459853D01*
X131236784Y-112558456D01*
X131072812Y-112626376D01*
X130923512Y-112656073D01*
X130898742Y-112661000D01*
X130721258Y-112661000D01*
X130696488Y-112656073D01*
X130547188Y-112626376D01*
X130383216Y-112558456D01*
X130235646Y-112459853D01*
X130110147Y-112334354D01*
X130011544Y-112186784D01*
X129943624Y-112022812D01*
X129909000Y-111848741D01*
X129909000Y-111671259D01*
X129943624Y-111497188D01*
X130011544Y-111333216D01*
X130110147Y-111185646D01*
X130235646Y-111060147D01*
X130383216Y-110961544D01*
X130547188Y-110893624D01*
X130696488Y-110863927D01*
X130721258Y-110859000D01*
X130898742Y-110859000D01*
X130923512Y-110863927D01*
G37*
G36*
X128383512Y-109753927D02*
G01*
X128532812Y-109783624D01*
X128696784Y-109851544D01*
X128844354Y-109950147D01*
X128969853Y-110075646D01*
X129068456Y-110223216D01*
X129136376Y-110387188D01*
X129171000Y-110561259D01*
X129171000Y-110738741D01*
X129136376Y-110912812D01*
X129068456Y-111076784D01*
X128969853Y-111224354D01*
X128844354Y-111349853D01*
X128696784Y-111448456D01*
X128532812Y-111516376D01*
X128383512Y-111546073D01*
X128358742Y-111551000D01*
X128181258Y-111551000D01*
X128156488Y-111546073D01*
X128007188Y-111516376D01*
X127843216Y-111448456D01*
X127695646Y-111349853D01*
X127570147Y-111224354D01*
X127471544Y-111076784D01*
X127403624Y-110912812D01*
X127369000Y-110738741D01*
X127369000Y-110561259D01*
X127403624Y-110387188D01*
X127471544Y-110223216D01*
X127570147Y-110075646D01*
X127695646Y-109950147D01*
X127843216Y-109851544D01*
X128007188Y-109783624D01*
X128156488Y-109753927D01*
X128181258Y-109749000D01*
X128358742Y-109749000D01*
X128383512Y-109753927D01*
G37*
G36*
X115683512Y-108483927D02*
G01*
X115832812Y-108513624D01*
X115996784Y-108581544D01*
X116144354Y-108680147D01*
X116269853Y-108805646D01*
X116368456Y-108953216D01*
X116436376Y-109117188D01*
X116471000Y-109291259D01*
X116471000Y-109468741D01*
X116436376Y-109642812D01*
X116368456Y-109806784D01*
X116269853Y-109954354D01*
X116144354Y-110079853D01*
X115996784Y-110178456D01*
X115832812Y-110246376D01*
X115683512Y-110276073D01*
X115658742Y-110281000D01*
X115481258Y-110281000D01*
X115456488Y-110276073D01*
X115307188Y-110246376D01*
X115143216Y-110178456D01*
X114995646Y-110079853D01*
X114870147Y-109954354D01*
X114771544Y-109806784D01*
X114703624Y-109642812D01*
X114669000Y-109468741D01*
X114669000Y-109291259D01*
X114703624Y-109117188D01*
X114771544Y-108953216D01*
X114870147Y-108805646D01*
X114995646Y-108680147D01*
X115143216Y-108581544D01*
X115307188Y-108513624D01*
X115456488Y-108483927D01*
X115481258Y-108479000D01*
X115658742Y-108479000D01*
X115683512Y-108483927D01*
G37*
G36*
X130923512Y-108323927D02*
G01*
X131072812Y-108353624D01*
X131236784Y-108421544D01*
X131384354Y-108520147D01*
X131509853Y-108645646D01*
X131608456Y-108793216D01*
X131676376Y-108957188D01*
X131711000Y-109131259D01*
X131711000Y-109308741D01*
X131676376Y-109482812D01*
X131608456Y-109646784D01*
X131509853Y-109794354D01*
X131384354Y-109919853D01*
X131236784Y-110018456D01*
X131072812Y-110086376D01*
X130923512Y-110116073D01*
X130898742Y-110121000D01*
X130721258Y-110121000D01*
X130696488Y-110116073D01*
X130547188Y-110086376D01*
X130383216Y-110018456D01*
X130235646Y-109919853D01*
X130110147Y-109794354D01*
X130011544Y-109646784D01*
X129943624Y-109482812D01*
X129909000Y-109308741D01*
X129909000Y-109131259D01*
X129943624Y-108957188D01*
X130011544Y-108793216D01*
X130110147Y-108645646D01*
X130235646Y-108520147D01*
X130383216Y-108421544D01*
X130547188Y-108353624D01*
X130696488Y-108323927D01*
X130721258Y-108319000D01*
X130898742Y-108319000D01*
X130923512Y-108323927D01*
G37*
G36*
X128383512Y-107213927D02*
G01*
X128532812Y-107243624D01*
X128696784Y-107311544D01*
X128844354Y-107410147D01*
X128969853Y-107535646D01*
X129068456Y-107683216D01*
X129136376Y-107847188D01*
X129171000Y-108021259D01*
X129171000Y-108198741D01*
X129136376Y-108372812D01*
X129068456Y-108536784D01*
X128969853Y-108684354D01*
X128844354Y-108809853D01*
X128696784Y-108908456D01*
X128532812Y-108976376D01*
X128383512Y-109006073D01*
X128358742Y-109011000D01*
X128181258Y-109011000D01*
X128156488Y-109006073D01*
X128007188Y-108976376D01*
X127843216Y-108908456D01*
X127695646Y-108809853D01*
X127570147Y-108684354D01*
X127471544Y-108536784D01*
X127403624Y-108372812D01*
X127369000Y-108198741D01*
X127369000Y-108021259D01*
X127403624Y-107847188D01*
X127471544Y-107683216D01*
X127570147Y-107535646D01*
X127695646Y-107410147D01*
X127843216Y-107311544D01*
X128007188Y-107243624D01*
X128156488Y-107213927D01*
X128181258Y-107209000D01*
X128358742Y-107209000D01*
X128383512Y-107213927D01*
G37*
G36*
X115683512Y-105943927D02*
G01*
X115832812Y-105973624D01*
X115996784Y-106041544D01*
X116144354Y-106140147D01*
X116269853Y-106265646D01*
X116368456Y-106413216D01*
X116436376Y-106577188D01*
X116471000Y-106751259D01*
X116471000Y-106928741D01*
X116436376Y-107102812D01*
X116368456Y-107266784D01*
X116269853Y-107414354D01*
X116144354Y-107539853D01*
X115996784Y-107638456D01*
X115832812Y-107706376D01*
X115683512Y-107736073D01*
X115658742Y-107741000D01*
X115481258Y-107741000D01*
X115456488Y-107736073D01*
X115307188Y-107706376D01*
X115143216Y-107638456D01*
X114995646Y-107539853D01*
X114870147Y-107414354D01*
X114771544Y-107266784D01*
X114703624Y-107102812D01*
X114669000Y-106928741D01*
X114669000Y-106751259D01*
X114703624Y-106577188D01*
X114771544Y-106413216D01*
X114870147Y-106265646D01*
X114995646Y-106140147D01*
X115143216Y-106041544D01*
X115307188Y-105973624D01*
X115456488Y-105943927D01*
X115481258Y-105939000D01*
X115658742Y-105939000D01*
X115683512Y-105943927D01*
G37*
G36*
X130923512Y-105783927D02*
G01*
X131072812Y-105813624D01*
X131236784Y-105881544D01*
X131384354Y-105980147D01*
X131509853Y-106105646D01*
X131608456Y-106253216D01*
X131676376Y-106417188D01*
X131711000Y-106591259D01*
X131711000Y-106768741D01*
X131676376Y-106942812D01*
X131608456Y-107106784D01*
X131509853Y-107254354D01*
X131384354Y-107379853D01*
X131236784Y-107478456D01*
X131072812Y-107546376D01*
X130923512Y-107576073D01*
X130898742Y-107581000D01*
X130721258Y-107581000D01*
X130696488Y-107576073D01*
X130547188Y-107546376D01*
X130383216Y-107478456D01*
X130235646Y-107379853D01*
X130110147Y-107254354D01*
X130011544Y-107106784D01*
X129943624Y-106942812D01*
X129909000Y-106768741D01*
X129909000Y-106591259D01*
X129943624Y-106417188D01*
X130011544Y-106253216D01*
X130110147Y-106105646D01*
X130235646Y-105980147D01*
X130383216Y-105881544D01*
X130547188Y-105813624D01*
X130696488Y-105783927D01*
X130721258Y-105779000D01*
X130898742Y-105779000D01*
X130923512Y-105783927D01*
G37*
G36*
X115683512Y-103403927D02*
G01*
X115832812Y-103433624D01*
X115996784Y-103501544D01*
X116144354Y-103600147D01*
X116269853Y-103725646D01*
X116368456Y-103873216D01*
X116436376Y-104037188D01*
X116471000Y-104211259D01*
X116471000Y-104388741D01*
X116436376Y-104562812D01*
X116368456Y-104726784D01*
X116269853Y-104874354D01*
X116144354Y-104999853D01*
X115996784Y-105098456D01*
X115832812Y-105166376D01*
X115683512Y-105196073D01*
X115658742Y-105201000D01*
X115481258Y-105201000D01*
X115456488Y-105196073D01*
X115307188Y-105166376D01*
X115143216Y-105098456D01*
X114995646Y-104999853D01*
X114870147Y-104874354D01*
X114771544Y-104726784D01*
X114703624Y-104562812D01*
X114669000Y-104388741D01*
X114669000Y-104211259D01*
X114703624Y-104037188D01*
X114771544Y-103873216D01*
X114870147Y-103725646D01*
X114995646Y-103600147D01*
X115143216Y-103501544D01*
X115307188Y-103433624D01*
X115456488Y-103403927D01*
X115481258Y-103399000D01*
X115658742Y-103399000D01*
X115683512Y-103403927D01*
G37*
G36*
X130923512Y-103243927D02*
G01*
X131072812Y-103273624D01*
X131236784Y-103341544D01*
X131384354Y-103440147D01*
X131509853Y-103565646D01*
X131608456Y-103713216D01*
X131676376Y-103877188D01*
X131711000Y-104051259D01*
X131711000Y-104228741D01*
X131676376Y-104402812D01*
X131608456Y-104566784D01*
X131509853Y-104714354D01*
X131384354Y-104839853D01*
X131236784Y-104938456D01*
X131072812Y-105006376D01*
X130923512Y-105036073D01*
X130898742Y-105041000D01*
X130721258Y-105041000D01*
X130696488Y-105036073D01*
X130547188Y-105006376D01*
X130383216Y-104938456D01*
X130235646Y-104839853D01*
X130110147Y-104714354D01*
X130011544Y-104566784D01*
X129943624Y-104402812D01*
X129909000Y-104228741D01*
X129909000Y-104051259D01*
X129943624Y-103877188D01*
X130011544Y-103713216D01*
X130110147Y-103565646D01*
X130235646Y-103440147D01*
X130383216Y-103341544D01*
X130547188Y-103273624D01*
X130696488Y-103243927D01*
X130721258Y-103239000D01*
X130898742Y-103239000D01*
X130923512Y-103243927D01*
G37*
G36*
X115683512Y-100863927D02*
G01*
X115832812Y-100893624D01*
X115996784Y-100961544D01*
X116144354Y-101060147D01*
X116269853Y-101185646D01*
X116368456Y-101333216D01*
X116436376Y-101497188D01*
X116471000Y-101671259D01*
X116471000Y-101848741D01*
X116436376Y-102022812D01*
X116368456Y-102186784D01*
X116269853Y-102334354D01*
X116144354Y-102459853D01*
X115996784Y-102558456D01*
X115832812Y-102626376D01*
X115683512Y-102656073D01*
X115658742Y-102661000D01*
X115481258Y-102661000D01*
X115456488Y-102656073D01*
X115307188Y-102626376D01*
X115143216Y-102558456D01*
X114995646Y-102459853D01*
X114870147Y-102334354D01*
X114771544Y-102186784D01*
X114703624Y-102022812D01*
X114669000Y-101848741D01*
X114669000Y-101671259D01*
X114703624Y-101497188D01*
X114771544Y-101333216D01*
X114870147Y-101185646D01*
X114995646Y-101060147D01*
X115143216Y-100961544D01*
X115307188Y-100893624D01*
X115456488Y-100863927D01*
X115481258Y-100859000D01*
X115658742Y-100859000D01*
X115683512Y-100863927D01*
G37*
G36*
X130923512Y-100703927D02*
G01*
X131072812Y-100733624D01*
X131236784Y-100801544D01*
X131384354Y-100900147D01*
X131509853Y-101025646D01*
X131608456Y-101173216D01*
X131676376Y-101337188D01*
X131711000Y-101511259D01*
X131711000Y-101688741D01*
X131676376Y-101862812D01*
X131608456Y-102026784D01*
X131509853Y-102174354D01*
X131384354Y-102299853D01*
X131236784Y-102398456D01*
X131072812Y-102466376D01*
X130923512Y-102496073D01*
X130898742Y-102501000D01*
X130721258Y-102501000D01*
X130696488Y-102496073D01*
X130547188Y-102466376D01*
X130383216Y-102398456D01*
X130235646Y-102299853D01*
X130110147Y-102174354D01*
X130011544Y-102026784D01*
X129943624Y-101862812D01*
X129909000Y-101688741D01*
X129909000Y-101511259D01*
X129943624Y-101337188D01*
X130011544Y-101173216D01*
X130110147Y-101025646D01*
X130235646Y-100900147D01*
X130383216Y-100801544D01*
X130547188Y-100733624D01*
X130696488Y-100703927D01*
X130721258Y-100699000D01*
X130898742Y-100699000D01*
X130923512Y-100703927D01*
G37*
G36*
X128383512Y-99593927D02*
G01*
X128532812Y-99623624D01*
X128696784Y-99691544D01*
X128844354Y-99790147D01*
X128969853Y-99915646D01*
X129068456Y-100063216D01*
X129136376Y-100227188D01*
X129171000Y-100401259D01*
X129171000Y-100578741D01*
X129136376Y-100752812D01*
X129068456Y-100916784D01*
X128969853Y-101064354D01*
X128844354Y-101189853D01*
X128696784Y-101288456D01*
X128532812Y-101356376D01*
X128383512Y-101386073D01*
X128358742Y-101391000D01*
X128181258Y-101391000D01*
X128156488Y-101386073D01*
X128007188Y-101356376D01*
X127843216Y-101288456D01*
X127695646Y-101189853D01*
X127570147Y-101064354D01*
X127471544Y-100916784D01*
X127403624Y-100752812D01*
X127369000Y-100578741D01*
X127369000Y-100401259D01*
X127403624Y-100227188D01*
X127471544Y-100063216D01*
X127570147Y-99915646D01*
X127695646Y-99790147D01*
X127843216Y-99691544D01*
X128007188Y-99623624D01*
X128156488Y-99593927D01*
X128181258Y-99589000D01*
X128358742Y-99589000D01*
X128383512Y-99593927D01*
G37*
G36*
X115683512Y-98323927D02*
G01*
X115832812Y-98353624D01*
X115996784Y-98421544D01*
X116144354Y-98520147D01*
X116269853Y-98645646D01*
X116368456Y-98793216D01*
X116436376Y-98957188D01*
X116471000Y-99131259D01*
X116471000Y-99308741D01*
X116436376Y-99482812D01*
X116368456Y-99646784D01*
X116269853Y-99794354D01*
X116144354Y-99919853D01*
X115996784Y-100018456D01*
X115832812Y-100086376D01*
X115683512Y-100116073D01*
X115658742Y-100121000D01*
X115481258Y-100121000D01*
X115456488Y-100116073D01*
X115307188Y-100086376D01*
X115143216Y-100018456D01*
X114995646Y-99919853D01*
X114870147Y-99794354D01*
X114771544Y-99646784D01*
X114703624Y-99482812D01*
X114669000Y-99308741D01*
X114669000Y-99131259D01*
X114703624Y-98957188D01*
X114771544Y-98793216D01*
X114870147Y-98645646D01*
X114995646Y-98520147D01*
X115143216Y-98421544D01*
X115307188Y-98353624D01*
X115456488Y-98323927D01*
X115481258Y-98319000D01*
X115658742Y-98319000D01*
X115683512Y-98323927D01*
G37*
G36*
X130923512Y-98163927D02*
G01*
X131072812Y-98193624D01*
X131236784Y-98261544D01*
X131384354Y-98360147D01*
X131509853Y-98485646D01*
X131608456Y-98633216D01*
X131676376Y-98797188D01*
X131711000Y-98971259D01*
X131711000Y-99148741D01*
X131676376Y-99322812D01*
X131608456Y-99486784D01*
X131509853Y-99634354D01*
X131384354Y-99759853D01*
X131236784Y-99858456D01*
X131072812Y-99926376D01*
X130923512Y-99956073D01*
X130898742Y-99961000D01*
X130721258Y-99961000D01*
X130696488Y-99956073D01*
X130547188Y-99926376D01*
X130383216Y-99858456D01*
X130235646Y-99759853D01*
X130110147Y-99634354D01*
X130011544Y-99486784D01*
X129943624Y-99322812D01*
X129909000Y-99148741D01*
X129909000Y-98971259D01*
X129943624Y-98797188D01*
X130011544Y-98633216D01*
X130110147Y-98485646D01*
X130235646Y-98360147D01*
X130383216Y-98261544D01*
X130547188Y-98193624D01*
X130696488Y-98163927D01*
X130721258Y-98159000D01*
X130898742Y-98159000D01*
X130923512Y-98163927D01*
G37*
G36*
X128383512Y-97053927D02*
G01*
X128532812Y-97083624D01*
X128696784Y-97151544D01*
X128844354Y-97250147D01*
X128969853Y-97375646D01*
X129068456Y-97523216D01*
X129136376Y-97687188D01*
X129171000Y-97861259D01*
X129171000Y-98038741D01*
X129136376Y-98212812D01*
X129068456Y-98376784D01*
X128969853Y-98524354D01*
X128844354Y-98649853D01*
X128696784Y-98748456D01*
X128532812Y-98816376D01*
X128383512Y-98846073D01*
X128358742Y-98851000D01*
X128181258Y-98851000D01*
X128156488Y-98846073D01*
X128007188Y-98816376D01*
X127843216Y-98748456D01*
X127695646Y-98649853D01*
X127570147Y-98524354D01*
X127471544Y-98376784D01*
X127403624Y-98212812D01*
X127369000Y-98038741D01*
X127369000Y-97861259D01*
X127403624Y-97687188D01*
X127471544Y-97523216D01*
X127570147Y-97375646D01*
X127695646Y-97250147D01*
X127843216Y-97151544D01*
X128007188Y-97083624D01*
X128156488Y-97053927D01*
X128181258Y-97049000D01*
X128358742Y-97049000D01*
X128383512Y-97053927D01*
G37*
G36*
X115683512Y-95783927D02*
G01*
X115832812Y-95813624D01*
X115996784Y-95881544D01*
X116144354Y-95980147D01*
X116269853Y-96105646D01*
X116368456Y-96253216D01*
X116436376Y-96417188D01*
X116471000Y-96591259D01*
X116471000Y-96768741D01*
X116436376Y-96942812D01*
X116368456Y-97106784D01*
X116269853Y-97254354D01*
X116144354Y-97379853D01*
X115996784Y-97478456D01*
X115832812Y-97546376D01*
X115683512Y-97576073D01*
X115658742Y-97581000D01*
X115481258Y-97581000D01*
X115456488Y-97576073D01*
X115307188Y-97546376D01*
X115143216Y-97478456D01*
X114995646Y-97379853D01*
X114870147Y-97254354D01*
X114771544Y-97106784D01*
X114703624Y-96942812D01*
X114669000Y-96768741D01*
X114669000Y-96591259D01*
X114703624Y-96417188D01*
X114771544Y-96253216D01*
X114870147Y-96105646D01*
X114995646Y-95980147D01*
X115143216Y-95881544D01*
X115307188Y-95813624D01*
X115456488Y-95783927D01*
X115481258Y-95779000D01*
X115658742Y-95779000D01*
X115683512Y-95783927D01*
G37*
G36*
X130923512Y-95623927D02*
G01*
X131072812Y-95653624D01*
X131236784Y-95721544D01*
X131384354Y-95820147D01*
X131509853Y-95945646D01*
X131608456Y-96093216D01*
X131676376Y-96257188D01*
X131711000Y-96431259D01*
X131711000Y-96608741D01*
X131676376Y-96782812D01*
X131608456Y-96946784D01*
X131509853Y-97094354D01*
X131384354Y-97219853D01*
X131236784Y-97318456D01*
X131072812Y-97386376D01*
X130923512Y-97416073D01*
X130898742Y-97421000D01*
X130721258Y-97421000D01*
X130696488Y-97416073D01*
X130547188Y-97386376D01*
X130383216Y-97318456D01*
X130235646Y-97219853D01*
X130110147Y-97094354D01*
X130011544Y-96946784D01*
X129943624Y-96782812D01*
X129909000Y-96608741D01*
X129909000Y-96431259D01*
X129943624Y-96257188D01*
X130011544Y-96093216D01*
X130110147Y-95945646D01*
X130235646Y-95820147D01*
X130383216Y-95721544D01*
X130547188Y-95653624D01*
X130696488Y-95623927D01*
X130721258Y-95619000D01*
X130898742Y-95619000D01*
X130923512Y-95623927D01*
G37*
G36*
X128333231Y-94752965D02*
G01*
X128367209Y-94763273D01*
X128398530Y-94780014D01*
X128425979Y-94802541D01*
X128448506Y-94829990D01*
X128465247Y-94861311D01*
X128475555Y-94895289D01*
X128479640Y-94936770D01*
X128479640Y-95537990D01*
X128475555Y-95579471D01*
X128465247Y-95613449D01*
X128448506Y-95644770D01*
X128425979Y-95672219D01*
X128398530Y-95694746D01*
X128367209Y-95711487D01*
X128333231Y-95721795D01*
X128291750Y-95725880D01*
X127615530Y-95725880D01*
X127574049Y-95721795D01*
X127540071Y-95711487D01*
X127508750Y-95694746D01*
X127481301Y-95672219D01*
X127458774Y-95644770D01*
X127442033Y-95613449D01*
X127431725Y-95579471D01*
X127427640Y-95537990D01*
X127427640Y-94936770D01*
X127431725Y-94895289D01*
X127442033Y-94861311D01*
X127458774Y-94829990D01*
X127481301Y-94802541D01*
X127508750Y-94780014D01*
X127540071Y-94763273D01*
X127574049Y-94752965D01*
X127615530Y-94748880D01*
X128291750Y-94748880D01*
X128333231Y-94752965D01*
G37*
G36*
X126672071Y-94747885D02*
G01*
X126706049Y-94758193D01*
X126737370Y-94774934D01*
X126764819Y-94797461D01*
X126787346Y-94824910D01*
X126804087Y-94856231D01*
X126814395Y-94890209D01*
X126818480Y-94931690D01*
X126818480Y-95532910D01*
X126814395Y-95574391D01*
X126804087Y-95608369D01*
X126787346Y-95639690D01*
X126764819Y-95667139D01*
X126737370Y-95689666D01*
X126706049Y-95706407D01*
X126672071Y-95716715D01*
X126630590Y-95720800D01*
X125954370Y-95720800D01*
X125912889Y-95716715D01*
X125878911Y-95706407D01*
X125847590Y-95689666D01*
X125820141Y-95667139D01*
X125797614Y-95639690D01*
X125780873Y-95608369D01*
X125770565Y-95574391D01*
X125766480Y-95532910D01*
X125766480Y-94931690D01*
X125770565Y-94890209D01*
X125780873Y-94856231D01*
X125797614Y-94824910D01*
X125820141Y-94797461D01*
X125847590Y-94774934D01*
X125878911Y-94758193D01*
X125912889Y-94747885D01*
X125954370Y-94743800D01*
X126630590Y-94743800D01*
X126672071Y-94747885D01*
G37*
G36*
X115683512Y-93243927D02*
G01*
X115832812Y-93273624D01*
X115996784Y-93341544D01*
X116144354Y-93440147D01*
X116269853Y-93565646D01*
X116368456Y-93713216D01*
X116436376Y-93877188D01*
X116471000Y-94051259D01*
X116471000Y-94228741D01*
X116436376Y-94402812D01*
X116368456Y-94566784D01*
X116269853Y-94714354D01*
X116144354Y-94839853D01*
X115996784Y-94938456D01*
X115832812Y-95006376D01*
X115683512Y-95036073D01*
X115658742Y-95041000D01*
X115481258Y-95041000D01*
X115456488Y-95036073D01*
X115307188Y-95006376D01*
X115143216Y-94938456D01*
X114995646Y-94839853D01*
X114870147Y-94714354D01*
X114771544Y-94566784D01*
X114703624Y-94402812D01*
X114669000Y-94228741D01*
X114669000Y-94051259D01*
X114703624Y-93877188D01*
X114771544Y-93713216D01*
X114870147Y-93565646D01*
X114995646Y-93440147D01*
X115143216Y-93341544D01*
X115307188Y-93273624D01*
X115456488Y-93243927D01*
X115481258Y-93239000D01*
X115658742Y-93239000D01*
X115683512Y-93243927D01*
G37*
G36*
X130923512Y-93083927D02*
G01*
X131072812Y-93113624D01*
X131236784Y-93181544D01*
X131384354Y-93280147D01*
X131509853Y-93405646D01*
X131608456Y-93553216D01*
X131676376Y-93717188D01*
X131706073Y-93866488D01*
X131711000Y-93891258D01*
X131711000Y-94068742D01*
X131709902Y-94074261D01*
X131676376Y-94242812D01*
X131608456Y-94406784D01*
X131509853Y-94554354D01*
X131384354Y-94679853D01*
X131236784Y-94778456D01*
X131072812Y-94846376D01*
X130923512Y-94876073D01*
X130898742Y-94881000D01*
X130721258Y-94881000D01*
X130696488Y-94876073D01*
X130547188Y-94846376D01*
X130383216Y-94778456D01*
X130235646Y-94679853D01*
X130110147Y-94554354D01*
X130011544Y-94406784D01*
X129943624Y-94242812D01*
X129910098Y-94074261D01*
X129909000Y-94068742D01*
X129909000Y-93891258D01*
X129913927Y-93866488D01*
X129943624Y-93717188D01*
X130011544Y-93553216D01*
X130110147Y-93405646D01*
X130235646Y-93280147D01*
X130383216Y-93181544D01*
X130547188Y-93113624D01*
X130696488Y-93083927D01*
X130721258Y-93079000D01*
X130898742Y-93079000D01*
X130923512Y-93083927D01*
G37*
G36*
X128333231Y-93177965D02*
G01*
X128367209Y-93188273D01*
X128398530Y-93205014D01*
X128425979Y-93227541D01*
X128448506Y-93254990D01*
X128465247Y-93286311D01*
X128475555Y-93320289D01*
X128479640Y-93361770D01*
X128479640Y-93962990D01*
X128475555Y-94004471D01*
X128465247Y-94038449D01*
X128448506Y-94069770D01*
X128425979Y-94097219D01*
X128398530Y-94119746D01*
X128367209Y-94136487D01*
X128333231Y-94146795D01*
X128291750Y-94150880D01*
X127615530Y-94150880D01*
X127574049Y-94146795D01*
X127540071Y-94136487D01*
X127508750Y-94119746D01*
X127481301Y-94097219D01*
X127458774Y-94069770D01*
X127442033Y-94038449D01*
X127431725Y-94004471D01*
X127427640Y-93962990D01*
X127427640Y-93361770D01*
X127431725Y-93320289D01*
X127442033Y-93286311D01*
X127458774Y-93254990D01*
X127481301Y-93227541D01*
X127508750Y-93205014D01*
X127540071Y-93188273D01*
X127574049Y-93177965D01*
X127615530Y-93173880D01*
X128291750Y-93173880D01*
X128333231Y-93177965D01*
G37*
G36*
X126672071Y-93172885D02*
G01*
X126706049Y-93183193D01*
X126737370Y-93199934D01*
X126764819Y-93222461D01*
X126787346Y-93249910D01*
X126804087Y-93281231D01*
X126814395Y-93315209D01*
X126818480Y-93356690D01*
X126818480Y-93957910D01*
X126814395Y-93999391D01*
X126804087Y-94033369D01*
X126787346Y-94064690D01*
X126764819Y-94092139D01*
X126737370Y-94114666D01*
X126706049Y-94131407D01*
X126672071Y-94141715D01*
X126630590Y-94145800D01*
X125954370Y-94145800D01*
X125912889Y-94141715D01*
X125878911Y-94131407D01*
X125847590Y-94114666D01*
X125820141Y-94092139D01*
X125797614Y-94064690D01*
X125780873Y-94033369D01*
X125770565Y-93999391D01*
X125766480Y-93957910D01*
X125766480Y-93356690D01*
X125770565Y-93315209D01*
X125780873Y-93281231D01*
X125797614Y-93249910D01*
X125820141Y-93222461D01*
X125847590Y-93199934D01*
X125878911Y-93183193D01*
X125912889Y-93172885D01*
X125954370Y-93168800D01*
X126630590Y-93168800D01*
X126672071Y-93172885D01*
G37*
G36*
X115683512Y-90703927D02*
G01*
X115832812Y-90733624D01*
X115996784Y-90801544D01*
X116144354Y-90900147D01*
X116269853Y-91025646D01*
X116368456Y-91173216D01*
X116436376Y-91337188D01*
X116471000Y-91511259D01*
X116471000Y-91688741D01*
X116436376Y-91862812D01*
X116368456Y-92026784D01*
X116269853Y-92174354D01*
X116144354Y-92299853D01*
X115996784Y-92398456D01*
X115832812Y-92466376D01*
X115683512Y-92496073D01*
X115658742Y-92501000D01*
X115481258Y-92501000D01*
X115456488Y-92496073D01*
X115307188Y-92466376D01*
X115143216Y-92398456D01*
X114995646Y-92299853D01*
X114870147Y-92174354D01*
X114771544Y-92026784D01*
X114703624Y-91862812D01*
X114669000Y-91688741D01*
X114669000Y-91511259D01*
X114703624Y-91337188D01*
X114771544Y-91173216D01*
X114870147Y-91025646D01*
X114995646Y-90900147D01*
X115143216Y-90801544D01*
X115307188Y-90733624D01*
X115456488Y-90703927D01*
X115481258Y-90699000D01*
X115658742Y-90699000D01*
X115683512Y-90703927D01*
G37*
G36*
X130923512Y-90543927D02*
G01*
X131072812Y-90573624D01*
X131236784Y-90641544D01*
X131384354Y-90740147D01*
X131509853Y-90865646D01*
X131608456Y-91013216D01*
X131676376Y-91177188D01*
X131711000Y-91351259D01*
X131711000Y-91528741D01*
X131676376Y-91702812D01*
X131608456Y-91866784D01*
X131509853Y-92014354D01*
X131384354Y-92139853D01*
X131236784Y-92238456D01*
X131072812Y-92306376D01*
X130923512Y-92336073D01*
X130898742Y-92341000D01*
X130721258Y-92341000D01*
X130696488Y-92336073D01*
X130547188Y-92306376D01*
X130383216Y-92238456D01*
X130235646Y-92139853D01*
X130110147Y-92014354D01*
X130011544Y-91866784D01*
X129943624Y-91702812D01*
X129909000Y-91528741D01*
X129909000Y-91351259D01*
X129943624Y-91177188D01*
X130011544Y-91013216D01*
X130110147Y-90865646D01*
X130235646Y-90740147D01*
X130383216Y-90641544D01*
X130547188Y-90573624D01*
X130696488Y-90543927D01*
X130721258Y-90539000D01*
X130898742Y-90539000D01*
X130923512Y-90543927D01*
G37*
G36*
X115683512Y-88163927D02*
G01*
X115832812Y-88193624D01*
X115996784Y-88261544D01*
X116144354Y-88360147D01*
X116269853Y-88485646D01*
X116368456Y-88633216D01*
X116436376Y-88797188D01*
X116471000Y-88971259D01*
X116471000Y-89148741D01*
X116436376Y-89322812D01*
X116368456Y-89486784D01*
X116269853Y-89634354D01*
X116144354Y-89759853D01*
X115996784Y-89858456D01*
X115832812Y-89926376D01*
X115683512Y-89956073D01*
X115658742Y-89961000D01*
X115481258Y-89961000D01*
X115456488Y-89956073D01*
X115307188Y-89926376D01*
X115143216Y-89858456D01*
X114995646Y-89759853D01*
X114870147Y-89634354D01*
X114771544Y-89486784D01*
X114703624Y-89322812D01*
X114669000Y-89148741D01*
X114669000Y-88971259D01*
X114703624Y-88797188D01*
X114771544Y-88633216D01*
X114870147Y-88485646D01*
X114995646Y-88360147D01*
X115143216Y-88261544D01*
X115307188Y-88193624D01*
X115456488Y-88163927D01*
X115481258Y-88159000D01*
X115658742Y-88159000D01*
X115683512Y-88163927D01*
G37*
G36*
X130923512Y-88003927D02*
G01*
X131072812Y-88033624D01*
X131236784Y-88101544D01*
X131384354Y-88200147D01*
X131509853Y-88325646D01*
X131608456Y-88473216D01*
X131676376Y-88637188D01*
X131711000Y-88811259D01*
X131711000Y-88988741D01*
X131676376Y-89162812D01*
X131608456Y-89326784D01*
X131509853Y-89474354D01*
X131384354Y-89599853D01*
X131236784Y-89698456D01*
X131072812Y-89766376D01*
X130923512Y-89796073D01*
X130898742Y-89801000D01*
X130721258Y-89801000D01*
X130696488Y-89796073D01*
X130547188Y-89766376D01*
X130383216Y-89698456D01*
X130235646Y-89599853D01*
X130110147Y-89474354D01*
X130011544Y-89326784D01*
X129943624Y-89162812D01*
X129909000Y-88988741D01*
X129909000Y-88811259D01*
X129943624Y-88637188D01*
X130011544Y-88473216D01*
X130110147Y-88325646D01*
X130235646Y-88200147D01*
X130383216Y-88101544D01*
X130547188Y-88033624D01*
X130696488Y-88003927D01*
X130721258Y-87999000D01*
X130898742Y-87999000D01*
X130923512Y-88003927D01*
G37*
G36*
X134761246Y-86919912D02*
G01*
X134831183Y-86933823D01*
X134885759Y-86956429D01*
X134962942Y-86988399D01*
X135081522Y-87067632D01*
X135182368Y-87168478D01*
X135261601Y-87287058D01*
X135316177Y-87418818D01*
X135344000Y-87558691D01*
X135344000Y-87701309D01*
X135316177Y-87841182D01*
X135261601Y-87972942D01*
X135182368Y-88091522D01*
X135081522Y-88192368D01*
X134962942Y-88271601D01*
X134885759Y-88303571D01*
X134831183Y-88326177D01*
X134761246Y-88340088D01*
X134691309Y-88354000D01*
X134548691Y-88354000D01*
X134478755Y-88340089D01*
X134408817Y-88326177D01*
X134354241Y-88303571D01*
X134277058Y-88271601D01*
X134158478Y-88192368D01*
X134057632Y-88091522D01*
X133978399Y-87972942D01*
X133923823Y-87841182D01*
X133896000Y-87701309D01*
X133896000Y-87558691D01*
X133923823Y-87418818D01*
X133978399Y-87287058D01*
X134057632Y-87168478D01*
X134158478Y-87067632D01*
X134277058Y-86988399D01*
X134354241Y-86956429D01*
X134408817Y-86933823D01*
X134478754Y-86919912D01*
X134548691Y-86906000D01*
X134691309Y-86906000D01*
X134761246Y-86919912D01*
G37*
G36*
X119493512Y-85463927D02*
G01*
X119642812Y-85493624D01*
X119806784Y-85561544D01*
X119954354Y-85660147D01*
X120079853Y-85785646D01*
X120178456Y-85933216D01*
X120246376Y-86097188D01*
X120281000Y-86271259D01*
X120281000Y-86448741D01*
X120246376Y-86622812D01*
X120178456Y-86786784D01*
X120079853Y-86934354D01*
X119954354Y-87059853D01*
X119806784Y-87158456D01*
X119642812Y-87226376D01*
X119493512Y-87256073D01*
X119468742Y-87261000D01*
X119291258Y-87261000D01*
X119266488Y-87256073D01*
X119117188Y-87226376D01*
X118953216Y-87158456D01*
X118805646Y-87059853D01*
X118680147Y-86934354D01*
X118581544Y-86786784D01*
X118513624Y-86622812D01*
X118479000Y-86448741D01*
X118479000Y-86271259D01*
X118513624Y-86097188D01*
X118581544Y-85933216D01*
X118680147Y-85785646D01*
X118805646Y-85660147D01*
X118953216Y-85561544D01*
X119117188Y-85493624D01*
X119266488Y-85463927D01*
X119291258Y-85459000D01*
X119468742Y-85459000D01*
X119493512Y-85463927D01*
G37*
G36*
X129653512Y-85463927D02*
G01*
X129802812Y-85493624D01*
X129966784Y-85561544D01*
X130114354Y-85660147D01*
X130239853Y-85785646D01*
X130338456Y-85933216D01*
X130406376Y-86097188D01*
X130441000Y-86271259D01*
X130441000Y-86448741D01*
X130406376Y-86622812D01*
X130338456Y-86786784D01*
X130239853Y-86934354D01*
X130114354Y-87059853D01*
X129966784Y-87158456D01*
X129802812Y-87226376D01*
X129653512Y-87256073D01*
X129628742Y-87261000D01*
X129451258Y-87261000D01*
X129426488Y-87256073D01*
X129277188Y-87226376D01*
X129113216Y-87158456D01*
X128965646Y-87059853D01*
X128840147Y-86934354D01*
X128741544Y-86786784D01*
X128673624Y-86622812D01*
X128639000Y-86448741D01*
X128639000Y-86271259D01*
X128673624Y-86097188D01*
X128741544Y-85933216D01*
X128840147Y-85785646D01*
X128965646Y-85660147D01*
X129113216Y-85561544D01*
X129277188Y-85493624D01*
X129426488Y-85463927D01*
X129451258Y-85459000D01*
X129628742Y-85459000D01*
X129653512Y-85463927D01*
G37*
G36*
X127113512Y-85463927D02*
G01*
X127262812Y-85493624D01*
X127426784Y-85561544D01*
X127574354Y-85660147D01*
X127699853Y-85785646D01*
X127798456Y-85933216D01*
X127866376Y-86097188D01*
X127901000Y-86271259D01*
X127901000Y-86448741D01*
X127866376Y-86622812D01*
X127798456Y-86786784D01*
X127699853Y-86934354D01*
X127574354Y-87059853D01*
X127426784Y-87158456D01*
X127262812Y-87226376D01*
X127113512Y-87256073D01*
X127088742Y-87261000D01*
X126911258Y-87261000D01*
X126886488Y-87256073D01*
X126737188Y-87226376D01*
X126573216Y-87158456D01*
X126425646Y-87059853D01*
X126300147Y-86934354D01*
X126201544Y-86786784D01*
X126133624Y-86622812D01*
X126099000Y-86448741D01*
X126099000Y-86271259D01*
X126133624Y-86097188D01*
X126201544Y-85933216D01*
X126300147Y-85785646D01*
X126425646Y-85660147D01*
X126573216Y-85561544D01*
X126737188Y-85493624D01*
X126886488Y-85463927D01*
X126911258Y-85459000D01*
X127088742Y-85459000D01*
X127113512Y-85463927D01*
G37*
G36*
X124573512Y-85463927D02*
G01*
X124722812Y-85493624D01*
X124886784Y-85561544D01*
X125034354Y-85660147D01*
X125159853Y-85785646D01*
X125258456Y-85933216D01*
X125326376Y-86097188D01*
X125361000Y-86271259D01*
X125361000Y-86448741D01*
X125326376Y-86622812D01*
X125258456Y-86786784D01*
X125159853Y-86934354D01*
X125034354Y-87059853D01*
X124886784Y-87158456D01*
X124722812Y-87226376D01*
X124573512Y-87256073D01*
X124548742Y-87261000D01*
X124371258Y-87261000D01*
X124346488Y-87256073D01*
X124197188Y-87226376D01*
X124033216Y-87158456D01*
X123885646Y-87059853D01*
X123760147Y-86934354D01*
X123661544Y-86786784D01*
X123593624Y-86622812D01*
X123559000Y-86448741D01*
X123559000Y-86271259D01*
X123593624Y-86097188D01*
X123661544Y-85933216D01*
X123760147Y-85785646D01*
X123885646Y-85660147D01*
X124033216Y-85561544D01*
X124197188Y-85493624D01*
X124346488Y-85463927D01*
X124371258Y-85459000D01*
X124548742Y-85459000D01*
X124573512Y-85463927D01*
G37*
G36*
X122033512Y-85463927D02*
G01*
X122182812Y-85493624D01*
X122346784Y-85561544D01*
X122494354Y-85660147D01*
X122619853Y-85785646D01*
X122718456Y-85933216D01*
X122786376Y-86097188D01*
X122821000Y-86271259D01*
X122821000Y-86448741D01*
X122786376Y-86622812D01*
X122718456Y-86786784D01*
X122619853Y-86934354D01*
X122494354Y-87059853D01*
X122346784Y-87158456D01*
X122182812Y-87226376D01*
X122033512Y-87256073D01*
X122008742Y-87261000D01*
X121831258Y-87261000D01*
X121806488Y-87256073D01*
X121657188Y-87226376D01*
X121493216Y-87158456D01*
X121345646Y-87059853D01*
X121220147Y-86934354D01*
X121121544Y-86786784D01*
X121053624Y-86622812D01*
X121019000Y-86448741D01*
X121019000Y-86271259D01*
X121053624Y-86097188D01*
X121121544Y-85933216D01*
X121220147Y-85785646D01*
X121345646Y-85660147D01*
X121493216Y-85561544D01*
X121657188Y-85493624D01*
X121806488Y-85463927D01*
X121831258Y-85459000D01*
X122008742Y-85459000D01*
X122033512Y-85463927D01*
G37*
G36*
X116953512Y-85463927D02*
G01*
X117102812Y-85493624D01*
X117266784Y-85561544D01*
X117414354Y-85660147D01*
X117539853Y-85785646D01*
X117638456Y-85933216D01*
X117706376Y-86097188D01*
X117741000Y-86271259D01*
X117741000Y-86448741D01*
X117706376Y-86622812D01*
X117638456Y-86786784D01*
X117539853Y-86934354D01*
X117414354Y-87059853D01*
X117266784Y-87158456D01*
X117102812Y-87226376D01*
X116953512Y-87256073D01*
X116928742Y-87261000D01*
X116751258Y-87261000D01*
X116726488Y-87256073D01*
X116577188Y-87226376D01*
X116413216Y-87158456D01*
X116265646Y-87059853D01*
X116140147Y-86934354D01*
X116041544Y-86786784D01*
X115973624Y-86622812D01*
X115939000Y-86448741D01*
X115939000Y-86271259D01*
X115973624Y-86097188D01*
X116041544Y-85933216D01*
X116140147Y-85785646D01*
X116265646Y-85660147D01*
X116413216Y-85561544D01*
X116577188Y-85493624D01*
X116726488Y-85463927D01*
X116751258Y-85459000D01*
X116928742Y-85459000D01*
X116953512Y-85463927D01*
G37*
M02*
